<?xml version="1.0" standalone="no"?>
<!DOCTYPE svg PUBLIC "-//W3C//DTD SVG 1.1//EN" "http://www.w3.org/Graphics/SVG/1.1/DTD/svg11.dtd" >
<svg xmlns="http://www.w3.org/2000/svg" xmlns:xlink="http://www.w3.org/1999/xlink" version="1.1">
<metadata>
Created by FontForge 20190801 at Sat Oct 22 03:18:34 2022
 By root
Copyright (c) 2022 by Khurasan. All rights reserved.
</metadata>
<defs>
<font id="MilkyBoba" horiz-adv-x="237" >
  <font-face 
    font-family="Milky Boba"
    font-weight="400"
    font-stretch="normal"
    units-per-em="1000"
    panose-1="0 0 0 0 0 0 0 0 0 0"
    ascent="800"
    descent="-200"
    x-height="546"
    cap-height="749.5"
    bbox="-319.207 -375.288 1068.46 791.4"
    underline-thickness="50"
    underline-position="-100"
    unicode-range="U+000D-2122"
  />
<missing-glyph horiz-adv-x="296" 
 />
    <glyph glyph-name=".notdef" horiz-adv-x="296" 
 />
    <glyph glyph-name="NULL" horiz-adv-x="0" 
 />
    <glyph glyph-name="NULL" horiz-adv-x="0" 
 />
    <glyph glyph-name="nonmarkingreturn" unicode="&#xd;" horiz-adv-x="296" 
 />
    <glyph glyph-name="space" unicode=" " horiz-adv-x="296" 
 />
    <glyph glyph-name="asciitilde" unicode="~" horiz-adv-x="554" 
d="M463 384q25 9 45 -7q10 -10 11 -27t-3 -36t-10.5 -36.5t-10.5 -27.5q-7 -18 -20 -36t-31.5 -31.5t-42 -20t-51.5 -1.5q-26 5 -48 18.5t-40 33.5q-17 19 -29 33.5t-23 19t-23 -5t-29 -38.5q-6 -11 -11.5 -21.5t-12.5 -21.5q-21 -32 -59 -23q-18 4 -28 16t-13 29
q-2 11 -1.5 22t2.5 22q16 64 55.5 107.5t99.5 69.5q42 19 79.5 4t57.5 -57q8 -14 12.5 -28.5t11.5 -28.5q8 -17 22.5 -9t31 24.5t32 34.5t26.5 22z" />
    <glyph glyph-name="currency" unicode="&#xa4;" horiz-adv-x="514" 
d="M102 251q-26 38 -23.5 74.5t27.5 74.5q-13 7 -24 12l-22 10q-38 19 -24 48q7 17 21 21t33 -4q9 -4 17 -8t17 -9q7 -5 14 -9.5t14 -9.5q51 25 102.5 33t108.5 -17q7 6 15 13t17 13q21 14 46 23q22 6 35 -15q12 -19 -2 -38l-23 -21q-10 -9 -29 -23q64 -92 -28 -164
q12 -8 21.5 -15.5t19.5 -15.5q25 -18 15 -39q-12 -23 -42 -10q-18 9 -36 19.5t-37 21.5l-20 -8q-30 -11 -60 -14t-61 6q-12 3 -21.5 1t-20.5 -7q-11 -7 -23 -12.5t-23 -11.5q-17 -8 -32.5 -1t-20.5 18q-7 14 -1 28.5t23 22.5q6 4 12.5 6.5t14.5 6.5zM225 343
q-9 -4 -16 -10.5t-5 -17.5q2 -13 10.5 -20.5t21.5 -6.5q17 2 33 5t32 8q12 5 23 12t9 23q-1 15 -15 19.5t-31.5 2.5t-35 -7t-26.5 -8z" />
    <glyph glyph-name="grave" unicode="`" horiz-adv-x="258" 
d="M25 675q-2 19 5 29.5t18 18.5q27 15 49 -4q8 -6 14.5 -14t12.5 -16q20 -29 41 -56.5t53 -45.5q12 -7 15 -20t-2 -25q-6 -12 -16 -17t-21.5 -4.5t-23 4.5t-20.5 10q-71 41 -116 113q-5 8 -6.5 15t-2.5 12z" />
    <glyph glyph-name="question" unicode="?" horiz-adv-x="687" 
d="M279 595q-14 -4 -27.5 -10t-26.5 -14q-27 -17 -31.5 -35t10.5 -47q5 -10 10 -18.5t10 -17.5q8 -16 9 -31.5t-9 -30.5q-11 -17 -26.5 -22t-33.5 -3q-23 1 -44.5 12t-40 28.5t-31.5 39.5t-18 46q-8 43 2.5 80.5t36.5 71.5q34 44 79 70t99 39q75 20 148.5 17.5t147.5 -31.5
q13 -5 26 -12t24 -16q41 -30 55 -70.5t4 -90.5q-7 -29 -21 -55.5t-34 -49.5q-24 -28 -49.5 -55t-52.5 -52q-21 -20 -36.5 -43t-21.5 -52l-6 -15q-12 -27 -43 -29q-15 -2 -26.5 5t-19.5 19q-10 18 -14 35q-10 48 -2.5 93.5t39.5 84.5q14 17 29 32t29 31l26 30t24 32
q11 16 6 27t-24 15q-46 11 -89.5 6.5t-86.5 -14.5zM445 59q-1 -32 -20.5 -53t-49.5 -20q-30 2 -51 26.5t-21 58.5q0 28 23 48t54 20q30 0 47.5 -21.5t17.5 -58.5z" />
    <glyph glyph-name="underscore" unicode="_" horiz-adv-x="448" 
d="M86 -18q-17 -1 -30.5 4.5t-21.5 21.5q-9 17 -4 35t22 28q10 5 20.5 9t21.5 5q17 2 50.5 3.5t70.5 3t70.5 2.5t50.5 1q13 1 25.5 -2t24.5 -8q17 -8 26 -22.5t7 -28.5q-3 -33 -46 -38q-15 -2 -47 -4t-72 -4t-84.5 -3.5t-83.5 -2.5z" />
    <glyph glyph-name="bracketright" unicode="]" horiz-adv-x="350" 
d="M171 642q-40 3 -79 9q-19 3 -38 13q-15 9 -22 21.5t-7 26t8 25.5t23 20q14 8 31 11t34 4q23 2 45 0.5t44 -4.5q39 -5 62.5 -28.5t30.5 -61.5q2 -11 2.5 -22.5t1.5 -22.5q6 -154 2.5 -307t-26.5 -305q-4 -23 -12 -46t-21 -41t-32 -29t-45 -10q-9 1 -25.5 2t-34.5 3t-34 4
t-25 4q-35 9 -38 47q0 35 39 52q6 2 12 3t12 3l70 6q5 16 10 59t8.5 100.5t5.5 124t3 130.5t0 119t-5 90z" />
    <glyph glyph-name="backslash" unicode="\" horiz-adv-x="403" 
d="M26 687q2 47 43 61q20 7 39 0.5t32 -25.5q17 -23 26 -50q17 -45 32.5 -90t31.5 -90q33 -100 66 -198.5t67 -198.5q5 -13 8.5 -26t5.5 -27q1 -14 -4.5 -25.5t-15.5 -18t-22.5 -7t-25.5 6.5q-22 14 -38 38q-11 16 -19.5 33.5t-18.5 35.5q-49 97 -86 196.5t-78 199.5
q-17 42 -29 84t-14 87v14z" />
    <glyph glyph-name="bracketleft" unicode="[" horiz-adv-x="350" 
d="M174 24q40 -3 79 -9q19 -3 38 -13q15 -9 22 -21.5t7 -26t-8 -26t-23 -19.5q-14 -8 -31 -11t-34 -4q-23 -2 -45 -0.5t-44 4.5q-39 5 -62.5 28.5t-30.5 61.5q-2 11 -2.5 22.5t-1.5 22.5q-6 154 -2.5 307t26.5 305q4 23 12 46t21 41t32 29t45 10q9 -1 25.5 -2t34.5 -3t34 -4
t25 -4q35 -9 38 -47q0 -35 -39 -52q-6 -2 -12 -3t-12 -3l-70 -6q-5 -16 -10 -59t-8.5 -100.5t-5.5 -124t-3 -130.5t0 -119t5 -90z" />
    <glyph glyph-name="Z" unicode="Z" horiz-adv-x="645" 
d="M287 199q16 2 27 2.5t22 2.5q97 16 189 -27q11 -5 22 -12.5t20 -17.5q12 -14 16 -31t0 -32.5t-15.5 -28t-28.5 -18.5q-10 -4 -21 -5l-22 -2q-49 -2 -97.5 -3t-98.5 -5q-33 -2 -66 -7.5t-66 -10.5q-18 -2 -34.5 -4t-33.5 0q-22 1 -40 13t-28.5 30t-13 40t5.5 45
q19 48 52 88q38 50 78 97t82 94q32 37 64 72t64 71l29 33l-25 -5t-19 -4q-52 -11 -103.5 -18.5t-105.5 -3.5q-26 2 -45 18t-29 43q-8 21 -7.5 40.5t8 35t22 27t34.5 15.5q25 5 45 5q65 0 128.5 12t128.5 18q25 2 49 2.5t49 -1.5q31 -3 53.5 -19t33.5 -40t10 -53t-17 -58
q-11 -22 -26 -43t-32 -40l-234 -283q-5 -6 -10.5 -13t-13.5 -19z" />
    <glyph glyph-name="Y" unicode="Y" horiz-adv-x="644" 
d="M352 527q12 32 22.5 59.5t21.5 53.5q9 20 18 39.5t20 37.5q14 22 36 34t46.5 13.5t48 -7.5t40.5 -28t17 -40.5t-8 -42.5q-14 -32 -27.5 -62.5t-30.5 -59.5q-59 -106 -109.5 -214t-85.5 -225q-6 -21 -14 -38.5t-19.5 -30.5t-27.5 -18.5t-38 -2.5q-24 4 -41 18.5t-23 37.5
q-8 31 -3.5 64t16 66.5t26.5 65.5t28 61q7 14 3 23.5t-13 19.5q-53 55 -99 104t-97 104q-9 10 -15.5 21t-14.5 23q-13 21 -10.5 42t13.5 41q6 8 11.5 14.5t10.5 13.5q18 21 39.5 29.5t43 6.5t41 -12.5t33.5 -26.5q28 -35 54.5 -69.5t54.5 -69.5q7 -10 14 -20.5t18 -24.5z
" />
    <glyph glyph-name="X" unicode="X" horiz-adv-x="632" 
d="M273 229q-23 -35 -46 -66l-46 -62q-9 -14 -19.5 -29t-22.5 -28q-5 -8 -11.5 -15t-15.5 -12q-15 -12 -32.5 -12.5t-33.5 10.5q-15 10 -23 25t-4 32q9 39 27 75q29 53 60 104.5t63 103.5q10 15 11.5 28.5t-8.5 30.5q-27 44 -51 88.5t-50 89.5l-23 42q-25 60 15 86
q27 17 56 13.5t49 -27.5q25 -32 47.5 -66t44.5 -66q8 -11 14.5 -23t17.5 -29q6 8 9.5 15t8.5 12q35 41 69.5 81t70.5 79q8 9 17.5 17t19.5 16q21 14 44.5 13t43.5 -15q21 -14 31.5 -37t2.5 -46q-6 -17 -13.5 -33.5t-18.5 -30.5q-35 -46 -72.5 -90t-73.5 -89
q-9 -12 -19 -22.5t-20 -21.5q8 -14 15.5 -27t14.5 -26q30 -54 58.5 -107.5t57.5 -107.5q19 -36 10 -60t-44 -40q-56 -27 -96 24q-14 19 -26 39.5t-26 41.5z" />
    <glyph glyph-name="W" unicode="W" horiz-adv-x="889" 
d="M402 248q-26 -42 -49.5 -78.5t-48.5 -71.5q-47 -69 -94 -87.5t-85 1.5t-64.5 72t-32.5 124q-3 58 -2.5 124t5 130t13 119.5t20.5 91.5q13 40 42.5 59.5t59.5 19.5t52 -19.5t22 -57.5q0 -8 -3.5 -21t-8 -26.5t-9 -26t-6.5 -20.5q-6 -28 -13.5 -64.5t-13.5 -75.5t-9.5 -79
t-1.5 -75q1 -15 4 -32.5t8.5 -27t14 -7t21.5 28.5q30 48 58.5 95t57.5 96l19 32q13 21 33 30t41 7t40 -14.5t31 -34.5q6 -12 9.5 -24.5t7.5 -24.5q16 -51 36.5 -98t52.5 -89q13 -25 23 -28.5t16.5 4.5t10 24.5t5.5 32.5t1 31t-1 30q0 78 -1 156l-2 156v15q0 38 12 59.5
t31 30.5t42.5 8t45.5 -9q21 -7 31 -23.5t12 -38.5q5 -38 9 -77t8 -77q8 -88 5.5 -174t-13.5 -174l-10 -46t-12 -46q-21 -61 -64.5 -84t-104.5 -6q-74 22 -128 78q-32 31 -57 66.5t-46 75.5q-4 8 -8.5 18t-11.5 22z" />
    <glyph glyph-name="V" unicode="V" horiz-adv-x="723" 
d="M307 312q6 11 10 17.5t7 13.5q76 166 175 317q30 47 73 82q16 13 33.5 17t34 1t30.5 -13.5t23 -27.5q11 -21 10.5 -43.5t-8.5 -42.5q-12 -26 -24.5 -51.5t-27.5 -49.5q-51 -75 -96 -152t-83 -160q-11 -25 -21 -50.5t-21 -50.5l-30 -61q-16 -30 -41 -44t-51.5 -12.5
t-50.5 17.5t-37 46q-11 25 -21.5 49.5t-20.5 49.5q-44 113 -78.5 227.5t-65.5 232.5q-8 24 -6 48q1 41 42 58q18 8 34.5 3t28.5 -19q11 -13 21 -29t17 -32q33 -75 64 -150t63 -150z" />
    <glyph glyph-name="U" unicode="U" horiz-adv-x="700" 
d="M436 228q16 25 25.5 53t10.5 58q4 90 2 175t6 168q4 33 24 49t55 20q28 4 53.5 -9t35.5 -39q8 -21 13.5 -44t7.5 -46q3 -33 4.5 -77.5t0 -90t-5.5 -88t-12 -72.5q-10 -40 -25.5 -77.5t-37.5 -71.5q-30 -46 -70 -76t-84.5 -44.5t-91 -14t-90.5 16t-82.5 45t-66.5 73.5
q-22 34 -37.5 71.5t-25.5 77.5q-8 30 -12 72.5t-5.5 88t0 90t4.5 77.5q2 23 7.5 46t13.5 44q10 26 35.5 39t53.5 9q35 -4 55 -20t24 -49q8 -83 6 -168t2 -175q1 -30 10.5 -58t25.5 -53t39 -36.5t47.5 -11t47 12.5t37.5 35z" />
    <glyph glyph-name="T" unicode="T" horiz-adv-x="675" 
d="M418 600q-2 -30 -3.5 -58t-2.5 -57q-1 -76 -1 -151.5v-152.5q0 -23 -0.5 -44.5t0.5 -43.5v-20t-2 -18q-4 -30 -22 -44t-50 -15q-30 0 -51.5 15t-31.5 44q-5 17 -9.5 33.5t-5.5 33.5q-3 53 -6 105.5t-1 104.5q0 60 4.5 120.5t7.5 120.5q0 5 1 10.5t1 13.5q-11 2 -20 2
t-19 2q-28 3 -55.5 6.5t-56.5 8.5q-14 3 -28.5 10t-26.5 15q-12 10 -17 22t-3 24t10.5 22t23.5 15q10 4 21.5 4.5t22.5 1.5q68 5 134.5 10t135.5 9q49 2 98.5 2.5t99.5 -0.5q14 0 28.5 -5t26.5 -13q32 -19 35.5 -50t-22.5 -53q-17 -13 -37 -17.5t-43 -5.5q-32 -2 -65.5 -3.5
t-70.5 -3.5z" />
    <glyph glyph-name="S" unicode="S" horiz-adv-x="558" 
d="M215 476q9 -8 20 -15t22 -15q31 -20 62 -39t63 -40q26 -17 55.5 -37t46.5 -47q24 -37 27.5 -74.5t-9.5 -71t-41 -61t-68 -44.5q-61 -25 -123 -26.5t-124 21.5q-17 6 -33.5 16t-31.5 22q-23 18 -30 43t-4 53q3 31 27 43.5t54 -0.5q32 -14 63 -20.5t64 -3.5q11 2 21 3t20 4
q18 6 22 19t-10 27q-13 12 -26 23t-27 20q-23 15 -46 27.5t-46 27.5q-20 11 -39.5 24t-36.5 27q-54 47 -62 108t30 121q16 25 35.5 46t45.5 35q36 20 84 34.5t97 18.5t94.5 -4.5t77 -34.5t43.5 -72t-5 -116q-9 -37 -35 -53.5t-52.5 -13t-45.5 26.5t-13 66q2 16 4 26.5
t0.5 17t-8.5 9t-22 2.5q-12 0 -32 -4.5t-42 -12.5t-42 -19.5t-31.5 -25t-11.5 -29t19 -32.5z" />
    <glyph glyph-name="R" unicode="R" horiz-adv-x="665" 
d="M197 141q-2 -13 -2.5 -22.5t-2.5 -19.5q-3 -12 -5.5 -25t-7.5 -25q-14 -32 -40 -43.5t-61 -1.5q-39 12 -40 49q-2 39 -4 78.5t-3 79.5q-2 103 -4 205t-4 205v14q1 49 20 73t67 36q191 47 381 -24q27 -11 52 -25t47 -34q47 -44 58.5 -99t-13.5 -114q-32 -75 -101 -124
q-30 -22 -62 -42t-67 -43q12 -7 23.5 -13t23.5 -13q23 -13 46.5 -25t45.5 -27q11 -8 20.5 -20t14.5 -25q9 -23 2.5 -45.5t-21.5 -39t-36 -24.5t-40 -2q-22 8 -44.5 15t-44.5 18q-42 20 -82 42t-82 44q-7 4 -15 8t-19 9zM200 343q20 -1 43.5 2.5t47.5 10.5t47.5 17t43.5 22
q31 19 56.5 44t33 50.5t-8.5 47t-67 32.5q-45 11 -90.5 10t-90.5 -4q-12 -2 -17 -9t-5.5 -16.5t1 -20t1.5 -19.5q2 -43 2.5 -84t2.5 -83z" />
    <glyph glyph-name="Q" unicode="Q" horiz-adv-x="671" 
d="M445 67q-28 -14 -53.5 -27t-51.5 -24q-37 -15 -76 -20q-53 -5 -95 11.5t-72 46.5t-48 71.5t-22 88.5q-14 129 28 239.5t124 204.5q15 17 34 28.5t42 13.5q5 0 11 3.5t11 6.5q64 43 130.5 49t134.5 -32q69 -39 100.5 -101t33.5 -142q1 -66 -18.5 -124.5t-53.5 -113.5
q-16 -25 -34.5 -49t-36.5 -50q2 -4 6 -9l8 -10q5 -8 10.5 -16t10.5 -16q20 -38 -5 -65q-26 -24 -59 -5q-16 9 -30.5 19.5t-28.5 21.5zM315 180q-11 14 -20 25t-17 22q-11 18 -22.5 37t-20.5 38q-6 15 -1 28t16 24q11 9 23.5 12.5t26.5 -2.5q12 -6 23 -13t21 -15
q20 -17 38.5 -35t38.5 -37q24 23 42 48.5t31 54.5q12 24 18.5 49.5t5.5 52.5q-2 62 -39.5 87.5t-93.5 1.5q-4 -2 -7.5 -3.5t-7.5 -4.5q-32 -19 -54 -46t-39 -59q-5 -11 -10 -23t-13 -20q-9 -8 -21 -12.5t-24 -11.5q-22 -73 -13 -144q1 -17 7 -31q7 -25 19 -32.5t37 -4.5
q13 2 26.5 6t29.5 8z" />
    <glyph glyph-name="P" unicode="P" horiz-adv-x="614" 
d="M204 163q-1 -23 -3 -46.5t-4 -46.5q-3 -51 -54 -69q-30 -11 -54 -2.5t-35 39.5q-8 23 -13 47.5t-7 48.5q-5 91 -8.5 180t-5.5 180q-1 38 2.5 75.5t7.5 75.5q5 37 26 59t55 33q109 33 207.5 14t187.5 -87q43 -34 66.5 -78t27 -92t-13 -96.5t-52.5 -90.5q-27 -32 -59.5 -55
t-72.5 -37q-40 -12 -80.5 -22.5t-81.5 -21.5q-8 -2 -16.5 -4t-19.5 -4zM218 363q19 -1 41.5 4.5t44 16t40.5 24.5t33 30q25 31 23.5 54t-30.5 49q-24 21 -51.5 34.5t-56.5 22.5q-26 6 -37 -1.5t-11 -33.5q-1 -45 -0.5 -89.5t0.5 -90.5q0 -5 1.5 -10t2.5 -10z" />
    <glyph glyph-name="O" unicode="O" horiz-adv-x="668" 
d="M412 746q40 1 84 -12.5t84 -45.5q80 -62 91 -166q9 -102 -31 -191q-78 -173 -235 -280q-32 -21 -67.5 -35t-75.5 -16q-97 -4 -155 72q-32 42 -43 89t-9 98q0 19 -2 35t-12 33q-19 38 -20.5 77t9.5 78q23 85 78 141.5t133 91.5q39 17 78.5 24t92.5 7zM216 225v-3
q6 -51 28 -63t65 13q70 40 121.5 95.5t83.5 129.5q11 26 15 52.5t-1 54.5q-7 34 -27.5 55t-55.5 26q-57 8 -105 -10t-91 -59q8 -9 11 -18t2 -17.5t-4 -17t-7 -17.5q-8 -16 -13.5 -32.5t-11.5 -33.5q14 -4 24 -6t18.5 -1t18 4.5t22.5 9.5q19 8 36.5 6t29.5 -16q27 -29 5 -66
q-26 -45 -72 -61q-22 -8 -45 -13t-47 -12z" />
    <glyph glyph-name="N" unicode="N" horiz-adv-x="657" 
d="M192 411q0 -34 -0.5 -65t1.5 -63q0 -20 1 -46t2 -53t2 -53t2 -46q1 -5 0.5 -9t-0.5 -9q-3 -26 -16.5 -44.5t-32.5 -27t-42 -5.5t-44 19q-8 7 -14 16.5t-7 20.5q-5 20 -5.5 40.5t-1.5 41.5q-2 49 -3.5 103.5t-3 110t-2.5 110t-2 103.5q-1 31 2.5 61.5t14.5 59.5
q26 64 90 64q38 0 61 -30q26 -35 49.5 -73.5t46 -77.5t45.5 -77.5t49 -74.5q18 -26 36.5 -53t39.5 -57q3 14 5 24.5t3 21.5q4 69 7.5 137.5t10.5 137.5q2 29 11 56.5t25.5 47t41 26.5t56.5 -6q25 -9 34.5 -32t10 -50.5t-4.5 -55.5t-8 -48q-9 -65 -15 -129t-13 -126.5
t-16 -123.5t-24 -118q-8 -25 -25.5 -38t-40.5 -17q-42 -6 -69 32q-20 29 -40.5 59t-40.5 60q-42 62 -83 123t-83 123l-4.5 4.5z" />
    <glyph glyph-name="M" unicode="M" horiz-adv-x="833" 
d="M572 384q-17 -23 -33.5 -45.5t-33.5 -45.5q-8 -13 -16 -24.5t-19 -23.5q-32 -36 -68.5 -36.5t-69.5 37.5q-26 31 -49.5 63t-47.5 64q-14 15 -23 23.5t-13.5 7.5t-6 -13t0.5 -37q5 -63 11 -124t11 -124q5 -42 -9 -67.5t-36.5 -34.5t-48 -2.5t-43.5 28.5q-19 23 -25 58
q-21 106 -23.5 211.5t-5.5 211.5q-1 39 4 77t18 73q11 32 34 47.5t53 14.5q29 -1 50 -24q10 -11 19.5 -23t17.5 -25q35 -50 68.5 -98.5t68.5 -96.5q22 -29 36.5 -29t36.5 28q26 32 50 64.5t50 62.5q32 37 66 72.5t70 70.5q15 15 33 25.5t41 8.5q46 -1 73 -32t25 -82
q-2 -23 -5 -44.5t-7 -42.5q-17 -96 -25 -198.5t-14 -200.5q-2 -26 -5.5 -53t-11.5 -52q-7 -22 -23.5 -36.5t-37.5 -20.5t-43.5 -2t-41.5 18q-16 14 -22.5 31t-6.5 37q2 80 8 158t13 150q2 22 -3 26.5t-12.5 -0.5t-15.5 -15t-13 -16z" />
    <glyph glyph-name="L" unicode="L" horiz-adv-x="580" 
d="M178 156q50 5 95 10t90 7q24 1 55.5 2t61 -4.5t51.5 -20t28 -44.5q1 -26 -10 -43.5t-29 -29.5t-40 -18t-44 -7q-69 -5 -137 -8t-137 -6q-14 -1 -29 1l-30 4q-37 6 -60 28t-26 58q-3 32 -2 64.5t7 64.5q23 120 56.5 235.5t79.5 228.5q13 32 31 48t36.5 19t36 -5.5
t29.5 -25.5t16 -41t-3 -52q-11 -57 -28 -116.5t-35 -118.5t-35 -117t-28 -113z" />
    <glyph glyph-name="K" unicode="K" horiz-adv-x="653" 
d="M331 345q26 -22 51.5 -41.5t49.5 -39.5q13 -10 32.5 -23.5t40.5 -28t40.5 -29t31.5 -24.5q28 -24 34.5 -51.5t-6.5 -60.5q-11 -29 -30 -40.5t-40.5 -11t-42.5 10.5t-36 25q-23 22 -52.5 48.5t-61 53.5t-62 53t-53.5 49q-2 2 -5 3.5t-8 3.5q-2 -23 -4.5 -44t-4.5 -43
q-4 -21 -5.5 -42t-4.5 -42q-5 -33 -25.5 -52.5t-50.5 -20.5q-26 0 -44.5 12t-25.5 37q-8 23 -9 46q-9 141 -9.5 280.5t7.5 281.5q2 31 16 51.5t33.5 30.5t41.5 10t41.5 -9.5t32.5 -29t14 -47.5q2 -42 3 -83t3 -83v-28q37 27 71.5 60t68 67t67.5 67t70 61q27 22 57.5 21
t51.5 -18.5t25.5 -46.5t-20.5 -63q-17 -24 -36 -46t-41 -42q-45 -42 -89.5 -81.5t-90.5 -78.5q-5 -5 -11.5 -9.5t-14.5 -12.5z" />
    <glyph glyph-name="I" unicode="I" horiz-adv-x="279" 
d="M29 129q-2 66 -0.5 147.5t7.5 160.5t16 146t24 104q13 34 40 49t54 13.5t48 -18t23 -44.5q4 -17 6.5 -51t3 -79.5t-0.5 -100t-4.5 -111.5t-10 -114t-15.5 -107q-8 -43 -24.5 -70.5t-37.5 -41t-43 -13t-40.5 15.5t-31.5 43.5t-14 70.5z" />
    <glyph glyph-name="J" unicode="J" horiz-adv-x="640" 
d="M441 620q-17 -5 -30 -7.5t-25 -5.5q-35 -8 -69 -17.5t-69 -16.5q-26 -4 -50.5 3t-45.5 26q-16 15 -21 34.5t-0.5 37.5t18 32.5t35.5 21.5q15 5 31 7.5t33 4.5q45 5 87.5 9.5t87.5 9.5q22 3 45 3q44 0 71.5 -18.5t38.5 -58.5q13 -44 22 -87.5t14 -88.5q7 -67 -0.5 -137.5
t-30.5 -135t-61.5 -119.5t-93.5 -91q-47 -31 -95.5 -39.5t-93 -0.5t-84 30.5t-69.5 53t-48 67t-20 72.5q-2 51 13 95t45 86q28 37 78 43q40 5 64 -19.5t16 -61.5q-3 -14 -8.5 -25.5t-9.5 -24.5q-18 -64 -3.5 -98.5t45 -40.5t68 15t66.5 67q27 48 40 94t17 92t0.5 92.5
t-8.5 96.5z" />
    <glyph glyph-name="H" unicode="H" horiz-adv-x="679" 
d="M444 242q-50 -2 -96.5 -3t-95.5 -2q-4 -32 -2.5 -63t2.5 -61q1 -11 1 -22.5t1 -22.5q1 -22 -15 -43.5t-39 -27.5q-26 -5 -52.5 4.5t-37.5 32.5q-6 11 -10.5 24.5t-6.5 26.5q-3 26 -4 50.5t-3 49.5q-2 14 -2.5 27.5t-1.5 27.5q-11 3 -21.5 6.5t-19 9t-14.5 13.5t-7 22
q-1 16 4 27.5t13 20t18.5 15t20.5 12.5q5 64 9.5 126t9.5 125q3 37 12 75q8 36 34.5 52.5t63.5 7.5q41 -8 45 -49q2 -12 3 -25t1 -25q2 -64 3.5 -127.5t3.5 -129.5q48 -1 92.5 -1.5t92.5 -1.5q1 8 1.5 14t1.5 13q4 56 7.5 111t11.5 111q2 23 9 45t15 43q15 34 51 40
q32 7 53.5 -3.5t32.5 -40.5q6 -20 9.5 -42.5t5.5 -44.5q9 -128 3.5 -255.5t-34.5 -247.5q-7 -29 -16.5 -54.5t-21.5 -44.5t-27.5 -29.5t-34.5 -9.5q-25 2 -41.5 18.5t-18.5 43.5q-4 35 -5 70t-3 70q-1 11 -1 21v21z" />
    <glyph glyph-name="G" unicode="G" horiz-adv-x="663" 
d="M531 712q20 -13 30 -35t9.5 -45.5t-11.5 -45t-32 -34.5q-25 -17 -50.5 -15t-50.5 18q-11 6 -21 14t-21 15q-23 16 -42 15t-41 -19q-62 -51 -83 -128q-15 -57 -12.5 -112.5t25.5 -110.5q13 -34 34 -54.5t46 -26t52.5 3.5t54.5 34q15 14 27 30.5t21 34.5q23 40 -23 38
q-23 -2 -45 -4l-44 -4q-6 -1 -12 -1h-13q-33 0 -50.5 13t-25.5 44q-8 35 4 56.5t42 35.5q42 18 85 27t88 10q41 1 73.5 -12.5t54 -37.5t30.5 -58t4 -74q-7 -53 -32.5 -102.5t-64.5 -89t-88 -66t-102 -32.5q-63 -8 -115.5 13t-96.5 68q-44 46 -66 101.5t-30 118.5
q-10 81 4 157.5t59 148.5q33 56 85 96.5t111.5 58.5t120.5 9t112 -53z" />
    <glyph glyph-name="F" unicode="F" horiz-adv-x="718" 
d="M111 612q-14 5 -26.5 8.5t-23.5 8.5q-41 18 -41 63q2 44 44 60q25 9 54 9q52 0 104 -0.5t105 0.5q55 0 109.5 1t109.5 1q22 0 43 -3t42 -7q16 -3 32 -14q20 -12 29.5 -30.5t8.5 -38t-11.5 -37t-31.5 -28.5q-24 -12 -50 -17t-53 -5q-55 1 -109.5 2t-109.5 3
q-14 1 -26.5 0.5t-26.5 -0.5q-5 -51 -9 -101t-9 -104q39 -2 78 -3.5t79 -2.5q26 0 40.5 -7t19.5 -26q5 -18 -2.5 -36.5t-27.5 -30.5q-23 -14 -49.5 -18t-52.5 -6q-25 -2 -50 -2.5t-51 -2.5q-3 -39 -6.5 -76t-7.5 -73q-2 -14 -3 -27.5t-4 -26.5q-6 -31 -23 -47t-43 -17
q-25 0 -43 15.5t-25 45.5q-4 22 -6 44t-4 45q-1 29 -1 58v58q0 12 -3.5 21t-12.5 19q-20 18 -19 39t21 39q8 8 11.5 16t5.5 19q6 50 12.5 99.5t13.5 99.5v5.5t-1 7.5z" />
    <glyph glyph-name="E" unicode="E" horiz-adv-x="599" 
d="M223 580q-2 -24 -2.5 -46t-2.5 -45q26 0 49.5 -0.5t47.5 0.5q37 1 73 3t73 2q29 0 44 -11.5t23 -39.5q6 -26 -1 -44.5t-22.5 -31t-36 -19t-39.5 -8.5q-48 -5 -94.5 -8.5t-92.5 -6.5q-9 -1 -17 -2t-19 -2q-1 -20 -1.5 -39.5t-1.5 -39.5q-2 -37 6.5 -51.5t25 -16t40.5 5.5
t54 13q34 5 67 11t67 12q5 2 11 2h11q69 6 85 -51q9 -31 -3.5 -61t-43.5 -44q-37 -16 -75 -25.5t-76.5 -15.5t-77 -11t-75.5 -12q-6 -1 -11.5 -1h-10.5q-76 -2 -120 36.5t-52 113.5q-3 41 -2 81.5t6 82.5q11 74 23.5 148t25.5 149q3 15 -5 29q-21 32 -11 56.5t48 31.5
q92 15 181 24q51 4 101.5 6t101.5 2q31 0 51.5 -10.5t30.5 -27t10.5 -36.5t-9 -38t-28.5 -32t-48 -19q-21 -3 -41.5 -4t-40.5 -2q-48 -3 -96 -4.5t-100 -3.5z" />
    <glyph glyph-name="D" unicode="D" horiz-adv-x="638" 
d="M26 635q0 34 5.5 56.5t18.5 35.5t34.5 19.5t53.5 9.5q66 8 128.5 2t124.5 -32q26 -11 52 -23.5t49 -29.5q61 -43 91 -99t33.5 -117t-15 -123.5t-54 -117.5t-84.5 -98.5t-105 -67.5q-56 -23 -112.5 -38t-117.5 -10q-8 1 -14 1.5t-13 2.5q-34 7 -50 26.5t-18 55.5
q-4 151 -6.5 284t-0.5 263zM223 211q8 3 12.5 3.5t9.5 2.5q54 23 92.5 61.5t59 83t21.5 89t-21.5 78t-69.5 52t-121 10.5q5 -96 8.5 -189.5t8.5 -190.5z" />
    <glyph glyph-name="C" unicode="C" horiz-adv-x="653" 
d="M140 51q-54 37 -81.5 87.5t-31.5 115.5q-4 66 16 124t55 112q50 77 116 133.5t157 82.5q94 26 187 -2q18 -5 34 -14.5t27 -26.5q10 -15 11.5 -31.5t-5 -30.5t-19.5 -24t-31 -13q-7 -2 -15 -1.5t-16 1.5q-159 11 -260 -111q-30 -36 -51.5 -76.5t-30.5 -87.5q-3 -15 -3 -31
q1 -29 11.5 -48.5t27 -30.5t36.5 -14t40 0q45 5 85.5 20t81.5 33q22 10 48.5 14.5t48.5 -0.5t35.5 -22t10.5 -50q-3 -38 -24.5 -65t-54.5 -44q-44 -22 -97.5 -34t-108.5 -13t-107 10t-92 37z" />
    <glyph glyph-name="B" unicode="B" horiz-adv-x="567" 
d="M426 443q22 -13 36 -23q57 -39 71.5 -88.5t-0.5 -98t-53 -90t-86 -64.5q-17 -8 -35 -15t-37 -13q-38 -11 -76 -21.5t-76 -21.5q-24 -7 -46 -6q-49 2 -67 44q-5 14 -9.5 28t-5.5 28q-5 63 -9 125.5t-6 125.5q-1 74 1 147t16 145q1 9 3 17t4 17q9 32 27.5 44.5t54.5 13.5
q11 0 21 2t21 4q50 30 111 34.5t115.5 -11.5t93.5 -49t45 -79q3 -20 -1.5 -45.5t-17.5 -52t-36.5 -52t-58.5 -45.5zM304 346q-26 4 -49 2t-37 -12q-2 -2 -5 -6t-3 -7q1 -29 3 -59t4 -61q25 7 48 14.5t44 18.5q31 15 50 32t21.5 32t-15.5 27.5t-61 18.5zM204 616v-120
q43 13 76.5 32t54 39t25.5 37.5t-9.5 26.5t-50 6.5t-96.5 -21.5z" />
    <glyph glyph-name="A" unicode="A" horiz-adv-x="614" 
d="M385 161q-45 -5 -90.5 -2.5t-90.5 -2.5q-2 -17 -4 -32.5t-5 -32.5q-2 -10 -3.5 -20.5t-6.5 -20.5q-6 -18 -20 -30t-32 -16.5t-39.5 -1t-43.5 16.5q-18 12 -23.5 39.5t-3.5 57.5q2 57 11 116t23.5 116t34 111t42.5 102q15 29 31.5 57.5t36 53t42 43t49.5 27.5
q41 12 77.5 2.5t69.5 -37.5q26 -23 45 -55t32 -67.5t20.5 -71.5t10.5 -66q6 -41 12 -84.5t11.5 -88.5t10 -89t7.5 -85q4 -42 -18 -69.5t-68 -29.5q-34 0 -53.5 11.5t-31 32.5t-18 50.5t-15.5 65.5zM287 499q-31 -56 -45 -116.5t-23 -124.5q-1 -1 4 -7q36 5 73.5 5t75.5 5
q-6 55 -12.5 112.5t-13.5 110.5q-7 44 -24.5 47t-34.5 -32z" />
    <glyph glyph-name="braceright" unicode="}" horiz-adv-x="408" 
d="M205 289q-5 7 -8 11t-6 9q-56 73 -27 158l11 33q14 41 0 87q-9 27 -26 38t-46 9q-41 -3 -59 33q-9 19 -11.5 39t9.5 40q7 10 18 15q8 3 18 5.5t19 2.5q51 2 94.5 -19.5t72.5 -58.5t39.5 -85.5t-2.5 -99.5q-3 -14 -7 -26.5t-8 -26.5q-11 -39 18 -65q11 -10 21 -18.5
t21 -17.5q21 -18 28.5 -39t4 -40t-18 -34t-36.5 -21q-20 -5 -24 -13t0 -28q3 -16 7.5 -31.5t9.5 -31.5q7 -26 12 -51.5t3 -52.5q-3 -36 -20 -64t-51 -41q-48 -18 -95.5 -16t-94.5 22q-27 11 -35 32t0 51q10 41 66 40q14 0 27.5 -1t27.5 1q15 1 20 7.5t3 21.5q-2 13 -5 25.5
t-5 24.5q-4 23 -6.5 46t0.5 45.5t12.5 43.5t28.5 41z" />
    <glyph glyph-name="bar" unicode="|" 
d="M43 24q-1 116 -1 200t0.5 143.5t1.5 98t3 62.5q3 35 8 70l10 70q3 17 10 32q9 17 22 25.5t33 8.5q40 2 55 -33q6 -12 9.5 -25.5t5.5 -27.5q8 -71 5.5 -141.5t-7.5 -142.5q-1 -14 -1.5 -38.5t-1 -51t-1 -51t-0.5 -38.5q-1 -50 -5.5 -99t-15.5 -98q-2 -7 -3.5 -13t-4.5 -13
q-16 -33 -50 -36q-19 -2 -33.5 6.5t-21.5 25.5q-7 16 -11.5 32.5t-5.5 33.5z" />
    <glyph glyph-name="braceleft" unicode="{" horiz-adv-x="408" 
d="M205 289q19 -20 28.5 -41t12.5 -43.5t0.5 -45.5t-6.5 -46q-2 -12 -5 -24.5t-5 -25.5q-2 -15 3 -21.5t20 -7.5q14 -2 27.5 -1t27.5 1q56 1 66 -40q8 -30 0 -51t-35 -32q-47 -20 -94.5 -22t-95.5 16q-34 13 -51 41t-20 64q-2 27 3 52.5t12 51.5q5 16 9.5 31.5t7.5 31.5
q4 20 0 28t-24 13q-23 6 -37 21t-17.5 34t4 40t28.5 39q11 9 21 17.5t21 18.5q29 26 18 65q-4 14 -8 26.5t-7 26.5q-14 51 -3 99.5t40 85.5t72.5 58.5t94.5 19.5q9 0 19 -2.5t18 -5.5q11 -5 18 -15q12 -20 9.5 -40t-11.5 -39q-18 -36 -59 -33q-29 2 -46 -9t-26 -38
q-14 -46 0 -87l11 -33q29 -85 -27 -158q-3 -5 -6 -9t-8 -11z" />
    <glyph glyph-name="z" unicode="z" horiz-adv-x="570" 
d="M234 437l-84 -26q-19 -5 -38 -1t-33 21q-16 15 -18 33.5t4 37.5q6 20 20 32t34 20q59 20 121 28.5t126 6.5q24 -1 46.5 -3t45.5 -8q25 -6 43.5 -19.5t30 -31.5t13.5 -39t-6 -43q-10 -23 -24 -45t-33 -41q-38 -43 -79.5 -83t-83.5 -80l-25 -25q28 0 52 0.5t47 -0.5
q15 -1 35.5 -4t41.5 -9t39.5 -16t28.5 -24t9.5 -32.5t-16.5 -42.5q-9 -11 -25 -18.5t-34.5 -12.5t-37 -7t-30.5 -2q-62 0 -123.5 2t-123.5 5q-14 2 -26.5 4.5t-23.5 6.5q-50 17 -66.5 54.5t6.5 75.5q11 17 25 30t28 27l208 197q16 15 20 24t-1 13.5t-17 5.5t-25.5 -0.5
t-27.5 -4.5t-23 -6z" />
    <glyph glyph-name="y" unicode="y" horiz-adv-x="608" 
d="M388 261q-4 -3 -15 -16t-25 -30q-30 -36 -64.5 -63.5t-70.5 -38t-72.5 1t-71.5 53.5q-46 58 -40 125q2 52 8 102.5t17 100.5q4 21 21 35.5t40 21.5t48.5 5.5t46.5 -14.5q23 -14 27.5 -35t0.5 -44q-4 -20 -6.5 -32t-4.5 -22t-5 -22t-7 -32q-11 -54 -4 -72t23.5 -13.5
t37.5 24.5t37 43q19 27 33.5 50t27 44.5t23 42.5t21.5 44q12 21 39 31t54.5 7.5t48 -16.5t20.5 -41q0 -40 3 -100.5t1.5 -128t-12 -135.5t-38.5 -122.5t-77.5 -89t-127.5 -34.5q-62 -1 -120 8.5t-112 32.5q-8 4 -17.5 9.5t-17.5 10.5q-19 14 -24.5 31t2.5 32q9 16 27.5 24
t41.5 6q32 -3 61.5 -4.5t59.5 -9.5t57 1t48 28.5t36 46.5t23 55t7.5 54.5t-9.5 44.5z" />
    <glyph glyph-name="x" unicode="x" horiz-adv-x="704" 
d="M182 289q-22 23 -42 43.5t-39 43.5q-14 20 -29 40.5t-28 42.5q-13 23 -10 44.5t16 35.5q17 14 38.5 16t44.5 -14q25 -15 47 -33.5t45 -35.5q18 -14 36.5 -28.5t38.5 -30.5q7 6 13 11.5t12 9.5l204 158q12 9 27 16.5t31 12.5q26 9 48 1.5t34 -29.5q11 -22 6.5 -43.5
t-24.5 -40.5q-34 -28 -68 -54.5t-66 -56.5q-24 -20 -47 -43.5t-48 -46.5q25 -26 46.5 -50t43.5 -47q13 -15 26 -29.5t23 -29.5q11 -14 19 -30t12 -32q16 -54 -32 -85q-20 -15 -39.5 -15t-42.5 19q-42 34 -80.5 69t-76.5 70q-11 10 -18.5 20.5t-18.5 22.5q-23 -21 -43 -40
t-41 -37q-20 -19 -38.5 -38.5t-40.5 -36.5q-20 -16 -39.5 -16.5t-36.5 12.5q-15 16 -17.5 36.5t13.5 42.5q21 30 44 60t47 59q22 28 50 56z" />
    <glyph glyph-name="w" unicode="w" horiz-adv-x="946" 
d="M242 240l95 214q32 65 84 61q30 -4 52 -25t30 -58q5 -27 9 -54.5t12 -53.5q8 -29 20.5 -56t26.5 -53q11 -20 29 -35q30 -24 51 -16.5t35.5 31t23 53t11.5 49.5q8 46 13 92l10 92q3 34 15.5 52.5t39.5 25.5q31 8 63.5 -4t46.5 -41q15 -31 15 -75.5t-8 -91.5t-21.5 -90.5
t-25.5 -73.5q-14 -35 -31 -65.5t-43 -55.5q-55 -56 -123 -65t-133 27q-45 26 -76.5 63.5t-54.5 83.5l-8 16t-9 19q-11 -15 -19 -28q-13 -24 -25 -47t-27 -46q-8 -14 -19.5 -27.5t-22.5 -24.5q-37 -35 -79.5 -35.5t-80.5 34.5q-34 32 -52 74t-23 88q-9 70 -5.5 138t14.5 136
q8 51 35 70.5t75 13.5q20 -5 30.5 -18t15.5 -30t6.5 -34.5t0.5 -33.5q-5 -43 -8.5 -83.5t-5.5 -82.5q-1 -19 1 -35t7 -22.5t13.5 -1t19.5 28.5z" />
    <glyph glyph-name="v" unicode="v" horiz-adv-x="610" 
d="M270 220q14 29 29 57.5t31 56.5q23 42 45 80.5t45 77.5q18 30 42 51q18 15 37.5 20t42.5 -5q46 -22 39 -72q-1 -24 -10 -47q-31 -98 -78 -187.5t-107 -175.5q-28 -41 -61 -61.5t-67 -20.5t-67.5 20.5t-61.5 61.5q-29 40 -46 89q-50 143 -52 294q0 22 9 40t24 30.5t35 19
t43 5.5q26 -2 45 -17.5t27 -42.5q4 -16 6.5 -33t3.5 -34q6 -39 9.5 -78.5t8.5 -80.5q2 -12 8 -24t11 -24h9z" />
    <glyph glyph-name="u" unicode="u" horiz-adv-x="745" 
d="M512 195q-12 -16 -20 -26t-16 -18q-24 -23 -49 -47t-51 -43q-54 -38 -108.5 -43t-101 16t-80.5 66.5t-47 110.5q-14 69 -6 137t34 134q6 14 13.5 26t16.5 22q31 31 72 16q21 -8 34.5 -23t14.5 -38q0 -21 -2 -42t-3 -42q-2 -45 -4.5 -85t5.5 -79q8 -35 24 -43t35 -1
t39 23.5t35 30.5q45 45 84 94.5t60 111.5q11 31 37 52t54.5 25.5t53.5 -11t33 -55.5q11 -44 19.5 -102t12.5 -118.5t2 -117t-12 -97.5q-6 -21 -20 -33.5t-31 -16t-34.5 2.5t-30.5 23q-10 12 -16.5 27t-13.5 31q-5 14 -8.5 29t-8.5 30q-2 16 -6 31.5t-10 41.5z" />
    <glyph glyph-name="t" unicode="t" horiz-adv-x="649" 
d="M379 512q39 -5 75.5 -8.5t72.5 -8.5q9 -2 20 -4.5t22 -7.5q21 -10 31.5 -28t8.5 -39q-1 -22 -15 -39.5t-37 -20.5q-35 -7 -67.5 -11.5t-66.5 -7.5q-15 -4 -29.5 -5t-33.5 -3q-5 -29 -7 -57t3 -58q2 -14 11 -22.5t23 -7.5q19 1 37 1.5t35 3.5q14 4 28.5 8t28.5 6
q32 5 56 -4.5t35 -31.5q15 -25 11 -55t-25 -53q-21 -24 -49 -36t-59 -20q-43 -11 -84.5 -13.5t-83.5 5.5q-68 14 -108.5 50t-51.5 103q-6 37 -5.5 74.5t-1.5 74.5q0 10 1 21t3 23q-15 4 -29 6t-28 7q-11 3 -21.5 5t-20.5 7q-34 16 -37.5 46.5t25.5 52.5q15 10 34 15t39 10
q14 4 28.5 4.5t30.5 2.5l20 72q6 20 12.5 39.5t17.5 38.5q32 59 102 43q26 -6 40 -23.5t19 -50.5q1 -24 -3 -47q-1 -14 -3.5 -26.5t-3.5 -30.5z" />
    <glyph glyph-name="s" unicode="s" horiz-adv-x="511" 
d="M315 386q22 -5 44 -11t43 -17q32 -17 52 -46t26.5 -64t0 -74t-27.5 -75q-28 -46 -64.5 -69.5t-78.5 -33.5q-87 -21 -172 2q-23 5 -45.5 18t-41.5 28q-20 14 -27 38.5t-3 53.5q5 47 34.5 61t68.5 7q18 -4 35.5 -10l35 -12t35.5 -10t37 -4t31 8t14.5 20t-7.5 25t-35 23
q-23 5 -46.5 8.5t-45.5 13.5q-19 7 -39 18t-34 29q-18 18 -28 42t-12.5 50t3.5 53t20 52q14 26 34 44.5t42 30.5q58 32 115 34.5t115 -19.5q10 -3 23 -9.5t26.5 -14.5t25 -17t19.5 -16q15 -18 14.5 -44.5t-12.5 -49.5t-33 -37t-48 -8q-16 6 -30.5 10.5t-28.5 12.5
q-32 18 -56.5 18.5t-33 -8.5t3 -23.5t51.5 -27.5z" />
    <glyph glyph-name="r" unicode="r" horiz-adv-x="612" 
d="M215 516q54 21 113 32t122 7q19 -3 38 -7t38 -12q31 -13 45.5 -36.5t11.5 -54.5q-3 -26 -22.5 -47t-49.5 -27q-20 -4 -41 -4h-42q-32 -1 -65 0t-65 -4q-20 -3 -33.5 -8.5t-22 -15.5t-13 -24t-5.5 -35q-2 -22 -1.5 -45t-1.5 -46q-2 -27 -2.5 -54.5t-3.5 -53.5
q-3 -27 -16 -46.5t-32 -29.5t-41.5 -10t-46.5 11q-17 9 -29 21.5t-14 31.5q-4 23 -5.5 46.5t-1.5 47.5q0 34 1 69.5t6 71.5q3 46 7.5 94t12.5 95q8 43 35 61.5t62 10.5q16 -5 30.5 -16.5t31.5 -22.5z" />
    <glyph glyph-name="q" unicode="q" horiz-adv-x="612" 
d="M372 77q-38 0 -74 -1t-71 2q-35 2 -66 13.5t-60 30.5q-43 29 -60.5 74.5t-5.5 96.5q8 38 27.5 71t46.5 60q76 75 167 116t200 45h16.5t16.5 -1q45 -6 65.5 -28t18.5 -67q-4 -57 -9 -112.5t-12 -112.5q-8 -79 -18 -158t-18 -159q-2 -12 -4 -23.5t-4 -22.5
q-5 -20 -17 -33.5t-33 -16.5q-21 -5 -40 1.5t-29 26.5q-21 36 -27 79q-4 29 -5.5 58t-4.5 61zM413 398q-48 -20 -89.5 -43t-73.5 -59q-5 -5 -8 -10l-6 -10q-15 -44 28 -48q29 -5 58 1t56 17q5 2 9 7t6 11q6 31 10.5 63.5t9.5 70.5z" />
    <glyph glyph-name="o" unicode="o" horiz-adv-x="685" 
d="M394 611q61 1 107 -25t81 -77q39 -56 54 -111t11 -105.5t-23.5 -96t-50.5 -82.5t-71 -64.5t-83 -41.5q-95 -35 -195 -3q-59 19 -102.5 59t-66.5 92t-24.5 113t23.5 122q63 158 220 205q30 8 60.5 9.5t59.5 5.5zM393 195q28 13 44.5 33.5t22 44.5t-1 50t-25.5 52
q-18 25 -43 43q-28 21 -64 9q-21 -8 -40 -25.5t-34 -40.5t-24 -48.5t-9 -49.5q3 -57 48 -76q66 -23 126 8z" />
    <glyph glyph-name="p" unicode="p" horiz-adv-x="691" 
d="M263 77q-6 -42 -11.5 -79t-10.5 -72q-2 -11 -3.5 -22t-5.5 -23q-11 -27 -31.5 -42t-47.5 -14q-39 1 -57.5 24.5t-27.5 56.5q-16 58 -23 121.5t-7.5 127.5t2.5 127t8 120q2 17 6 33.5t6 33.5q21 97 129 115q85 12 167 8.5t163 -35.5q44 -17 77.5 -44t52.5 -68
q20 -45 13.5 -86.5t-33.5 -80.5q-20 -37 -52.5 -63.5t-69.5 -49.5q-47 -28 -97.5 -46.5t-104.5 -31.5zM265 269q16 4 27.5 5.5t21.5 5.5q43 13 78 32.5t66 49.5q20 20 15 36t-30 32q-28 18 -59 21.5t-63 -1.5q-17 -3 -28.5 -11.5t-13.5 -24.5q-5 -36 -8 -71.5t-6 -73.5z" />
    <glyph glyph-name="n" unicode="n" horiz-adv-x="658" 
d="M212 490q9 7 17 12l16 10q41 26 84.5 41t93.5 13q107 -2 161 -95q24 -41 31.5 -85t11.5 -90q2 -21 3 -51t-1.5 -63t-9 -66t-19.5 -59.5t-33 -44t-49 -19.5q-20 -2 -39.5 3t-36 16t-27 27.5t-12.5 39.5q-2 19 -1 45.5t2.5 56t2.5 59.5t-1 57q-5 54 -20.5 77t-36 22
t-43.5 -22t-43 -56t-34 -80t-16 -93q-1 -18 -4 -36l-6 -36q-7 -34 -30.5 -54.5t-55.5 -19.5q-33 0 -57 22.5t-27 58.5q-2 28 -2.5 56.5t0.5 57.5q1 65 3 128.5t3 128.5q1 10 0.5 20.5t0.5 20.5q6 77 78 87q28 5 51.5 -11.5t35.5 -51.5q2 -5 3.5 -11.5t5.5 -14.5z" />
    <glyph glyph-name="m" unicode="m" horiz-adv-x="1101" 
d="M197 480q21 21 42.5 38.5t45 30t49.5 18.5t56 3q58 -6 96 -41t65 -89q8 9 14 16t12 15q30 35 67.5 58.5t79 34.5t85 8.5t86.5 -19.5q41 -16 71 -47.5t51 -73.5t33 -91t16 -98t1.5 -95t-11.5 -82q-11 -55 -64 -70q-30 -5 -56 -0.5t-45.5 17.5t-30.5 34.5t-11 50.5
q0 40 1 78t-1 76q-2 24 -7 55.5t-17 56.5t-33.5 37.5t-54.5 -2.5q-25 -11 -45 -30t-35 -42t-24.5 -48.5t-12.5 -49.5q-5 -33 -9 -65t-6 -65q-4 -51 -28 -73t-73 -17q-45 6 -64 26.5t-23 67.5q-3 44 -7 87.5t-11 87.5q-3 22 -12 47t-23 43t-34 24t-47 -10q-21 -12 -35 -33
t-22 -46t-11.5 -50.5t-3.5 -46.5q-1 -32 -0.5 -64.5t-1.5 -64.5q-2 -29 -22 -49.5t-47 -25.5q-29 -6 -55 7.5t-37 39.5q-8 23 -9 46q-6 97 -4.5 194t11.5 194q2 24 10 45q17 47 66 47q23 -1 39 -13.5t24 -35.5q3 -11 5 -21.5t7 -24.5z" />
    <glyph glyph-name="a" unicode="a" horiz-adv-x="688" 
d="M482 134q-6 -5 -13 -11t-14 -13q-35 -30 -73.5 -54.5t-83.5 -39.5q-35 -12 -71 -14.5t-71 7.5q-38 10 -66.5 32.5t-45.5 53.5t-22 67.5t5 75.5q17 67 61 117q129 149 313 201q58 19 100 18t71.5 -17t47.5 -44t29 -61q2 -17 2 -34.5t1 -34.5q2 -62 3 -123t1 -124
q0 -23 -2 -47.5t-6 -47.5q-5 -27 -20.5 -41.5t-38.5 -16.5q-23 -3 -41.5 7.5t-29.5 35.5q-11 26 -18 52.5t-18 55.5zM373 371q-67 -38 -125 -96q-13 -14 -24 -28.5t-22 -30.5q-8 -11 -14 -24t4 -26t24 -10.5t27 7.5q68 23 115.5 63t80.5 95q27 43 31.5 63t-7 23.5t-35.5 -7
t-55 -29.5z" />
    <glyph glyph-name="b" unicode="b" horiz-adv-x="625" 
d="M227 523q28 5 53.5 10.5t50.5 7.5q45 2 85 -10.5t77 -35.5q40 -26 66 -59.5t35.5 -72t3.5 -80t-29 -83.5q-20 -35 -47 -63.5t-59 -52.5q-58 -42 -123 -63.5t-135 -28.5q-56 -5 -90.5 4.5t-53.5 34t-25.5 63.5t-5.5 92q3 113 10 224.5t23 223.5q3 23 8.5 46.5t13.5 46.5
q7 22 19 35.5t27.5 20t32.5 7t35 -2.5q16 -3 27.5 -14t14.5 -28q2 -17 3.5 -35t-0.5 -36q-1 -14 -3 -28.5t-4 -32t-4.5 -39.5t-5.5 -51zM394 270q9 12 16.5 23.5t11.5 23.5t2 23.5t-13 23.5q-14 15 -32.5 23.5t-38.5 9.5t-39 -5.5t-34 -20.5q-34 -34 -47 -65.5t-9.5 -55
t20.5 -37.5t42.5 -14t57 16.5t63.5 54.5z" />
    <glyph glyph-name="c" unicode="c" horiz-adv-x="561" 
d="M289 -3q-35 0 -68.5 5t-65.5 19q-37 17 -64.5 44.5t-44 61t-21 72.5t5.5 78q4 17 9.5 33.5t13.5 30.5q110 204 335 256q29 7 57 3t54 -24q20 -17 27.5 -47.5t-3.5 -59.5q-10 -28 -30 -44.5t-49 -14.5q-35 3 -67.5 -4.5t-61.5 -29.5q-74 -55 -109 -139q-12 -29 0 -49
t44 -24q17 -3 34 -2t34 3q32 2 64.5 4.5t65.5 3.5q11 1 24.5 -2.5t24.5 -8.5q15 -7 24 -19t11.5 -26t-2.5 -28.5t-17 -26.5q-8 -8 -18 -14.5t-21 -11.5q-47 -21 -90 -30t-96 -9z" />
    <glyph glyph-name="d" unicode="d" horiz-adv-x="608" 
d="M404 38l-63 -9q-71 -10 -126.5 8t-95 53.5t-62.5 83.5t-30 98q-7 53 4 97.5t35.5 78.5t59 58t73 36.5t79.5 13.5t78 -10q14 -4 27.5 -10.5t30.5 -13.5q2 32 2.5 60.5t2.5 57.5q0 15 1 30.5t6 29.5q11 31 36.5 44.5t56.5 6.5q50 -11 53 -71q2 -29 3 -56.5t1 -56.5
q-2 -239 -6 -477q-1 -36 -11 -74q-17 -61 -73 -61q-55 -1 -74 58q-2 5 -4 11t-4 14zM308 190l37 6q38 4 49 45q12 50 -11 96q-30 63 -98 52q-16 -3 -31.5 -10.5t-27.5 -18t-20 -24t-10 -26.5q-3 -23 4 -45t22.5 -38.5t37.5 -26.5t48 -10z" />
    <glyph glyph-name="e" unicode="e" horiz-adv-x="617" 
d="M203 281q-3 -24 0 -46t11 -43q7 -18 20.5 -26t30.5 -8q26 2 51 4t51 6q27 4 53.5 9.5t54.5 10.5q59 11 84 -37q12 -23 8.5 -47.5t-25.5 -42.5q-32 -29 -72 -43q-57 -19 -114 -26.5t-116 1.5q-69 9 -116.5 44t-70.5 101q-30 86 -23.5 169t51.5 162q37 65 94 99t129 43
q88 13 171 -23q30 -13 54.5 -33.5t41.5 -50.5q21 -39 16.5 -77.5t-35.5 -70.5q-29 -30 -69.5 -53t-86 -35t-92.5 -10t-89 22q-2 1 -4.5 0.5t-7.5 0.5zM435 431q-21 16 -49 21t-55.5 -0.5t-52.5 -20t-41 -36.5q21 -11 45.5 -14t51 1.5t52.5 16.5t49 32z" />
    <glyph glyph-name="f" unicode="f" horiz-adv-x="544" 
d="M58 164q-42 35 -40 62.5t47 56.5q11 48 20.5 94.5t21.5 92.5q7 25 17.5 49.5t24.5 47.5q44 78 117.5 112.5t160.5 19.5q37 -8 69 -30q20 -14 28 -35t3 -47q-14 -77 -94 -62q-18 4 -36.5 6t-37.5 4q-32 2 -52 -23q-36 -45 -49 -95.5t-16 -105.5q34 1 65 3t62 0
q17 -1 35 -5.5t34 -12.5q19 -11 29 -28t11 -35.5t-7 -37t-25 -31.5q-20 -14 -43 -20.5t-48 -6.5q-31 -1 -62 -0.5t-64 0.5l-4 -42v-72t-1 -72q0 -33 -12.5 -50t-40.5 -22q-31 -7 -59 5t-36 41q-8 25 -11 51.5t-6 52.5q-2 17 -1.5 34.5t0.5 34.5v66z" />
    <glyph glyph-name="g" unicode="g" horiz-adv-x="612" 
d="M442 569q3 2 6.5 4t9.5 4q32 16 61 7t44 -38q5 -11 8 -22t4 -22q8 -116 1.5 -229.5t-36.5 -225.5q-9 -35 -23 -66.5t-33 -62.5q-38 -66 -101 -94t-146 -24q-18 1 -33.5 7t-26.5 20q-24 25 -17 52t39 39q22 8 42 17.5t40 17.5q26 10 44 28t27 41q10 23 17 45.5t15 45.5
q-2 3 -7 5l-30 -26q-23 -19 -47.5 -34t-53.5 -25q-48 -15 -94 -2t-78 51q-17 20 -28.5 43t-14.5 48q-14 101 18.5 186.5t114.5 154.5q42 35 91 53.5t109 16.5q18 -2 36.5 -6t41.5 -9zM383 430q-14 -2 -25 -3t-21 -5q-47 -15 -77 -54q-28 -34 -43 -73t-19 -82
q-1 -11 -0.5 -21.5t17.5 -16.5q27 12 57 42.5t55 68t41 76.5t15 68z" />
    <glyph glyph-name="h" unicode="h" horiz-adv-x="642" 
d="M223 421q18 15 30 23q33 22 67.5 39.5t74.5 24.5q46 8 85 -6.5t63 -52.5q25 -40 35 -81q17 -63 22.5 -126.5t5.5 -129.5q0 -12 -3 -25.5t-8 -25.5q-16 -31 -44.5 -44.5t-63.5 -8.5q-77 16 -83 87l-16 167q0 11 -3 25q-11 34 -29 38.5t-44 -21.5q-11 -11 -20.5 -23
t-18.5 -25q-26 -42 -43 -87t-22 -94q-2 -22 -10 -39.5t-29 -29.5q-21 -11 -42.5 -12.5t-39.5 5.5t-31 22t-17 37q-5 17 -5.5 35t0.5 36q2 130 5 258.5t5 258.5v14t2 14q6 41 36.5 61t74.5 12q45 -14 53 -53q5 -23 8.5 -46t3.5 -46q1 -44 1 -88v-93z" />
    <glyph glyph-name="i" unicode="i" 
d="M150 -1q-29 -9 -55 -3t-47 28q-9 8 -13 21.5t-5 24.5q-1 29 1 58t2 58q1 18 0.5 36t0.5 37q2 29 3.5 57.5t9.5 56.5q5 21 17 35t28.5 20t35.5 4t39 -12q14 -7 20.5 -18t7.5 -24q3 -21 5 -42t2 -42q-2 -47 2.5 -96.5t3.5 -91.5t-13 -71.5t-45 -35.5zM132 487
q-43 0 -70.5 24.5t-26.5 61.5q0 21 7.5 39.5t20.5 32.5t30 22t36 8q42 -1 69.5 -26t27.5 -63q0 -20 -7.5 -38t-20 -31.5t-30 -21.5t-36.5 -8z" />
    <glyph glyph-name="j" unicode="j" horiz-adv-x="279" 
d="M69 212l-8 121v28t2 27q5 24 21.5 38.5t38.5 16.5t40.5 -8t26.5 -32q10 -28 17.5 -56.5t12.5 -57.5q19 -113 15 -226t-45 -222q-29 -78 -81.5 -130t-134.5 -73q-104 -28 -211 3q-46 14 -67 47.5t-13 77.5q11 68 78 75q12 1 24.5 1h25.5l42 -2t42 -1q51 0 81 21t49 70
q20 51 29 103.5t13 106.5q1 20 0.5 37.5t-0.5 34.5h2zM128 707q42 1 69.5 -25t27.5 -63q0 -24 -8 -45.5t-22 -38t-33 -26t-41 -9.5q-45 -1 -73 23.5t-28 65.5q-1 55 28 86.5t80 31.5z" />
    <glyph glyph-name="k" unicode="k" horiz-adv-x="647" 
d="M224 403q70 17 130 46q40 19 80 38.5t78 42.5q15 9 31 9t29.5 -6.5t23.5 -18t14 -26.5q5 -17 -0.5 -30.5t-14.5 -27.5q-18 -26 -41.5 -45t-51.5 -33q-27 -16 -54.5 -29.5t-55.5 -27.5q-4 -4 -15 -11q32 -15 62 -29t59 -30q23 -12 45.5 -26t42.5 -31q29 -24 29 -53
t-28 -56q-16 -15 -33.5 -17t-36.5 6q-32 15 -64 28.5t-64 30.5q-41 20 -81.5 43t-85.5 47v-20.5t-1 -17.5q-3 -26 -5 -51t-8 -51q-8 -37 -29.5 -52t-59.5 -13q-34 2 -57 21.5t-25 54.5q-3 30 -2 60l2 60l4 156t4 157q1 32 0 63t-1 63q0 11 1 22t4 22q5 22 19 36t37 17
t41.5 -4t29.5 -27q15 -28 22.5 -59t12 -66.5t7 -76.5t6.5 -88z" />
    <glyph glyph-name="l" unicode="l" horiz-adv-x="363" 
d="M221 408v-184q0 -15 1 -24.5t5.5 -15.5t13.5 -10t24 -9q38 -14 57 -42.5t11 -63.5q-7 -34 -34.5 -54.5t-66.5 -20.5t-72.5 11t-59 32t-41.5 51t-20 68q-3 40 -3.5 80t0.5 80q2 82 5 161.5t8 160.5q1 19 4.5 37t8.5 36q6 19 20 34q17 17 36.5 21t40.5 0q22 -6 34.5 -30.5
t18 -54.5t6.5 -59t2 -44q2 -41 1.5 -80t-0.5 -80z" />
    <glyph glyph-name="exclam" unicode="!" horiz-adv-x="243" 
d="M165 243q-3 -11 -9 -22t-13 -19q-23 -27 -60 -16q-15 5 -22.5 17t-9.5 28q-3 34 -5 66.5t-3 66.5q-2 75 -5 156t-4 155q0 30 21 48.5t48.5 22t53.5 -7.5t35 -39q17 -56 19.5 -114.5t-3.5 -117.5t-18.5 -116t-24.5 -108zM181 78q0 -35 -24.5 -59.5t-58.5 -24.5
q-17 0 -31.5 7t-25 18t-17 26t-6.5 31q0 17 6 32t17.5 26t26.5 17.5t32 6.5t31.5 -6.5t25.5 -17.5t17.5 -25.5t6.5 -30.5z" />
    <glyph glyph-name="quotedbl" unicode="&#x22;" horiz-adv-x="338" 
d="M45 699q3 45 45 50q26 4 44 -5.5t25 -31.5q13 -40 2.5 -80t-30.5 -74q-22 -38 -56 -30q-35 7 -37 54zM190 699q3 45 45 50q26 4 44 -5.5t25 -31.5q13 -40 2.5 -80t-30.5 -74q-22 -38 -56 -30q-35 7 -37 54z" />
    <glyph glyph-name="numbersign" unicode="#" horiz-adv-x="670" 
d="M149 294q3 14 6.5 28t8.5 31q-11 1 -19.5 1t-16.5 2q-12 2 -24 2.5t-24 4.5q-14 4 -22 15.5t-7 25.5q0 28 31 36q16 3 34 3q19 1 37.5 0.5t38.5 -0.5l11 27.5t11 25.5q10 18 19 36.5t20 36.5q19 31 59 25q21 -2 34 -15.5t12 -34.5q0 -21 -3.5 -42t-6.5 -44h26
q32 -2 40 29q7 20 15 40t17 40q19 41 49 33q15 -2 25 -15t12 -33q1 -20 0.5 -41t-0.5 -44q9 -1 18.5 -1t17.5 -2q12 -2 24 -5t23 -8q16 -7 22.5 -20.5t3.5 -29.5q-2 -15 -13.5 -26t-28.5 -13t-34 -1.5t-34 0.5q-5 0 -10.5 -0.5t-13.5 -0.5l-15 -65l47 -9q36 -9 36 -40
q0 -15 -9 -26t-26 -15q-18 -4 -37 -6t-39 -5l-40 -126q-4 -9 -6.5 -18t-6.5 -18q-9 -19 -24.5 -28t-32.5 -6q-18 4 -30 17.5t-12 34.5q-2 35 3 68q2 18 4.5 36t6.5 37h-53l-28 -102q-2 -9 -4.5 -18t-6.5 -18q-16 -34 -51 -34q-17 -1 -30.5 7.5t-18.5 24.5t-7.5 32.5
t-3.5 33.5q-1 19 1.5 38t4.5 39q-8 1 -16 1t-15 2q-8 1 -15.5 2t-15.5 3q-34 9 -34 41q0 16 10.5 27.5t27.5 14.5q19 3 38 5t40 4zM321 360l-20 -59h50q5 15 9 29t9 30h-48z" />
    <glyph glyph-name="dollar" unicode="$" horiz-adv-x="536" 
d="M211 74l-42 10q-62 15 -112 57q-8 10 -15.5 21.5t-12.5 22.5q-14 39 19 70q17 14 36.5 16t41.5 -3q26 -7 52 -13t51 -10q10 -6 23 -3.5t20.5 9t6 15t-21.5 13.5q-17 5 -33.5 10.5t-33.5 12.5q-37 15 -60.5 37.5t-32.5 50t-2 58.5t30 62q16 20 35 37.5t39 34.5
q8 7 15.5 12t13.5 10v100q-2 53 52 65q23 3 43.5 -8t27.5 -35q6 -19 8.5 -38.5t6.5 -40.5q8 -2 16.5 -3.5t17.5 -3.5q42 -11 66.5 -42.5t21.5 -69.5q-1 -37 -37 -59q-17 -12 -34 -9.5t-33 16.5q-26 18 -52 12.5t-39.5 -21t-9 -36t38.5 -33.5q22 -8 44 -14t42 -16
q55 -28 73.5 -76.5t-7.5 -98.5q-12 -26 -33 -46t-47 -35q-11 -7 -22 -12l-22 -10q-8 -20 -15 -39t-16 -36q-6 -11 -14.5 -22t-19.5 -19q-26 -22 -59 -5q-28 18 -25 48q2 14 4.5 27t5.5 30z" />
    <glyph glyph-name="percent" unicode="%" horiz-adv-x="650" 
d="M378 580q16 20 29.5 38.5t28.5 33.5q12 13 27 17.5t29 1.5t25.5 -13t16.5 -25q2 -12 0.5 -27.5t-7.5 -26.5q-11 -23 -24.5 -45t-30.5 -44q-78 -102 -150.5 -208t-132.5 -221q-5 -9 -11 -18.5t-12 -17.5q-11 -13 -26 -17t-29 1q-13 6 -22 20t-6 30q2 17 6 33t12 30
q23 48 48 95t49 95q5 7 9.5 15.5t9.5 19.5q-12 -1 -22.5 -2t-21.5 -1q-35 0 -63.5 14t-48 38t-28 55.5t-1.5 66.5q12 67 65 116q34 30 71 42.5t72.5 7.5t68 -27t57.5 -60q2 -2 4.5 -6t7.5 -11zM236 487q12 13 1 31q-6 13 -24.5 19.5t-29.5 1.5q-8 -3 -15 -11t-12 -17.5
t-7 -19t1 -16.5q5 -14 17 -16.5t25 2t25.5 12.5t18.5 14zM467 348q28 -2 52 -7.5t47 -21.5q19 -13 32.5 -31t20 -39t6.5 -43.5t-9 -43.5q-26 -63 -71 -103.5t-111 -53.5q-41 -9 -75 3t-58 44q-25 32 -27.5 66.5t11.5 69.5q17 46 48.5 80.5t69.5 62.5q13 9 30.5 11t33.5 6z
M478 137q9 16 12 35t-1 32.5t-15 16.5t-28 -12q-26 -25 -30 -49t4.5 -38t25.5 -12.5t32 27.5z" />
    <glyph glyph-name="ampersand" unicode="&#x26;" horiz-adv-x="709" 
d="M533 196q28 -17 52 -33t48 -31q44 -29 34 -67q-6 -19 -23 -31.5t-40 -11.5q-20 2 -39.5 6t-35.5 12q-29 14 -57.5 31.5t-60.5 34.5l-28 -17q-36 -19 -71 -38t-71 -37q-34 -15 -76 -18q-35 -4 -64 7t-47 33t-24 51.5t6 62.5q8 29 24 54.5t34 50.5q17 25 37.5 48t40.5 49
q8 9 16 18.5t16 17.5q-9 26 -18.5 49.5t-15.5 47.5q-5 23 -9 44.5t-4 42.5q-1 108 103 156q48 21 96.5 20t96.5 -22q51 -23 71 -67t3 -96q-10 -27 -24 -52.5t-30 -50.5q-18 -26 -40 -51.5t-42 -52.5q7 -12 14.5 -23.5t18.5 -25.5q19 17 36.5 31t34.5 28q20 14 39.5 28
t41.5 25q26 12 47 8t36 -21t16.5 -37.5t-15.5 -43.5q-13 -20 -28 -37t-32 -33q-15 -14 -31 -28t-36 -31zM310 515q16 17 33 36.5t24.5 35t1.5 25t-36 6.5q-23 -2 -31.5 -12.5t-6.5 -30.5q2 -14 6 -28.5t9 -31.5zM254 251q-11 -12 -25 -27.5t-27 -32t-23.5 -31t-14 -23.5
t1.5 -11t22 8q9 5 24 13t30.5 17t27 18t13.5 15q1 7 -2 13t-8.5 12.5t-10.5 13t-8 15.5z" />
    <glyph glyph-name="quotesingle" unicode="'" horiz-adv-x="186" 
d="M45 699q3 45 45 50q26 4 44 -5.5t25 -31.5q13 -40 2.5 -80t-30.5 -74q-22 -38 -56 -30q-35 7 -37 54z" />
    <glyph glyph-name="parenleft" unicode="(" horiz-adv-x="429" 
d="M402 742q11 -37 -23 -62q-57 -38 -93 -91t-59 -116q-17 -47 -27.5 -95t-13.5 -98q-2 -38 6.5 -73t26.5 -63.5t44.5 -50t60.5 -31.5q11 -4 21.5 -7.5t21.5 -8.5q18 -9 26.5 -26t6.5 -40q-2 -21 -11.5 -30.5t-33.5 -17.5q-23 -8 -45.5 -6t-45.5 10q-84 29 -133.5 86
t-70.5 128.5t-17 152t27 158t62.5 146t88.5 115.5q15 14 33 27t36 24q15 9 32.5 11.5t33.5 -1t28.5 -13.5t17.5 -28z" />
    <glyph glyph-name="parenright" unicode=")" horiz-adv-x="429" 
d="M34 -25q-11 37 23 62q57 38 93 91t59 116q17 47 27.5 95t13.5 98q2 38 -6.5 73t-26.5 63.5t-44.5 49.5t-60.5 32q-11 4 -21.5 7.5t-21.5 8.5q-18 9 -26.5 26t-6.5 40q2 21 11.5 30.5t33.5 17.5q23 8 45.5 6t45.5 -10q84 -30 133.5 -86.5t70.5 -128t17 -152t-27 -158
t-62.5 -146t-88.5 -115.5q-15 -14 -33 -27t-36 -24q-15 -9 -32.5 -11.5t-33.5 1t-28.5 13.5t-17.5 28z" />
    <glyph glyph-name="asterisk" unicode="*" horiz-adv-x="284" 
d="M105 648v58q2 33 26 35q24 1 32 -24q5 -16 8.5 -31.5t8.5 -34.5q8 0 17.5 -0.5t18.5 -1.5q26 0 37 -7.5t11 -22.5q1 -15 -9.5 -22.5t-33.5 -11.5l-28 -5l9 -18t9 -16q17 -27 0 -44t-45 4q-3 2 -6.5 5t-7.5 5l-28 -20q-25 -16 -44 0t-3 43l14 27q-10 -1 -17 -1.5t-15 -0.5
q-27 0 -34 24q-4 12 1 23.5t17 16.5q15 6 30.5 10.5t31.5 9.5z" />
    <glyph glyph-name="plus" unicode="+" horiz-adv-x="311" 
d="M205 358l49 -3q29 -4 33 -34q4 -26 -20 -39q-7 -4 -14.5 -5.5t-14.5 -3.5q-9 -2 -17.5 -2.5t-19.5 -2.5q-2 -10 -3 -19.5t-2 -18.5l-6 -33q-10 -38 -40 -35q-28 3 -31 38q-2 14 -3 27.5t-3 30.5q-11 0 -21.5 -0.5t-21.5 0.5q-37 2 -42 33q-5 34 28 46q14 5 29.5 8t32.5 6
q0 11 0.5 22t1.5 22q3 37 35 40q13 2 23.5 -6.5t15.5 -24.5q3 -11 5.5 -21.5t5.5 -24.5z" />
    <glyph glyph-name="comma" unicode="," horiz-adv-x="229" 
d="M67 -73q-16 8 -22 22t-4 32q5 33 7 66.5t7 65.5q3 24 20 38t46 18q53 3 67 -41q4 -14 3.5 -37.5t-6.5 -50t-16.5 -52.5t-25.5 -44t-34 -24t-42 7z" />
    <glyph glyph-name="hyphen" unicode="-" horiz-adv-x="369" 
d="M286 248q-59 -4 -94 -6t-56 -3.5t-31.5 -1.5t-19.5 1q-23 2 -36 14t-15 32t10 33.5t35 17.5q48 8 96 12.5t97 -6.5q17 -3 32 -12q14 -8 19.5 -22t2.5 -28q-8 -29 -40 -31z" />
    <glyph glyph-name="period" unicode="." horiz-adv-x="222" 
d="M37 75q2 36 24.5 55.5t59.5 19.5q13 0 24.5 -6t20.5 -16t14 -23t5 -27q0 -15 -7 -29t-18 -24.5t-25 -17t-29 -6.5q-30 1 -50.5 22t-18.5 52z" />
    <glyph glyph-name="slash" unicode="/" horiz-adv-x="403" 
d="M377 673q-2 -45 -14 -87t-29 -84q-41 -100 -78 -199.5t-86 -196.5q-10 -18 -18.5 -35.5t-19.5 -33.5q-16 -24 -38 -38q-13 -7 -25.5 -6.5t-22.5 7t-15.5 18t-4.5 25.5q2 14 5.5 27t8.5 26q34 100 67 198.5t66 198.5q16 45 31.5 90t32.5 90q9 27 26 50q13 19 32 25.5
t39 -0.5q41 -14 43 -61v-14z" />
    <glyph glyph-name="zero" unicode="0" horiz-adv-x="613" 
d="M584 408q4 -65 -8.5 -126.5t-41.5 -120.5q-16 -32 -38 -60.5t-54 -52.5q-66 -51 -143 -50t-146 55q-46 36 -71 79t-39 91q-24 81 -14.5 157.5t44.5 153.5q26 57 74.5 98t107 58t119.5 6t112 -58q40 -37 60 -78.5t28 -88.5q5 -15 6.5 -31.5t3.5 -31.5zM375 172
q90 150 24 314q-5 12 -12.5 23.5t-16.5 22.5q-24 23 -52 24t-50 -21q-11 -12 -19 -24t-16 -25q-16 -36 -23.5 -72t-9.5 -74q0 -45 10 -88t37 -86q29 -46 65 -43t63 49z" />
    <glyph glyph-name="one" unicode="1" horiz-adv-x="320" 
d="M149 483q-14 -8 -23 -14t-18 -10q-11 -5 -23 -8t-23 -4q-14 -2 -24 5.5t-16 21.5q-5 12 -2.5 23.5t13.5 19.5q39 29 67 68t55 79q13 18 29.5 28t39.5 10q32 -2 53 -20t23 -50q1 -45 0.5 -90t-2.5 -91q-4 -85 -8.5 -167.5t-9.5 -167.5q-2 -33 -9 -61q-8 -26 -25 -38
t-41 -12q-23 1 -39 13.5t-21 38.5q-5 22 -7.5 44t-1.5 44q1 68 3.5 134t5.5 134q0 16 1 32.5t3 37.5z" />
    <glyph glyph-name="two" unicode="2" horiz-adv-x="495" 
d="M265 171l93 10q3 0 6 1t5 1q25 4 47.5 0t38.5 -25q17 -23 18.5 -49t-8.5 -52q-12 -29 -41 -37q-17 -5 -35.5 -9.5t-37.5 -5.5q-57 -2 -114 -2h-114h-14.5t-13.5 1q-23 2 -40 13t-26 27.5t-8.5 36t11.5 39.5q9 17 21 31t23 28q54 57 100.5 119t88.5 128q8 14 16 29.5
t14 30.5q20 57 -41 49q-18 -2 -33.5 -10.5t-28.5 -20.5l-46 -45q-16 -15 -34 -16t-38 8q-19 8 -26.5 23t-6.5 35q0 8 2.5 18t5.5 19q18 40 46 71.5t63.5 52.5t76.5 29.5t85 4.5q29 -3 53.5 -15t41.5 -31t26.5 -44.5t8.5 -55.5q-1 -27 -7.5 -55t-15.5 -54
q-15 -48 -40.5 -89.5t-54.5 -83.5l-70 -97z" />
    <glyph glyph-name="three" unicode="3" horiz-adv-x="516" 
d="M355 438q7 -6 15 -12l16 -12q42 -31 68.5 -71.5t34.5 -92.5q7 -50 -7 -97t-43.5 -83.5t-72.5 -60t-93 -27.5q-94 -6 -179 35q-13 6 -25 14.5t-23 17.5q-18 17 -20 37.5t6 41.5q19 46 65 41q26 -2 51 -7t51 -10q23 -6 46 -9q22 -3 41 2.5t32 18t19.5 31t4.5 41.5
q-2 45 -36 72q-18 14 -37.5 28t-41.5 24q-48 22 -48.5 54t35.5 63q11 10 22.5 18t22.5 18q8 8 16.5 15.5t13.5 16.5q3 5 2.5 14t-4.5 14t-12.5 6.5t-14.5 -0.5q-23 -10 -43 -27q-23 -17 -44.5 -35t-44.5 -35q-28 -18 -55.5 -10t-42.5 37q-13 26 -2 54q2 5 4.5 10.5t7.5 9.5
q30 29 61.5 54t66 42.5t73.5 26.5t83 5q28 -3 51.5 -14t39.5 -29t23.5 -41t4.5 -48q-2 -18 -10 -36t-18 -33q-13 -20 -28.5 -36.5t-31.5 -35.5z" />
    <glyph glyph-name="four" unicode="4" horiz-adv-x="587" 
d="M391 191q-46 0 -88.5 0.5t-84.5 -0.5q-26 0 -53 -1t-53 -1q-23 0 -40 7q-31 11 -43.5 37t-0.5 56q6 15 15 28.5t18 27.5q21 32 44 62t41 62q29 50 54.5 100t52.5 101q5 9 10 19t12 18q24 30 58 20q18 -5 29 -17.5t11 -32.5q-1 -18 -3.5 -37t-7.5 -36q-20 -63 -47 -121.5
t-59 -116.5l-19 -34q43 5 82.5 9t80.5 8q5 51 10 100.5t12 100.5q2 21 5.5 41t9.5 40q4 16 14.5 28.5t27.5 17.5q20 7 37 4.5t29.5 -12t19 -25.5t4.5 -37q-5 -57 -10.5 -114t-8.5 -114q-2 -45 -2.5 -88t-2.5 -88q-2 -33 -3 -66.5t-2 -67.5q-1 -9 -3 -18l-4 -18
q-5 -23 -18.5 -34.5t-35.5 -15.5q-46 -8 -67 30q-14 28 -17 58t-3.5 60t-0.5 60z" />
    <glyph glyph-name="five" unicode="5" horiz-adv-x="608" 
d="M227 555l-10 -101q15 2 27 3.5t25 2.5q148 21 256 -87q30 -30 44.5 -64t15 -69.5t-14 -70.5t-43.5 -66q-39 -43 -89 -65.5t-107 -33.5q-55 -10 -108.5 -9.5t-108.5 9.5q-14 2 -28.5 6.5t-28.5 10.5q-35 15 -35 56q1 11 2.5 23.5t4.5 24.5q6 23 19.5 31.5t36.5 10.5
q56 3 110.5 8t109.5 10q14 2 27.5 6.5t27.5 9.5q31 15 34 53q2 18 -7 30t-23 21q-42 23 -83.5 21.5t-83.5 -16.5q-5 -2 -9 -4.5t-10 -4.5q-41 -17 -71 0.5t-32 62.5q-2 26 0 52.5t4 52.5l6 66t8 67l5 31q7 29 27.5 46t49.5 18q60 2 119.5 3t119.5 2q8 1 17 -0.5t18 -3.5
q20 -5 33 -20t15 -34q2 -41 -38 -58q-32 -15 -65 -20.5t-68 -7.5q-24 -2 -49 -2t-50 -1z" />
    <glyph glyph-name="six" unicode="6" horiz-adv-x="587" 
d="M236 441q29 -2 57.5 -2.5t57.5 -5.5q47 -8 88 -29t74 -58q26 -29 39 -61t12.5 -65t-14.5 -64.5t-42 -58.5q-44 -43 -96 -67t-104 -30t-101.5 6.5t-89 42.5t-65 77.5t-30.5 111.5q-6 89 27 173q36 86 91.5 154t136.5 114q19 10 49.5 18t59 5.5t47.5 -18t15 -52.5
q-2 -19 -12.5 -29.5t-27.5 -15.5q-55 -17 -94.5 -52t-71.5 -82q-2 -2 -3 -4t-3 -5q-1 -1 -0.5 -2.5t0.5 -0.5zM285 280q-18 -2 -35.5 -4t-35.5 -6q-25 -6 -34 -20.5t-2 -40.5q7 -27 25 -44t44 -25q45 -14 82.5 -1t71.5 42q43 36 -5 69q-24 17 -52 24t-59 6z" />
    <glyph glyph-name="seven" unicode="7" horiz-adv-x="600" 
d="M468 349q14 -5 24.5 -7t21.5 -7q22 -7 33 -22.5t11 -34.5q0 -43 -41 -57q-19 -6 -37 -9t-37 -8q-11 -2 -21.5 -1.5t-22.5 -0.5q-17 -38 -36 -76.5t-42 -72.5q-12 -18 -27 -32.5t-32.5 -21t-38 -3.5t-45.5 20q-16 12 -19.5 28.5t0 34t10.5 35t11 32.5l15 44q-14 2 -25.5 3
t-23.5 4q-16 0 -29 4q-17 5 -26 18t-9 27q0 16 9 28.5t27 17.5q28 7 56.5 12.5t57.5 10.5q12 3 21.5 8.5t15.5 17.5l94 188q3 6 8 21q-32 -4 -63.5 -8t-61.5 -6q-37 -2 -73 0t-73 4q-10 0 -19.5 4t-19.5 9q-19 10 -28.5 25t-11 31.5t4.5 32.5t18 30q11 11 22.5 12.5
t25.5 1.5q61 2 121.5 3t120.5 4q33 1 66 5t65 9q27 4 50.5 -3.5t39 -24t22 -40t0.5 -50.5q-3 -15 -9 -30t-13 -29q-17 -38 -35.5 -73.5t-35.5 -72.5z" />
    <glyph glyph-name="eight" unicode="8" horiz-adv-x="589" 
d="M432 361q8 -5 15 -10t13 -10q18 -15 35.5 -30t34.5 -32q23 -23 32 -55t4 -64t-23.5 -60.5t-50.5 -44.5q-35 -19 -81.5 -33t-95 -21t-95 -5t-82.5 14t-61.5 36.5t-39.5 56t-15.5 68t11.5 74.5q11 32 30 57t45 46q-5 7 -10 12t-9 11q-3 5 -7 9.5t-7 9.5q-27 36 -37 72
t-3.5 69.5t29 63t61.5 51.5q48 27 100.5 43t107.5 22q27 2 55 3t55 -2q29 -5 50.5 -19t34.5 -36t16.5 -49.5t-4.5 -58.5q-12 -45 -35 -83t-51 -74q-5 -8 -10 -15t-12 -16zM204 543q-6 -3 -9.5 -6.5t-7.5 -8.5q-15 -19 -13.5 -36.5t22.5 -29.5q14 -8 30.5 -14t31.5 -14
q17 -8 29 -2t20 21q14 22 25.5 45.5t22.5 46.5q7 15 0 21.5t-22.5 7t-36 -3.5t-39.5 -9.5t-34 -10.5t-19 -7zM265 255q-5 1 -10.5 0.5t-10.5 -4.5q-22 -14 -39.5 -31.5t-27.5 -43.5q-13 -26 13 -31q7 -2 14.5 -4t13.5 -2q27 3 53.5 6.5t52.5 8.5q36 9 36.5 24.5t-16.5 31.5
t-41.5 29t-37.5 16z" />
    <glyph glyph-name="nine" unicode="9" horiz-adv-x="574" 
d="M339 261q-28 -14 -56 -23.5t-58 -10.5q-38 0 -71 10.5t-63 35.5q-47 38 -64 95t1 117q22 74 68 120.5t108 75.5q33 15 66.5 21t67.5 1q72 -8 119 -51t69 -115q37 -129 11.5 -244t-109.5 -213q-68 -78 -151.5 -91.5t-177.5 38.5q-14 9 -26.5 20.5t-20.5 28.5
q-6 14 -6.5 29t9.5 28q18 26 49 20q29 -7 58 -4.5t59 8.5q43 8 70 37t48 67zM350 463q24 33 8 67q-6 19 -19 28.5t-30 12.5q-22 2 -46.5 -5.5t-47.5 -22t-41.5 -33.5t-27.5 -40q-14 -33 -4 -56.5t42 -32.5q19 -6 43.5 0.5t48.5 19.5t43.5 30t30.5 32z" />
    <glyph glyph-name="semicolon" unicode=";" 
d="M67 50q-16 8 -22 22t-4 32q5 33 7 66.5t7 65.5q3 24 20 38t46 18q53 3 67 -41q4 -14 3.5 -37.5t-6.5 -50t-16.5 -52.5t-25.5 -44t-34 -24t-42 7zM37 434q2 36 24.5 55.5t59.5 19.5q13 0 24.5 -6t20.5 -16t14 -23t5 -27q0 -15 -7 -29t-18 -24.5t-25 -17t-29 -6.5
q-30 1 -50.5 22t-18.5 52z" />
    <glyph glyph-name="less" unicode="&#x3c;" horiz-adv-x="331" 
d="M195 315q18 -9 34 -16.5t31 -15.5q26 -14 34.5 -35t-2.5 -45q-11 -23 -34.5 -31.5t-50.5 2.5q-34 15 -68 31t-66 34q-18 9 -28.5 23t-13 29t2.5 30.5t19 28.5q35 35 72.5 66.5t74.5 62.5q8 6 18.5 9.5t19.5 3.5q13 0 24 -5.5t18 -15t8.5 -21.5t-3.5 -24
q-5 -14 -13.5 -25.5t-17.5 -22.5q-14 -16 -28.5 -31t-30.5 -32z" />
    <glyph glyph-name="equal" unicode="=" horiz-adv-x="400" 
d="M307 289q6 -1 12 -1.5t12 -2.5q23 -7 25 -33q1 -13 -5 -23.5t-20 -13.5q-24 -6 -59 -10t-72.5 -6.5t-72.5 -2.5t-60 3q-3 1 -5 2t-5 2q-27 9 -29 38q-3 27 28 38q15 5 34 7q19 1 48.5 1.5t60.5 1.5t60 1t48 -1zM329 407q19 -4 29 -15t9 -26q1 -15 -9 -24.5t-32 -10.5
q-17 -1 -50 -2.5t-69 -3t-69 -2.5t-51 -1q-9 0 -17 4q-36 10 -34 45q3 32 39 36q20 3 55 4.5t73 1.5t72.5 -1.5t53.5 -4.5z" />
    <glyph glyph-name="greater" unicode="&#x3e;" horiz-adv-x="331" 
d="M135 315q-16 17 -30.5 32t-28.5 31q-9 11 -17.5 22.5t-13.5 25.5q-5 12 -3.5 24t8.5 21.5t18 15t24 5.5q9 0 19.5 -3.5t18.5 -9.5q37 -31 74.5 -62.5t72.5 -66.5q14 -13 19 -28.5t2.5 -30.5t-13 -29t-28.5 -23q-32 -18 -66 -34t-68 -31q-27 -11 -50.5 -2.5t-34.5 31.5
q-11 24 -2.5 45t34.5 35q15 8 31 15.5t34 16.5z" />
    <glyph glyph-name="cent" unicode="&#xa2;" horiz-adv-x="487" 
d="M319 126v-75q1 -44 -31 -48q-34 -2 -43 40q-4 20 -6 40.5t-6 41.5q-18 4 -36.5 7.5t-35.5 9.5q-19 6 -37 13.5t-34 18.5q-24 16 -39 37.5t-20.5 46t-1.5 50t19 50.5q25 44 63 72t83 47q21 9 45 17q2 22 5 43.5t6 42.5q1 7 2 13.5t3 12.5q13 35 43 33q15 0 27 -10.5
t14 -27.5q2 -19 2 -36.5t1 -36.5v-34q9 -5 18 -8.5t17 -8.5q17 -9 31.5 -21t22.5 -30q6 -14 6.5 -27.5t-9.5 -27.5q-19 -27 -54 -21q-10 2 -19.5 4t-21.5 4q-2 -29 -4 -56t-4 -58q20 -2 37.5 -3t35.5 -3q7 -1 14 -1t13 -2q13 -5 21 -14t10 -23q2 -16 -3 -28.5t-19 -18.5
q-13 -6 -27 -9.5t-28 -6.5t-28 -5t-32 -4zM234 249v43v41q-25 -8 -35.5 -18t-10.5 -24q0 -21 13.5 -27.5t32.5 -14.5z" />
    <glyph glyph-name="Euro" unicode="&#x20ac;" horiz-adv-x="670" 
d="M363 451q17 0 30.5 1t26.5 -1q8 -1 16.5 -2t16.5 -5q33 -11 23 -43q-2 -15 -11.5 -21t-22.5 -6q-29 0 -57.5 -0.5t-57.5 -1.5q-10 -1 -15.5 -2t-8.5 -5t-5.5 -12.5t-5.5 -23.5l111 7q7 0 13.5 0.5t13.5 -0.5q33 0 36 -30q1 -14 -7 -25.5t-22 -14.5q-35 -5 -69 -8.5
t-68 -7.5q-10 -2 -18 -3l-16 -2q-4 -20 4.5 -30.5t21.5 -12.5l46 -6t46 1q41 6 80.5 15.5t75.5 38.5q23 17 44 14t37 -22q8 -9 13 -22.5t7 -28.5t0 -30t-9 -27q-9 -15 -21 -29.5t-26 -25.5q-62 -48 -130 -65.5t-142 -8.5q-22 2 -44.5 7.5t-45.5 13.5q-56 25 -90 70t-43 114
q-1 5 -2.5 8.5t-2.5 9.5l-30 4q-10 2 -17.5 7t-9.5 19q-2 12 3.5 20.5t14.5 13.5q5 4 10.5 6.5t10.5 4.5q9 4 14 6.5t8 7t4.5 12.5t3.5 22q-11 0 -20.5 -0.5t-20.5 0.5q-17 2 -26 11.5t-11 24.5q-1 31 34 40q1 0 1 1t2 1q23 -3 40.5 2.5t31.5 17.5t25.5 29t22.5 37
q37 60 85.5 103t112.5 62q41 13 80 11.5t77 -22.5q23 -13 41 -31t29 -44q8 -19 9 -40t-6 -41q-8 -30 -31.5 -38.5t-45.5 6.5q-46 33 -83.5 26.5t-80.5 -57.5z" />
    <glyph glyph-name="yen" unicode="&#xa5;" horiz-adv-x="598" 
d="M413 369h30t26 -1h16.5t16.5 -3q24 -8 23 -35q-2 -26 -26 -32l-123 -22q-9 -1 -14.5 -2t-9 -5t-6.5 -11t-7 -20q16 0 31 0.5t30 -0.5q17 0 34.5 -1t35.5 1q21 2 32 -9t13 -26q3 -31 -42 -36t-89.5 -8.5t-90.5 -7.5q-9 -16 -17 -32.5t-17 -30.5q-10 -16 -20.5 -32.5
t-22.5 -30.5q-32 -38 -76 -11q-40 21 -27 71q3 14 7.5 28.5t9.5 29.5l-27 8l-21 6q-17 6 -25.5 19t-6.5 27t13.5 23t29.5 9q17 2 33 0.5t33 -1.5q10 0 17.5 3t11.5 20l-89 10l-14 2t-15 4q-33 9 -31 41q2 15 10.5 24.5t26.5 11.5q19 1 38 0t38 -1l73 -3q11 0 18 3.5t11 15.5
l-4 8q-49 31 -89.5 72t-83.5 81q-7 6 -12.5 12t-11.5 14q-15 21 -15.5 50t13.5 50q19 27 47 39t51 0q14 -8 25.5 -20.5t22.5 -25.5q28 -32 55 -64.5t55 -64.5q4 -5 9.5 -9.5t11.5 -10.5q9 18 17.5 33t16.5 29l28 48t30 47q24 33 58.5 40.5t63.5 -12.5q22 -14 30.5 -38
t-2.5 -50q-5 -12 -12.5 -23t-15.5 -22q-23 -32 -45.5 -62.5t-45.5 -62.5q-10 -13 -18.5 -26.5t-19.5 -27.5z" />
    <glyph glyph-name="multiply" unicode="&#xd7;" horiz-adv-x="318" 
d="M224 329q11 -7 19 -12.5t16 -11.5q6 -5 12 -10.5t11 -12.5q14 -21 -1 -42q-14 -21 -39 -15q-11 2 -21 6.5t-20 8.5q-11 4 -22 8.5t-26 13.5q-6 -9 -11.5 -17.5t-13.5 -16.5t-16 -15.5t-16 -13.5q-21 -15 -41 1t-11 41q2 6 5.5 12t6.5 11q5 8 11 16t13 18q-5 5 -10.5 10
t-10.5 10q-23 24 -8 47q15 24 41 18q17 -2 30 -7q27 -15 49 6q9 9 20 16t23 12q36 17 51 -10q14 -23 -14 -46z" />
    <glyph glyph-name="divide" unicode="&#xf7;" horiz-adv-x="319" 
d="M240 345q41 3 49 -28q4 -14 -4.5 -27.5t-25.5 -19.5q-8 -4 -15.5 -5.5t-14.5 -2.5q-35 -3 -68.5 -4.5t-68.5 -3.5q-8 -1 -16.5 0.5t-16.5 3.5q-15 4 -24.5 14.5t-9.5 24.5t9.5 26t25.5 16q48 6 91.5 4t88.5 2zM167 364q-16 0 -28 10.5t-14 26.5q-2 17 10.5 30t29.5 13
q16 0 28 -11.5t12 -27.5q1 -16 -10.5 -28t-27.5 -13zM116 200q0 17 11 28t27 11q14 0 25.5 -11t11.5 -26q0 -17 -11.5 -28.5t-27.5 -10.5q-15 0 -25.5 10.5t-10.5 26.5z" />
    <glyph glyph-name="trademark" unicode="&#x2122;" horiz-adv-x="501" 
d="M285 601q-2 -12 -3 -24t-5 -23q-2 -12 -10.5 -18t-19.5 -4t-17.5 10.5t-4.5 19.5q3 32 6.5 64t9.5 64q5 26 22 33.5t36 -8.5q25 -20 45 -15.5t40 21.5l8 6q22 15 40 8.5t25 -32.5q3 -13 4 -26.5t0 -27.5q-1 -20 -2.5 -39.5t-3.5 -39.5q-1 -12 -7 -21t-18 -11
q-26 -6 -36 18q-5 12 -4.5 32t-1.5 32q-1 16 -4.5 20t-8.5 2t-10 -8.5t-8 -12.5q-8 -16 -14 -21t-11 -3t-9 10t-8 17q-5 12 -10 12.5t-9 -5t-7 -14.5t-4 -16zM169 672q0 -20 1 -38l2 -36l3 -20q2 -23 -19 -29q-11 -3 -20 2t-12 16q-5 13 -7 26t-4 27q-1 11 -0.5 21.5
t0.5 21.5q-12 0 -21 -0.5t-17 0.5q-15 2 -25 10.5t-11 20.5q-1 11 7 21t23 11q28 4 55.5 4.5t56.5 1.5q2 0 10 -2q17 -5 25.5 -14.5t5.5 -23.5q-2 -11 -10.5 -15t-28.5 -3q-2 0 -5.5 -0.5t-8.5 -1.5z" />
    <glyph glyph-name="plusminus" unicode="&#xb1;" horiz-adv-x="311" 
d="M205 358l49 -3q29 -4 33 -34q4 -26 -20 -39q-7 -4 -14.5 -5.5t-14.5 -3.5q-9 -2 -17.5 -2.5t-19.5 -2.5q-2 -10 -3 -19.5t-2 -18.5l-6 -33q-10 -38 -40 -35q-28 3 -31 38q-2 14 -3 27.5t-3 30.5q-11 0 -21.5 -0.5t-21.5 0.5q-37 2 -42 33q-5 34 28 46q14 5 29.5 8t32.5 6
q0 11 0.5 22t1.5 22q3 37 35 40q13 2 23.5 -6.5t15.5 -24.5q3 -11 5.5 -21.5t5.5 -24.5zM46 44q-12 -1 -22 3t-16 16q-7 13 -3 26.5t16 20.5q16 10 31 11q13 1 37.5 2.5t51.5 2.5t51.5 1.5t37.5 0.5q9 1 18.5 -1.5t18.5 -5.5q12 -6 19 -16.5t5 -21.5q-3 -26 -34 -29
q-11 -2 -34.5 -3t-53 -2.5t-62 -2.5t-61.5 -2z" />
    <glyph glyph-name="colon" unicode=":" 
d="M37 434q2 36 24.5 55.5t59.5 19.5q13 0 24.5 -6t20.5 -16t14 -23t5 -27q0 -15 -7 -29t-18 -24.5t-25 -17t-29 -6.5q-30 1 -50.5 22t-18.5 52zM37 166q2 36 24.5 55.5t59.5 19.5q13 0 24.5 -6t20.5 -16t14 -23t5 -27q0 -15 -7 -29t-18 -24.5t-25 -17t-29 -6.5
q-30 1 -50.5 22t-18.5 52z" />
    <glyph glyph-name="quotedblright" unicode="&#x201d;" horiz-adv-x="338" 
d="M45 699q3 45 45 50q26 4 44 -5.5t25 -31.5q13 -40 2.5 -80t-30.5 -74q-22 -38 -56 -30q-35 7 -37 54zM190 699q3 45 45 50q26 4 44 -5.5t25 -31.5q13 -40 2.5 -80t-30.5 -74q-22 -38 -56 -30q-35 7 -37 54z" />
    <glyph glyph-name="quotedblleft" unicode="&#x201c;" horiz-adv-x="338" 
d="M302 578q-3 -45 -45 -50q-26 -4 -44 5.5t-25 31.5q-13 40 -2.5 80t30.5 74q22 38 56 30q35 -7 37 -54zM157 578q-3 -45 -45 -50q-26 -4 -44 5.5t-25 31.5q-13 40 -2.5 80t30.5 74q22 38 56 30q35 -7 37 -54z" />
    <glyph glyph-name="quoteright" unicode="&#x2019;" horiz-adv-x="186" 
d="M45 699q3 45 45 50q26 4 44 -5.5t25 -31.5q13 -40 2.5 -80t-30.5 -74q-22 -38 -56 -30q-35 7 -37 54z" />
    <glyph glyph-name="quoteleft" unicode="&#x2018;" horiz-adv-x="186" 
d="M151 578q-3 -45 -45 -50q-26 -4 -44 5.5t-25 31.5q-13 40 -2.5 80t30.5 74q22 38 56 30q35 -7 37 -54z" />
    <glyph glyph-name="sterling" unicode="&#xa3;" horiz-adv-x="583" 
d="M179 278q-13 0 -25.5 -1t-23.5 1q-9 0 -17.5 2t-16.5 5q-29 9 -27 41q0 29 28 40q14 5 29 7.5t32 5.5q-2 14 -2.5 26t-3.5 23q-9 62 9.5 115.5t56 90.5t90 55t109.5 10q25 -4 46.5 -15.5t36.5 -28.5t23 -38.5t6 -44.5q-1 -20 -8 -35.5t-21 -29.5q-20 -23 -43 -18.5
t-31 33.5q-5 17 -14.5 21.5t-23.5 2.5q-49 -6 -72 -36t-17 -81l9 -43h48.5t47.5 -1q28 -2 55 -9q28 -9 26 -41q-1 -15 -9.5 -24t-22.5 -11l-120 -16v-81l14 -2t15 -1q26 2 51 3t51 -1q27 -1 47 -12.5t31 -29.5t13 -41.5t-8 -49.5q-9 -23 -22.5 -35.5t-39.5 -12.5
q-35 0 -69 -1.5t-69 -3.5q-56 -3 -111 -7t-111 -7q-79 -6 -96 54q-19 64 52 103q18 11 36.5 20.5t37.5 20.5q20 12 26 30.5t-2 47.5z" />
    <glyph glyph-name="at" unicode="@" horiz-adv-x="796" 
d="M476 314q-26 -13 -50 -26t-48 -21q-49 -18 -97 3q-36 15 -52.5 48.5t-6.5 71.5q10 46 43.5 83.5t77.5 60t93 27.5t91 -13q33 -14 44 -37t3 -60q-4 -14 -8.5 -28t0.5 -30q29 7 51 33t28 58q6 34 -7 59.5t-39 42.5q-42 31 -93 31q-82 1 -152 -27.5t-125 -91.5
q-46 -50 -59.5 -110t2.5 -127q15 -61 73 -82q49 -23 103 -17q65 5 127.5 19.5t122.5 38.5q11 5 23 8t24 7q19 4 38.5 0t35 -16t24.5 -30.5t6 -42.5q-6 -80 -74 -111q-29 -14 -60.5 -17.5t-62.5 -9.5q-91 -18 -182 -16t-164.5 31.5t-120 90.5t-48.5 162q-1 62 8 117t30.5 103
t56.5 89t87 74q67 43 139 64.5t152 16.5q47 -2 89 -17t79 -45q57 -45 75 -112.5t-8 -136.5q-28 -69 -88 -115q-50 -40 -92 -39.5t-89 39.5zM400 360q26 17 39.5 40.5t11.5 49.5q-23 5 -50.5 -6t-50.5 -33t-27.5 -39t4.5 -25t28.5 -5.5t44.5 18.5z" />
    <glyph glyph-name="asciicircum" unicode="^" horiz-adv-x="318" 
d="M167 566l-25 -34q-10 -12 -18 -24t-18 -23q-28 -28 -56 -9q-13 8 -17 22t3 32q3 8 7 17t9 17l76 141q10 19 24 29.5t35 10.5q22 1 38 -9.5t25 -29.5q8 -14 14 -29.5t9 -30.5q5 -29 8.5 -56.5t6.5 -56.5q2 -6 1.5 -13t-1.5 -14q-6 -35 -37 -40q-31 -6 -47 25
q-9 17 -17.5 35.5t-19.5 39.5z" />
    </font>
</defs>
</svg>
