<?xml version="1.0" standalone="no"?>
<!DOCTYPE svg PUBLIC "-//W3C//DTD SVG 1.1//EN" "http://www.w3.org/Graphics/SVG/1.1/DTD/svg11.dtd" >
<svg xmlns="http://www.w3.org/2000/svg" xmlns:xlink="http://www.w3.org/1999/xlink" version="1.1">
<metadata>
Created by FontForge 20190801 at Thu Aug 12 06:18:03 2021
 By root
Copyright (c) 2021 by Alit Suarnegara. All rights reserved.
</metadata>
<defs>
<font id="WhiteMonkey-Regular" horiz-adv-x="354" >
  <font-face 
    font-family="White Monkey"
    font-weight="400"
    font-stretch="normal"
    units-per-em="1000"
    panose-1="0 0 5 0 0 0 0 0 0 0"
    ascent="800"
    descent="-200"
    x-height="306"
    cap-height="694"
    bbox="-675 -358 980 824"
    underline-thickness="50"
    underline-position="-100"
    unicode-range="U+0020-E060"
  />
<missing-glyph horiz-adv-x="575" 
d="M107 800h364v-1150h-364v1150zM383 685v38h-190v-38h75v-43h-76v-38h191v38h-76v43h76zM307 494v81h-115v-120h191v39h-76zM230 535h38v-41h-38v41zM383 386v38h-191v-38h76v-43h-76v-37h115v80h76zM383 240v115h-38v-76h-153v-39h191zM383 85v130h-115v-65h39v27h38v-54
h-115v92h-38v-130h191zM383 -114v130h-191v-130h191zM230 -22h115v-54h-115v54zM383 -179v38h-191v-38h81l-81 -54v-38h191v38h-117l80 54h37z" />
    <glyph glyph-name=".notdef" horiz-adv-x="575" 
d="M107 800h364v-1150h-364v1150zM383 685v38h-190v-38h75v-43h-76v-38h191v38h-76v43h76zM307 494v81h-115v-120h191v39h-76zM230 535h38v-41h-38v41zM383 386v38h-191v-38h76v-43h-76v-37h115v80h76zM383 240v115h-38v-76h-153v-39h191zM383 85v130h-115v-65h39v27h38v-54
h-115v92h-38v-130h191zM383 -114v130h-191v-130h191zM230 -22h115v-54h-115v54zM383 -179v38h-191v-38h81l-81 -54v-38h191v38h-117l80 54h37z" />
    <glyph glyph-name="space" unicode=" " horiz-adv-x="250" 
 />
    <glyph glyph-name="A" unicode="A" horiz-adv-x="580" 
d="M630 684q8 0 20 -13l-2 -4q-11 -11 -20.5 -26t-17.5 -29q-21 -37 -36 -78t-32 -97l-10 -35q-12 -40 -20 -70l-32 -134q0 -4 -1 -6q11 0 21 7q14 10 24 24q9 12 13 12q2 0 14 -5l-2 -9q-13 -26 -33 -43q-13 -13 -36 -18q-9 -1 -10 -9q-17 -84 -18 -137q0 -52 21 -87
q13 -25 42 -31l11 -1q7 0 13 3q8 2 11 2t11 -2q-1 -8 -11 -12q-22 -8 -42 -8q-14 0 -21 2q-19 5 -18 5q-32 11 -49 44q-17 37 -17 81q0 58 13 147v9l-66 22q-1 -3 -2 -6.5t-3 -7.5l-50 -154q-15 -40 -35 -69q-27 -36 -58 -53q-26 -13 -56 -13q-45 0 -74 25q-9 8 -16.5 20
t-13.5 24q-22 44 -22 115q0 87 44 194q26 59 61 99q11 12 37 34q11 10 26 10q42 0 63 -43q10 -19 10 -50q0 -28 -12 -80l-4 -14l58 3q1 2 4 10q32 103 55 175q25 75 68 148q23 38 50 62q26 24 57 24q18 0 32 -11l18 22q12 14 24 23q11 9 19 9zM607 631q-4 -3 -6 -6l-32 -61
q-2 -3 -3.5 -9t-2.5 -9l-12 -30q-1 -3 -3 -6.5t-3 -8.5l-27 -83q-28 -85 -57 -221q-1 -3 -1 -9l2 -1q1 2 2 4.5t1 5.5q26 124 75 279l12 39l11 31l3 3l39 76zM422 190q2 11 4 19.5t3 15.5q27 120 61 224q21 63 36 99.5t37 71.5q1 1 1 2.5t1 2.5q-24 0 -44 -15
q-16 -13 -35 -39q-28 -44 -61 -130q-25 -68 -55 -183l-12 -42q-1 -1 -0.5 -2.5t0.5 -2.5zM560 596l-9 -20l-9 -17l3 -1q4 12 7 18q6 6 10 19zM564 579l2 -1l8 16q-7 -5 -10 -15zM355 257l45 149l9 30l7 19l21 49l24 46q2 3 4.5 7t5.5 9l-2 1l-9 -16q-20 -39 -23 -47
q-15 -22 -21 -49l-8 -19l-5 -10q-20 -55 -48 -154l-14 -48v-7q3 2 5 8zM527 524l-6 -20l2 -1l7 20zM515 485q-53 -150 -79 -295q26 123 79 295zM446 188h3q6 29 20 89l7 27l17 62q8 29 26 87h-3q-42 -124 -70 -265zM376 416l2 -1q4 7 5 13l-2 1zM367 388q4 4 4 15
q-2 -10 -4 -15zM294 186q1 3 1 8l-3 2q-26 -3 -45.5 -12.5t-31.5 -29.5l-27 -39q-26 5 -37 15q1 8 6 15.5t6 9.5q31 45 42 93q12 56 12 86q0 32 -14 53q-4 -2 -8.5 -3.5t-9.5 -4.5q-5 -4 -15.5 -12t-16.5 -15q-38 -38 -66 -104q-39 -93 -39 -176q0 -12 2 -36q7 -64 40 -107
q6 -9 11 -12q16 -13 32 -13q11 0 23 6q28 13 50 44q24 34 44 93zM357.5 362q-3.5 -12 -4.5 -17q11 23 13 38q-5 -9 -8.5 -21zM317 222q9 20 15 44l7 29q5 11 6 21q-3 -5 -5 -11l-2 -9l-21 -70v-4zM346 283q-16 -52 -18 -62h3l17 62h-2zM296 157l3 -1q1 4 5 15.5t6 21.5l-2 1
zM319 192q-3 -10 -5.5 -19.5t-5.5 -18.5h3l11 37q-1 1 -3 1zM334.5 186.5q-0.5 2.5 -0.5 3.5q-3 -2 -5 -6l-40 -132l-2 -9l-7 -14l3 -1q2 5 4 15q4 6 5 9l42 131q1 1 0.5 3.5zM424 107q4 37 7 53h-3q-15 -90 -15 -162h3l2 54zM444 73.5q5 43.5 11 84.5q-5 -10 -6.5 -23
t-2.5 -16l-6 -42q-1 -7 -2 -17.5t-1 -25.5l-1 -20q0 -7 2 -21q1 37 6 80.5zM426 0q1 53 15 157q-18 -96 -15 -157z" />
    <glyph glyph-name="B" unicode="B" horiz-adv-x="627" 
d="M323 -82q-24 0 -48 9q-32 12 -57 41q-14 15 -14 39q0 26 19 62q11 -1 15.5 -5t4.5 -12q0 -9 -1 -15t-2 -10q-4 -18 -4 -26q0 -32 35 -46q8 -3 15 -3q11 0 21 3q32 9 55 32q77 70 112 147q24 53 24 97q0 14 -1 21q0 4 -2 14q-6 25 -31 27q-8 1 -18.5 2t-25.5 1
q-8 0 -26 -2q-25 -3 -56 11l-32 13l-6 -12q-22 -40 -64 -135l-22 -48q-18 -38 -39 -75q-4 -7 -22 -27q-7 -8 -19 -7q-1 1 -4 1q-17 4 -24.5 11t-7.5 20q0 22 13 55q15 42 49 124q50 113 82 201q25 69 36 115q5 22 5 40q0 13 -1 19q0 4 -1 7t-2 5q-6 12 -18 12q-47 0 -90 -32
q-73 -53 -106 -138q-11 -26 -11 -60q0 -4 1 -7q2 -11 6.5 -15.5t16.5 -4.5q10 0 13 -1t10 -8q-4 -6 -13 -6q-33 0 -53 19q-15 15 -15 39q0 35 13 65q36 82 103 135q35 29 83 37q14 2 21 2q45 0 75 -39q9 -12 12 -26.5t3 -33.5q0 -31 -16 -85q-13 -43 -25 -77q-3 -9 -5.5 -17
t-5.5 -15l-3 -9l17 -6l9 15q12 22 17 33l55 101q36 66 90 143q40 56 90 88q36 20 65 20q35 0 62 -29q27 -30 27 -75q0 -69 -39 -133q-50 -80 -130 -139q-40 -29 -72 -43q-1 0 -8 -5q2 -1 3 -2t3 -1q72 -29 72 -114q0 -38 -17 -87q-16 -48 -62 -107q-29 -37 -52 -56
q-28 -20 -44 -26q-19 -6 -38 -6zM348 332q16 0 29 4q40 12 74 33q96 62 155 144q51 70 59 138q2 33 -6 52q-7 18 -27 18q-30 -2 -54 -13q-47 -22 -85 -70q-37 -46 -74 -112l-65 -118l-36 -67l-2 -5q15 -4 32 -4zM679 560l-14 -23q-11 -21 -21 -34q-3 -5 -38 -53
q54 56 73 110zM658 550l-29 -49l2 -1q20 27 27 50zM635.5 529.5q7.5 11.5 7.5 18.5l-23 -37q8 7 15.5 18.5zM585 426l5 5q-1 0 -1 1l-1 -1l-4 -5h1zM279 405q-2 0 -3 1q-16 -44 -20 -56l3 -1q4 12 20 56zM118 79q28 72 43 107q26 62 32 77q19 43 23 53l5 17q5 5 7.5 13.5
t4.5 13.5l-3 1l-9 -28q-6 -10 -8 -15l-14 -32q-12 -26 -20 -47l-60 -147l-6 -19q3 2 5 6zM193.5 193.5q59.5 139.5 61.5 148.5q-7 -7 -66 -146t-61 -150q6 8 65.5 147.5zM204 164q15 33 19 40q24 51 60 122l-13 6q-5 -11 -40 -93l-14 -31l-15 -34q-23 -47 -38 -90
q15 26 41 80zM177 193q40 91 54 129q-10 -24 -19 -44t-17 -38q-45 -97 -64 -155q14 36 46 108zM462 83l-2 1l-12 -18l2 -1q7 7 12 18zM417 -17q28 31 45 53t28 47q-27 -43 -75 -98v-2h2zM476 81q-20 -18 -20 -31q6 11 20 31zM122 60l5 12l-2 1q0 -1 -5 -13h2z" />
    <glyph glyph-name="C" unicode="C" horiz-adv-x="459" 
d="M209 -27q-41 0 -81 17q-59 24 -88 89q-20 47 -20 108q0 73 24 148q36 112 96 200q38 54 61 78q59 61 130 83q5 2 14 5t16 4t20 1q82 0 125 -65q23 -34 23 -82q0 -58 -20 -102q-25 -54 -78 -80q-16 -8 -36 -8q-22 0 -46 11q-21 9 -40 33q-12 17 -9 35q4 -1 8.5 -2t8.5 -2
q8 -3 11 -11q6 -21 27 -36q10 -7 19 -7q7 0 14 3q46 20 70 62q29 49 29 107q0 23 -5 51q-3 16 -21 42q-14 21 -48 21q-23 0 -50 -11q-85 -32 -143 -116q-43 -60 -69 -114q-40 -83 -57 -153q-16 -64 -16 -120q0 -59 24 -103q15 -26 33 -42q8 -6 10 -6q35 -18 70 -18
q32 0 60 14q50 25 98 79l22 25q23 25 44 50q3 4 34 46l12 13q1 1 4 1q4 0 7 -4q-18 -32 -28 -48q-18 -29 -62 -79q-25 -30 -53 -59q-46 -44 -103 -54q-19 -4 -41 -4zM227 585q-61 -68 -105 -161q-21 -47 -39.5 -108.5t-15.5 -77.5q40 193 160 347zM148 520q0 1 -2 1l-7 -11
l2 -2zM73 323q21 66 52 128l14 29l9 16q7 7 10 17l-2 1l-9 -17l-9 -16q-6 -8 -8 -12q-34 -60 -61 -146q-1 -2 -1 -7q2 2 5 7zM484 483q4 7 5 14l-2 1l-5 -15h2zM508 496l-15 -40q13 16 15 40zM74.5 371q19.5 51 48.5 109q-15 -21 -35 -66.5t-33 -88.5t-11 -57
q11 52 30.5 103z" />
    <glyph glyph-name="D" unicode="D" horiz-adv-x="516" 
d="M164 6q-47 0 -80 17q-18 8 -36 23q-10 8 -17 25q-10 26 -11 49q-1 4 -0.5 7t0.5 5q8 2 11 2q8 0 12 -13q1 -2 6 -23q10 -36 34.5 -53.5t66.5 -17.5q33 0 77 22q63 31 114 106q19 27 33.5 57t31.5 71q36 84 68 187q27 86 40 166q2 18 2 29q0 24 -3.5 34t-13.5 10
q-4 0 -16 -4q-13 -5 -30 -20q-46 -43 -72 -102q-19 -42 -61 -124q-26 -52 -51.5 -108t-43.5 -104q-21 -55 -50 -117q-5 -11 -13.5 -24.5t-13.5 -20.5q-8 -13 -24 -13q-8 0 -12 1q-14 4 -17 14q-6 15 -6 31q0 35 15 75q19 49 34 85l10 25l40 101l40 100q21 52 26 94
q3 17 1 41q0 5 -1 8l-2 6q-3 1 -9 1q-1 0 -19 -3q-57 -18 -100 -74q-48 -64 -42 -147q1 -10 7 -35q2 -8 11 -8q3 -1 6 -2.5t6 -2.5v-2q0 -8 -10 -8q-26 2 -40 20q-12 14 -15 31q-5 27 -5 48q0 78 55 144q36 42 84 61q24 8 45 8q11 0 23 -3q57 -18 57 -84q0 -17 -4 -35
t-5 -23q-9 -45 -37 -109q-39 -97 -70 -169l-29 -69q-14 -36 -20 -54q-4 -9 -7 -23q6 2 7.5 5t2.5 4l9 20q16 34 18 40l8 19q39 95 68 160.5t64 127.5l34 65l33 65q20 37 62 81q23 23 52 23q21 0 36 -15q28 -27 28 -69q0 -14 -2 -30t-3 -22q-17 -137 -74 -279
q-27 -70 -56 -122q-40 -70 -90 -119q-28 -26 -68 -44q-33 -14 -64 -17q-24 -2 -35 -2zM113 584q-22 -25 -29 -53zM83 576l-2 2q-5 -9 -13 -27l2 -1zM121 112q2 7 5.5 20.5t6.5 23.5l52 129l31 77l45 110l11 31q-7 -7 -8 -13l-43 -107q-54 -128 -80 -193q-20 -46 -22 -83z
M147 261q14 34 20 51q2 4 4 12l2 2t1 3l59 144l5 16q-2 0 -4 -2l-52 -131l-12 -31q-10 -19 -18.5 -42.5t-10.5 -30.5zM483.5 369q31.5 89 29.5 106q-35 -115 -74 -212q13 17 44.5 106zM471 412.5q14 42.5 13 51.5l-35 -106q8 12 22 54.5zM183 320q2 2 2 3l52 127q1 2 1 5
l-4 -4q-9 -24 -29 -70l-23 -60q-9 -16 -11 -26l2 -1q5 12 10 26zM489 432h-2l-8 -22q-10 -30 -23 -67q16 29 33 89zM161.5 266q5.5 13 5.5 20l-18 -42q7 9 12.5 22zM138 209q-14 -23 -24 -60l2 -1zM113 173l9 27q-7 -8 -13 -27.5t-5 -27.5z" />
    <glyph glyph-name="E" unicode="E" horiz-adv-x="567" 
d="M565 421q-16 -29 -53 -59q-22 -18 -55 -18q-54 0 -82 37q-16 23 -16 56q0 31 11 51h4q11 0 24 -8q-2 -16 -2 -24l-1 -16q0 -28 10 -49q4 -8 7 -11q11 -15 26 -15q7 0 17 5q21 10 40 33q44 48 62 126q6 27 6 53q0 25 -6 49q-7 30 -21 48q-18 25 -43 25q-21 0 -57 -14
q-42 -16 -71.5 -46.5t-53.5 -73.5q-34 -63 -40 -143q-2 -31 12 -76q3 -9 12 -12q32 -10 53 -32q1 -1 4.5 -5.5t1.5 -9.5q-6 -7 -17 -7q-18 2 -29 9q-36 25 -40 28q-8 4 -12 4q-41 0 -74 -30q-75 -68 -101 -170q-8 -28 -8 -64q0 -30 5 -51l7 -33q13 -51 64 -94q35 -29 88 -29
q28 0 53.5 8.5t44.5 25.5q42 36 65 90q12 29 12 58q0 18 -3 34q-2 13 -9.5 23t-20.5 23q-19 21 -43 29l-3 2l-2 3q6 3 12 3q9 0 19 -5q19 -6 40 -25q16 -15 33 -35q5 -6 9 -20q4 -17 4 -37q0 -53 -35 -105q-18 -26 -45 -50q-34 -28 -80 -37q-28 -5 -50 -5q-16 0 -46 4
t-56 20q-39 22 -65 52q-24 25 -35 62q-16 51 -16 99q0 50 16 95q30 85 95 144q38 34 99 39h10q-2 9 -3 10q-19 47 -15 96q5 41 14 68q23 74 75 131q55 60 133 73q16 2 24 2q51 0 91 -37q25 -24 36.5 -54.5t11.5 -70.5q0 -75 -42 -147zM312 600q-34 -45 -42 -94q12 32 19 48
t23 46zM268 569q-1 1 -3 1l-18 -48q2 0 2 -1q7 16 19 48zM271 547l-2 1q-1 -6 -5 -13q2 0 2 -1q4 7 5 13zM591 530q-8 -23 -22 -71q19 35 22 71zM569 524l-3 1l-5 -21h3zM93 204q-13 -18 -24 -54t-9 -53q10 54 33 107zM60 153.5q3 10.5 2 16.5q-1 -3 -5 -13t-4 -21
q4 7 7 17.5zM39 122l10 39h-2q-8 -16 -8 -39zM51 121q2 10 2 14l-4 -13z" />
    <glyph glyph-name="F" unicode="F" horiz-adv-x="470" 
d="M980 711q0 -9 -7 -13q-4 -3 -7 -3q-4 0 -8 4l-9 6q-7 5 -6 12v7q-28 8 -63 8q-47 -2 -90 -13q-24 -7 -72 -23q-51 -16 -151 -50q-10 -3 -16 -10l-13 -20l-26 -40q-13 -22 -25.5 -51t-22.5 -56q-3 -10 -8 -22l-25 -67l-2 -8l10 -3l49 -7h6q16 0 27 7q12 5 15 5q6 0 16 -9
v-2q0 -5 -4 -8t-5 -4q-17 -12 -43 -12q-11 0 -17 1l-54 7q-3 1 -9 1l-4 -10l-15 -44q-6 -17 -14.5 -42.5t-21.5 -59.5q-28 -75 -58 -124q-27 -46 -70 -84q-35 -32 -81 -32q-79 0 -117 70q-19 37 -19 93q0 44 11 90q22 108 68 182q35 58 88 96q24 16 46 16q19 0 39 -12
q34 -20 34 -66q0 -22 -11 -55q-1 -6 -4 -11q2 0 2 -2q27 12 43.5 18t34.5 6q9 0 14 -1q5 8 6 14l50 117q24 59 65 115l4 6q-3 -1 -7 -1q-47 -15 -76 -22q-80 -20 -134 -20q-62 0 -124 32q-11 6 -16 16h10l20 -8q38 -15 78 -15q52 0 130 26q128 40 217 70l46 16q52 18 79 26
q60 19 120 19q63 0 105 -25q13 -8 21 -24q1 -2 1 -7zM279 110q39 79 93 229q1 2 0.5 4t0.5 4q-19 -5 -18 -5q-33 -11 -80 -45q-21 -15 -36 -36q-1 -2 -12 -13q-5 -6 -15 -3q-16 5 -27 15q2 3 4 7.5t4 7.5q19 27 36 67q9 20 16.5 42t10.5 42q2 12 2 18q0 15 -6 28
q-20 -3 -35 -15q-51 -38 -89 -105q-37 -66 -58 -164q-10 -43 -10 -81q0 -61 27 -103q17 -29 47 -29q15 0 26 5q18 8 41 27q46 40 78 103zM260 388l-33 -76l2 -1q22 42 31 77zM264 337q2 0 3 -1q10 16 19 46q-1 1 -3 1zM265 370l-21 -48q1 -1 3 -1q16 34 20 48q-2 0 -2 1z
M402 333l-2 1q-6 -18 -10 -27l3 -1zM79 266l6 19q7 12 8 24l-2 1q-3 -8 -7 -24q-6 -9 -5 -20zM63 289l2 -1q3 6 7 20l-2 1q-3 -11 -7 -20zM360.5 281.5q-3.5 -8.5 -4.5 -15.5q4 6 6.5 15t3.5 13q-2 -4 -5.5 -12.5zM374 292q-2 -8 -4 -12l2 -1l4 12zM353.5 195
q31.5 78 31.5 95q-39 -113 -81 -199q18 26 49.5 104zM56 259l5 14l-2 1l-6 -15h3zM351 248q2 5 4 15q-6 -6 -4 -15zM72 254q-2 -7 -4 -13.5t-3 -11.5q1 -1 3 -1q5 19 7 25z" />
    <glyph glyph-name="G" unicode="G" horiz-adv-x="531" 
d="M43 -272q-23 15 -23 51q0 42 27 80q38 51 108 79q67 27 140 36q9 0 12 9l48 134l24 70q2 2 0 6l-6 -9q-3 -5 -22 -37l-36 -57q-30 -44 -62 -64q-32 -18 -64 -18q-15 0 -37 5q-61 16 -81 87q-8 27 -8 61q0 11 2 35q17 151 97 293q43 76 102 124q57 47 110 57q18 3 36 3
q57 0 99 -34q30 -23 37 -59q5 -17 5 -41q0 -29 -8 -52q0 -3 -2 -5h-1q-2 0 -7 3t-10 1q1 3 1 7q4 19 4 41q0 28 -9 56q-10 25 -32 42.5t-51 17.5q-10 0 -15 -1q-37 -7 -75 -33q-74 -49 -125 -143q-67 -123 -93 -272q-6 -44 -6 -65q0 -11 2 -31q4 -32 25 -59q6 -8 17 -13
t23 -5q10 0 20 5q29 16 52 42q20 25 56 77q6 10 20 30q28 42 43 62q20 27 47 80l50 94l14 22q5 6 10 6t10 -5q1 -1 4 -2l6 -2l-2.5 -7.5t-3.5 -9.5q-13 -35 -29 -76l-30 -77q-6 -17 -13 -40t-11 -34l-17 -54l-30 -87l-22 -64q-2 -5 -4 -13q8 -1 20 -3t28 -6q46 -8 79 -30
q10 -7 20 -17t9 -23l-12 -2h-4q-8 0 -12 6q-30 38 -96 51l-31 4h-4q-4 0 -5.5 -2t-2.5 -6q-17 -44 -37 -82q-36 -65 -84 -105q-58 -46 -128 -46q-36 0 -56 14zM108 161q4 52 21 117q15 59 36 114q15 37 51 107l-2 -1l-5 -7q-52 -87 -79 -186q-24 -82 -26 -135l1 -9h3z
M142 380q-8 -11 -20.5 -52.5t-21.5 -85t-6 -61.5q9 81 48 199zM119 360q-20 -58 -30.5 -99.5t-9.5 -85.5q7 73 40 185zM440 260q0 1 -2 1l-3 -11l2 -1zM426 220h-2l-9 -28l3 -1q1 7 8 29zM101 -266q19 0 34 7q41 21 68 51q47 53 73 114q7 15 19 45l-2 3l-19 -3
q-45 -9 -77 -19t-60 -26q-52 -30 -75 -79q-9 -18 -9 -45q0 -18 9.5 -31.5t24.5 -15.5q5 -1 14 -1zM28 -224v12h-1v-12h1z" />
    <glyph glyph-name="H" unicode="H" horiz-adv-x="659" 
d="M626 -134q-38 0 -68 20q-28 18 -47 37q-30 27 -35 75q-3 20 -3 39q0 40 13 85l31 98l11 33q2 8 4 12q-9 3 -22 3.5t-21 1.5l-43 6l-43 5l-43 6l-21 -56q-41 -103 -102 -182q-19 -24 -38 -41.5t-42 -28.5q-17 -8 -38 -10q-37 -2 -61 3q-12 2 -29 10q-10 5 -9 15q3 1 9 1
q9 0 17 -4q18 -8 35 -8q15 0 33 8q31 15 57 46q42 50 79 124q25 48 48 113l3 8q-4 1 -9 1l-20 -4q-32 -6 -47 -12q-44 -19 -71 -54q-10 -13 -16 -31q-3 -11 -4 -14l-10 3q-7 3 -7 10q0 21 8 36q28 51 84 71q54 20 101 19q8 20 11 30q33 91 59 203q11 51 9 82q0 18 -9 41
q-4 8 -7.5 11.5t-9.5 3.5t-9 -1q-39 -9 -69 -31q-70 -48 -109 -118q-21 -39 -26 -86q-3 -29 12 -59q7 -15 23 -16q6 -1 10.5 -3t7.5 -3q-2 -8 -13 -8q-32 0 -54 22q-22 26 -22 66q0 73 56 146q48 61 108 93q12 7 40 17q12 4 27 4q45 0 71 -40q13 -19 19 -56q1 -7 1 -21
q0 -27 -7 -60q-18 -95 -57 -205l-4 -14q38 -6 57 -8q34 -6 56 -8q9 -2 29 -4l29 -3l5 13l14 36q30 82 47 122q57 139 145 239q27 33 66 54q20 11 39 11q16 0 38 -10q13 -7 16 -16q-2 -2 -3 -1q-11 4 -22 4q-25 0 -52 -20q-35 -26 -61 -63q-60 -84 -110 -190
q-21 -46 -51 -129l-17 -45q-40 -112 -58 -168q-16 -48 -16 -99q0 -12 2 -38q6 -49 44 -78q4 -2 8 -5.5t10 -7.5q17 -11 34 -11q14 0 27 7l15 7q10 5 13 5q5 0 15 -7q0 -6 -9 -13q-16 -14 -36 -15q-5 -1 -16 -1zM751.5 646q7.5 12 8.5 18l-28 -39l2 -2q10 11 17.5 23z
M517 104q16 54 22 72l66 183q6 15 16 45l5 11q41 101 97 189l5 9q-6 -2 -9 -9q-50 -78 -83 -157q-6 -14 -16 -42q-1 -3 -3 -5.5t-3 -5.5l-10 -27q-18 -46 -37 -101q-20 -56 -46 -136q-3 -7 -5 -17.5t-4 -16.5q3 2 5 8zM676 548q-1 1 -3 1q-1 -2 -8 -14l3 -2q2 5 8 15z
M167 536q-2 0 -3 1l-9 -22l2 -1zM654 532q-10 -12 -25 -44l2 -2zM659 518l-2 2l-11 -23l2 -1zM627 477h-2q-1 -3 -3 -7t-4 -9l2 -1q3 5 7 17zM400 463q0 1 -2 1q-1 -3 -2 -6.5t-3 -7.5q-3 -12 -14 -50q-8 -26 -26 -78q0 -1 -1.5 -5t0.5 -9q29 71 48 155zM331 325.5
q2 6.5 4 13.5q6 11 6 13q20 64 29 96l2 9q-3 -3 -5 -11l-21 -69l-12 -38q-7 -14 -6 -25q1 5 3 11.5zM562 313l7 18l21 57q4 5 6 16l-2 1q-2 -7 -4 -17q-8 -18 -22 -56l-7 -18q-4 -8 -6 -15t-1 -13zM344 329l5 8q5 17 17 51l4 15q-3 -1 -5 -6q-11 -30 -17 -53q-2 -4 -4 -14
q-2 -3 -7 -16l3 -1zM595 366l-3 1q-1 -6 -5 -13q2 0 2 -1zM573 313q5 5 7 16h-3l-4 -16q-4 -4 -6 -15l2 -1zM332 252.5q11 28.5 10 36.5l-28 -72q7 7 18 35.5zM546 264l-3 1l-7 -21l2 -1zM503 142l4 7l26 78l1 6l-4 -4l-27 -83v-3q-4 -9 -5 -13t0 -11q5 22 5 23zM517 148
q14 39 23 70l-2 1q-14 -41 -23 -71h2z" />
    <glyph glyph-name="I" unicode="I" horiz-adv-x="426" 
d="M73.5 -39.5q-11.5 1.5 -20.5 4.5q-8 3 -26 14q-10 8 -5 19h5q14 0 22 -9q6 -8 17 -6q25 0 46 15q35 23 73 76q86 120 142 244q37 78 61 151q19 63 29 118q2 18 2 26q0 17 -4 32q-2 10 -5.5 12t-16.5 2q-15 0 -43 -8q-22 -7 -41.5 -19t-42.5 -31q-58 -49 -89 -115
q-20 -46 -25 -101q-1 -10 -2.5 -20t-2.5 -21q-2 1 -3.5 0.5t-1.5 0.5q-13 4 -17 7t-4.5 11.5t-0.5 22.5q0 41 9 80q11 49 43 95q46 67 117 109q34 19 74 24q15 1 39 -7q64 -26 64 -106q0 -21 -5 -45t-6 -28q-17 -84 -67 -196q-37 -82 -69 -138q-47 -82 -86 -130
q-21 -27 -55 -58q-40 -34 -89 -28q-4 1 -15.5 2.5zM225 577l-2 2l-9 -11l2 -1zM256 104q24 34 26 38q57 90 106 207l8 22q-5 -3 -6 -7l-13 -29l-19 -42q-40 -84 -75 -141l-28 -47q-7 -7 -12 -17l2 -2zM339.5 307q21.5 47 21.5 56l-52 -112q9 9 30.5 56zM327 252l17 36
q8 18 10 22l17 34l-3 2l-15 -35l-4 -5q-11 -24 -35 -72q-1 -1 -1 -2.5t-1 -2.5q7 7 15 23zM307 214l-2 1l-6 -10l2 -2z" />
    <glyph glyph-name="J" unicode="J" horiz-adv-x="525" 
d="M455 200l-21 -47l-18 -37l3 -2q43 -19 53 -23q13 -6 20 -1q8 5 14 5q9 0 19 -10q-3 -13 -17 -15q-17 0 -25 2q-22 7 -66 23q-9 3 -11 4l-18 -29q-63 -102 -121 -166q-43 -47 -93 -74q-25 -14 -54 -14q-23 0 -43 8q-23 9 -40 33.5t-17 49.5q-2 87 55 149q63 72 157 88
q20 3 41 3q37 0 74 -9l16 -3q2 4 13 25q62 126 90 226q24 90 30 136q4 21 4 47q0 27 -5 46q-2 8 -4.5 14t-4.5 10q-7 16 -32 16q-17 0 -36 -7q-99 -35 -154 -101q-29 -36 -53 -90q-8 -17 -22 -51q-14 -37 -14 -66l-1 -21l-21 2q-10 1 -12 13q-3 14 -3 26q0 14 5 31
q30 91 67 146q38 61 108 103q41 23 72 33q22 8 42 8q28 0 54 -14q45 -23 55 -81q4 -21 4 -47q0 -40 -9 -79q-13 -61 -27 -112q-15 -59 -54 -148zM176 400h-2q-4 -8 -7 -22l2 -1q3 13 7 23zM476.5 292q2.5 9 3.5 12q-10 -18 -11 -28q5 7 7.5 16zM461 251q3 5 8 23l-5 -6
q-35 -86 -63 -139q-1 -2 -1 -6q1 1 3 1l6 10zM376 133l2 -1q21 38 40 82l-2 1q-18 -36 -40 -82zM390 128q22 43 24 49q5 9 7 14t1 10l-10 -23l-22 -42q-2 -4 -2 -7zM338 92l14 24l-4 2t-4 1q-20 4 -46 4q-29 0 -50 -5q-53 -11 -97 -40q-90 -62 -98 -159q-4 -40 15 -65
q10 -13 23 -10q26 6 36 12q54 28 100 82q52 63 111 154zM364 89l2 -1q8 12 11 18l-2 2zM344 28q43 63 46 76h-1q-2 0 -2 -1q-39 -66 -105 -155l-1 -1l1 -1q19 19 62 82z" />
    <glyph glyph-name="K" unicode="K" horiz-adv-x="632" 
d="M613 -95q-19 0 -39 9q-63 27 -101 83q-20 31 -33 73q-16 52 -29 102q-8 27 -23 61q-14 27 -39 47q-11 9 -19 3q-2 -2 -5 -2q-7 -2 -12 -12q-8 -28 -26 -84q-33 -99 -76 -162q-24 -35 -49 -60q-11 -11 -33 -20q-8 -3 -25 -10t-30 -11q-11 -3 -22 -3q-14 0 -26 6q-2 0 -2 1
q-4 4 -4 6t2 3t4 1q15 1 31 9t21 10q27 14 58 54q37 46 67 115q19 45 49 139l2 9l-7 7q-4 3 -4.5 5t2.5 6q4 6 12 9q7 4 10 12q37 118 58 226q13 65 13 107q0 65 -22 103q-15 25 -43 21q-46 -7 -90 -41q-73 -60 -99 -155q-4 -15 -4 -34q0 -11 1 -17q1 -8 5 -22
q-29 -1 -35 28q-3 12 -3 24q0 18 7 42q23 87 93 147q28 25 55.5 38.5t61.5 13.5q62 0 97 -57q20 -33 25 -81q2 -22 2 -32q0 -32 -10 -92q-18 -100 -43 -184l-2 -13l2 -1l11 9q38 37 78 90l94 127q63 87 152 158q56 45 107 62q29 9 57 9q22 0 45 -6q9 -2 18 -6q1 -1 14 -11
l-1 -2q-3 -1 -7 -1q-16 3 -32 3q-45 0 -90 -25q-53 -30 -117 -90q-41 -38 -76 -81.5t-84 -108.5q-47 -63 -88 -110q-19 -21 -51 -45l-5 -4l8 -6q26 -16 48 -41q6 -8 11 -16t9 -14q19 -32 40 -98l12 -35q8 -24 11 -36q18 -48 41 -75q25 -31 62 -51q6 -3 12 -3q5 0 8 1t7 1
q10 0 19 -6q-2 -10 -18 -14q-12 -2 -18 -2zM363 532l-54 -217l3 -1q31 97 51 218zM289 336q4 5 5 11l6 20l7 26l18 77q4 15 5 20l4 18q-7 -9 -4 -18q-8 -10 -5 -20q-1 -2 -2.5 -5.5t-1.5 -5.5l-23 -85q-2 -9 -11 -38h2zM332 450l-26 -93l-5 -19l2 -1q18 51 29 113zM296 271
q-7 -16 -13.5 -36.5t-8.5 -28.5l-22 -65l2 -1q32 81 42 131z" />
    <glyph glyph-name="L" unicode="L" horiz-adv-x="428" 
d="M387 -70q-63 23 -77 27q-51 18 -97 18q-85 0 -141 -36l-15 -12l-5 -5t-6 -3q-1 0 -19 3l-7 3l6 11q12 15 40 32q6 4 15 9.5t15 10.5q30 25 49 45q17 16 28.5 37.5t22.5 49.5q29 73 54 171l37 138q37 130 110 269q26 49 47 74q29 34 56 46q12 6 32 6q18 0 35 -6t27 -17
q22 -23 31 -54q13 -40 13 -82q0 -62 -27 -122q-24 -56 -51 -90q-16 -21 -30 -34q-27 -26 -65 -26q-26 0 -52 15q-15 10 -32 29q-10 10 -12 32h7q8 0 11 -2.5t6 -11.5q9 -26 40 -43q8 -4 17 -4q11 0 20 4q29 11 48 39q59 80 79 164q8 35 8 66q0 34 -8 61q-11 34 -24 52
q-7 10 -19 10q-14 0 -25 -6.5t-24 -18.5q-25 -23 -47 -63q-74 -140 -113 -271l-68 -235q-23 -79 -46 -128q-8 -17 -18 -33.5t-21 -28.5q-8 -6 -14 -14l-8 -8h8q90 3 190 -35q60 -23 109 -34q32 -7 53 -7q24 0 44 8q3 1 25 12q6 3 16 11q8 6 15 6q10 0 18 -7q-8 -13 -9 -14
q-12 -16 -37 -25q-29 -12 -68 -12q-65 0 -147 29zM227 105l6 12q26 78 38 118q12 39 34 117q14 52 22 78q36 124 109 269l3 7q-4 -2 -8 -8l-39 -82q-31 -67 -54.5 -138.5t-48.5 -164.5q-29 -109 -54 -179q-3 -10 -11 -30l2 -1zM390 657l-2 1l-12 -25l2 -1zM395 642l-2 1
l-8 -15l3 -1q4 10 7 15zM322 464l12 35q1 1 2 2.5t1 3.5q5 11 22 55l1 6q-6 -8 -15.5 -33t-10.5 -33v-1q-8 -13 -12 -35q-6 -11 -8 -28q8 14 8 28zM343 552q-24 -49 -38 -109zM260 281l7 24q5 16 16 64q6 22 10 33q5 11 6 21q-1 1 -3 1q-1 -7 -5 -21l-9 -33q-2 -7 -4 -13.5
t-4 -12.5l-15 -63q-5 -12 -9 -27.5t-5 -20.5l3 -1zM311 423q-2 0 -3 1l-12 -41l3 -1zM290 349l-3 1l-16 -63l2 -1zM250 205q2 6 4 20q5 7 6.5 16.5t2.5 12.5q-8 -18 -9 -29l-7 -20h3zM245 191q-3 -3 -5 -9l-8 -25l2 -1q9 27 11 35zM234 188l-3 1l-10 -33q0 -1 2 -1
q3 11 11 33z" />
    <glyph glyph-name="M" unicode="M" horiz-adv-x="717" 
d="M547 12q-11 -35 -11 -69q0 -18 3 -34q7 -40 28 -61q31 -34 82 -42q20 -2 35 12q22 20 31 36q8 16 22 16q2 0 10 -2q1 -2 1 -5q0 -6 -3 -10q-11 -27 -44 -53q-5 -4 -11 -5q-26 -8 -47 -8q-31 0 -62 14q-36 16 -56 34q-24 23 -35 57q-8 25 -8 58q0 25 2 38q12 72 51 161
q10 22 48 98l28 56l23 46q15 30 32.5 64.5t36.5 74.5q20 42 25 72q1 5 0.5 10.5t0.5 11.5q-11 -2 -15 -4q-6 -3 -16 -9.5t-17 -11.5q-38 -29 -84 -94q-54 -77 -139 -215q-43 -70 -96 -151q-21 -30 -28 -48q-4 -8 -6 -9t-11 0q-11 2 -14.5 4t-3.5 9t1 11q6 49 29 120
q32 95 85 209q35 75 53 115.5t33 86.5q6 18 17 63q2 10 2 14q0 8 -3 15h-3q-8 0 -19 -7q-28 -18 -44 -41q-15 -18 -27 -40t-15 -27q-38 -68 -57 -111l-94 -211l-20 -43l-40 -86q-13 -26 -43 -78q-6 -9 -15 -18q-10 -10 -22 -10q-7 0 -17 5q-6 3 -7 4q-1 3 -1 10q0 9 4 27
q7 27 18.5 58.5t23.5 61.5l28 65l56 130q26 63 40 117q9 36 6 73q-2 22 -12 38q-5 8 -17 8q-26 -1 -51 -14q-79 -40 -114 -109q-18 -34 -18 -67q0 -13 3 -28q2 -15 14 -17q3 -1 7 -4t7 -5l-10 -2q-17 0 -30 8.5t-20 24.5q-7 17 -7 37q0 14 3 29q7 32 28 63q41 59 104 92
q32 17 61 17q57 0 87 -50q14 -23 14 -66t-20 -108l-12 -34l-3 -10h2q3 4 7 14l14 32q27 63 38 85q28 54 76 136q22 39 61 64q12 8 28 8q24 0 40 -18q16 -19 16 -44t-6 -48.5t-13.5 -44.5t-10.5 -28q-15 -44 -53 -128q-4 -7 -10 -21l-88 -199q-4 -8 -11 -29q0 -1 2 -1l10 15
q64 106 97 158q45 73 74.5 116.5t63.5 85.5q37 47 80 71q12 6 24 6q19 0 31.5 -15t12.5 -39t-13 -59q-17 -51 -63 -147l-93 -192q-32 -65 -51 -135zM362 158l27 71q10 25 32 73l19 43q48 106 71 159q20 45 28 88q-2 -2 -2 -5l-14 -37q-8 -25 -21 -56q-29 -66 -79 -178
l-25 -55q-36 -83 -57 -149q0 -3 -2 -9q3 2 5 7zM434 404l2 -1q48 100 69 166l-71 -164v-1zM512 556q-2 -8 -2 -12q1 2 2 5t3 6q-1 1 -3 1zM503 531l-57 -129l-8 -19l3 -1l7 17l57 130q1 2 1.5 5t1.5 5zM543.5 51.5q9.5 27.5 19.5 53.5l22 50q10 20 14 30l11 26l27 49
q40 80 64 134q10 21 28 63l16 38q2 6 4 16q-4 -4 -6 -11q-3 -7 -9 -23t-12 -27l-58 -123l-39 -82q-6 -11 -16 -33l-5 -7q-38 -78 -57 -131q-11 -30 -17 -50.5t-9 -41.5q-1 -5 -2 -12t-1 -17q0 -9 1 -13q2 7 4 17q1 7 2.5 20.5t3.5 22.5q5 24 14.5 51.5zM700 447l10 26
q10 16 10 29l-11 -28q-9 -15 -9 -27zM718.5 469q-2.5 -6 -4.5 -11q-11 -21 -13 -29l2 -1l12 28q9 16 9 27q-3 -8 -5.5 -14zM218 254q5 12 24.5 57t33.5 86l13 41h-2l-3 -6q-25 -72 -87 -212l-57 -132q-2 -8 -4 -11q4 1 6 5q44 98 65 148q3 8 11 24zM247 403l9 19
q-9 -9 -9 -19zM670 367q2 0 3 -1q7 16 23 48q-1 0 -3 2zM177 237q4 1 4 3l56 130q4 10 8 28l-4 -7l-60 -143q-2 -3 -4 -11zM418 370l2 -1q8 16 11 24l-2 1zM251 382l-36 -86l-18 -47l-9 -18l3 -1q4 12 7 18l1 2l54 128q2 4 2 7zM403 339q1 0 3 -2l6 15l-2 1zM409 321
q-4 -8 -6 -15q2 0 3 -1l12 27q-1 1 -3 1zM360 200l2 -1l3 11h-1q-1 -2 -4 -10zM109 58q-2 0 -3 1l-5 -20l2 -1zM508.5 -12q-3.5 -24 -1.5 -33l12 72q-7 -15 -10.5 -39zM504 15q-6 -12 -8.5 -33t-0.5 -30z" />
    <glyph glyph-name="N" unicode="N" horiz-adv-x="532" 
d="M582 585q0 -17 -6 -55q-12 -65 -53 -154l-66 -143q-16 -36 -25 -53l-25 -54q-42 -96 -57 -146q-10 -32 -10 -60q0 -26 8 -46q8 -24 18 -36q13 -16 30 -16q11 0 25 9q12 9 22 19q8 8 16 8l12 -2l1 -4q0 -3 -1 -5l-2 -4q-8 -16 -28 -26q-28 -13 -51 -13q-15 0 -27 4
q-27 8 -53 35t-30 64q-1 6 -1 19q0 35 13 76q33 106 95 234q72 152 106 229q31 66 41 135q3 16 1 37q-1 8 -3.5 11.5t-9.5 3.5q-11 0 -21 -5t-18.5 -11t-11.5 -8q-17 -13 -30.5 -28t-32.5 -39q-38 -49 -83 -119q-37 -60 -91 -176q-5 -8 -13 -26l-75 -156q-3 -6 -18 -29
q-9 -15 -22 -15q-4 0 -16 4q-12 5 -12 15q0 6 0.5 17.5t2.5 18.5q20 86 52 161l73 180q19 48 29 109q1 5 1 16q0 16 -5 27q-2 4 -3.5 5.5t-5.5 1.5q-32 0 -59 -19q-36 -24 -68 -75q-23 -35 -35 -92q-1 -6 -1 -17q0 -13 2 -20t5 -9.5t9 -2.5h10q4 0 7 -2t8 -6
q-3 -5 -7.5 -6.5t-11.5 -1.5q-29 1 -46.5 20.5t-13.5 48.5q5 27 12 50q24 82 92 133q35 27 75 27q29 0 52 -16t32 -45q4 -12 4 -28t-3 -34q-7 -53 -36 -127l-23 -55q-2 -3 0 -8l5 10l39 77q43 83 102 157q41 55 71 82q13 12 33 25q16 10 34 10q13 0 26 -5q36 -13 43 -50
q3 -15 3 -31zM502 450q1 -1 3 -1q19 40 28 87q-20 -58 -31 -86zM557 522q-2 -3 -4 -11q-19 -61 -57 -143q-20 -45 -62 -135q-2 -3 -2.5 -5.5t-0.5 -3.5h2l6 12l96 206q16 36 22 80zM504 416q9 18 18 38t12 38q-22 -50 -30 -76zM67 471q-2 0 -3 1l-9 -28l2 -1q5 11 10 28z
M170 310l2 -1q5 12 10 26q9 15 14 29l27 72l7 19l3 11q-5 -8 -8.5 -17t-4.5 -13l-39 -100q-7 -14 -11 -26zM248 417q11 25 12 46l-4 -7q-26 -71 -44 -115l-28 -68q-37 -85 -53 -136l-13 -39l4 3q1 3 3 6t3 8l12 31q37 99 53 136q27 60 55 135zM165 263l3 -1l12 31
q10 23 13 28l18 42q10 25 28 75l3 11q-3 -1 -3 -2l-49 -123q-8 -20 -11 -30q-5 -8 -14 -31zM155 277q-9 -23 -11 -29q5 5 8 14t6 14q-2 0 -3 1zM95 92q18 60 28 90t14 45q7 12 6 19l-6 -18q-3 -3 -3 -4l-43 -131q-1 -2 -0.5 -4.5t-0.5 -4.5q3 2 5 8zM142 197q10 25 17 46
q-10 -12 -34 -82.5t-26 -92.5q14 50 43 129zM418 194l-3 -1q-16 -34 -23 -52l-19 -44l-9 -24q-5 -7 -5 -8l-12 -35q-12 -28 -18 -50q-5 -15 -9 -47v-4q0 -7 2 -19q2 9 4 27q4 28 7 41q5 20 16 50l8 23q2 5 7 22l10 23l19 45q2 4 4.5 8.5t5.5 10.5zM300 -27h-2
q-1 -6 -3.5 -18.5t-2.5 -21.5t3 -18q4 38 5 58zM315 -27q-11 -30 -8 -49h2z" />
    <glyph glyph-name="O" unicode="O" horiz-adv-x="585" 
d="M120 -41q-72 31 -92 109q-8 28 -8 64q0 14 2 38q7 67 41 140q4 10 4 16q0 2 -2 10q-12 48 -12 86q0 122 68 204q58 70 145 70q17 0 35 -3q84 -13 147 -87q23 -26 38 -56q23 -45 26 -87l1 -21q2 -28 2 -42q0 -86 -36 -181q-18 -46 -62 -114l-3 -5l1 -3q18 4 27 7
q57 21 87 42q52 35 91 89q8 10 11 16q6 9 11 9q4 0 13 -3v-2q0 -10 -9 -21q-22 -37 -64 -76q-36 -30 -74 -48q-7 -3 -25.5 -12t-35.5 -12q-6 -1 -15 -3t-21 -3q-12 0 -20 -11q-43 -51 -84 -81q-56 -41 -128 -41q-29 0 -59 12zM352 96q11 0 15 8q2 4 20 32q26 43 32 55
q54 113 54 230q0 107 -54 177q-31 40 -68 60q-39 19 -72 15q-51 -8 -91 -40q-34 -30 -57 -78q-30 -57 -30 -133q0 -19 1 -29l3 -4l6 8q18 28 29 41q28 37 53 52q10 7 21 7q14 0 26 -12l-10 -7.5t-9 -8.5q-33 -34 -56 -76l-26 -47l-16 -29q-5 -8 -2 -17l9 -26q22 -61 62 -104
q29 -30 82 -53q36 -16 74 -21h4zM115 556q-16 -24 -18 -55zM86 542l-2 1q-4 -10 -5 -15l2 -1q4 10 5 15zM95 537l-2 1l-4 -14l2 -1zM483 386v9h-1v-9h1zM502 380l-17 -100q17 56 17 100zM86 269q-9 -11 -18 -47.5t-7 -46.5zM48 226l11 42q-20 -49 -24 -94zM72 266
q-17 -33 -20 -67zM246 -11q49 28 96 83q1 1 1.5 2.5t2.5 3.5q-87 15 -149.5 54.5t-99.5 112.5h-2q-2 -5 -4 -11q-13 -35 -16 -79q-1 -12 -1 -37q0 -38 7 -61q14 -48 49 -73q21 -15 47 -15q32 0 69 20z" />
    <glyph glyph-name="P" unicode="P" horiz-adv-x="558" 
d="M103 5q-17 0 -24 8q-14 14 -14 35t7 43.5t8 27.5q29 99 90 253q26 62 74 188q16 43 21 74q1 5 2 11.5t1 15.5q0 6 -2 16t-4 12q-5 11 -9.5 15t-11.5 4l-12 -2q-55 -12 -103 -59q-39 -38 -62 -98q-8 -26 -8 -47q0 -11 1 -17q1 -8 5 -24q-8 -2 -12 -2q-17 0 -25 20
q-5 17 -5 33q0 43 31 100q38 70 118 106q31 13 58 13q14 0 28 -3q31 -8 48.5 -30t17.5 -53q0 -37 -19 -94q-25 -67 -67 -170l-28 -70q-20 -48 -56 -144q-12 -30 -17 -46l-10 -28q0 -4 1 -6q2 6 5 13l77 200q2 6 6.5 18t8.5 20l17 36q28 60 43 89q24 49 74 145q38 71 95 125
q78 75 186 71q8 0 24 -2q58 -13 72 -72q5 -19 5 -44q0 -40 -14 -82q-30 -96 -100 -184q-24 -28 -51 -50q-44 -35 -95 -56q-67 -27 -114 -27q-20 0 -43.5 5.5t-29.5 6.5q-12 3 -27.5 8.5t-22.5 7.5q-12 -28 -17 -42l-81 -221q-8 -22 -14 -32q-6 -14 -16 -15h-10zM338 315
q18 0 35 6q58 17 96 40q52 30 81 62q67 74 111 183q18 42 23 94q3 32 -11 65q-9 18 -30 20q-21 0 -48 -5q-63 -14 -111 -53q-38 -32 -71 -78q-27 -37 -52 -88l-57 -113q-13 -26 -16 -31l-16 -32q-2 -4 -20 -48q5 -2 11.5 -4.5t13.5 -4.5l20 -5q8 -1 19 -5q11 -3 22 -3z
M693 655.5q3 15.5 1 22.5l-10 -48q6 10 9 25.5zM710.5 610.5q10.5 32.5 10.5 65.5q-3 -27 -11 -52t-22 -62l-7 -20q19 36 29.5 68.5zM701.5 633.5q3.5 13.5 1.5 21.5l-12 -47q7 12 10.5 25.5zM278 637q-4 -16 -5 -23q-4 -17 -5 -23q12 26 10 46zM101 60l4 18q2 4 4 16l4 9
q5 11 10 28l9 27l71 184l39 97q10 23 28 69q11 30 31 92q4 9 4 23q0 7 -1 11l-6 -24q-10 -45 -40 -121l-33 -81q-24 -59 -55 -139q-15 -39 -25 -68.5t-17 -48.5l-18 -50q-1 -3 -1 -8q-7 -11 -10.5 -27t-1.5 -25zM288 608.5q3 13.5 1 20.5q-5 -27 -10 -43q6 9 9 22.5z
M79 64.5q0 5.5 1 8.5q-4 -5 -4 -13q0 -5 1 -8q2 7 2 12.5z" />
    <glyph glyph-name="Q" unicode="Q" horiz-adv-x="623" 
d="M536 -94q-49 0 -102 16q-86 29 -154 50q-25 7 -64 16q-3 1 -9 1q-7 0 -10 -1q-18 -3 -54 -11q-26 -5 -56 -5h-36q-17 2 -25 7q-6 3 -6.5 5.5t3.5 7.5q7 8 27 16q39 14 87 14q14 0 40 -2q15 0 25 5q92 40 151 86q39 32 71 73q65 84 112 206q31 82 43 129q16 64 13 114
q-1 24 -8 48q-9 36 -48 38q-17 0 -29.5 -1t-21.5 -2q-55 -6 -109 -49q-156 -121 -224 -320q-24 -69 -19 -151q1 -15 5 -31t5 -21q0 -3 1 -5l2 -4q7 -14 15 -14q4 0 13 3q17 7 31 18t31 28q45 44 75 113q39 88 58 165q6 30 9 51.5t1 43.5q0 6 1 9q3 0 13 -0.5t18 -6.5
q7 -6 10 -16q4 -16 4 -37q0 -41 -9 -82.5t-26 -90.5t-37 -85q-32 -57 -77 -94q-18 -15 -32 -24t-31 -13q-26 -6 -37 -6q-25 0 -48 13q-18 11 -22 28q-10 31 -10 65q0 72 23 141q15 48 48 111q43 82 104 151q54 61 112 98q52 36 122 36q32 0 57 -8q55 -19 72 -78q7 -28 7 -60
q0 -12 -2 -38q-3 -39 -13 -78t-27 -86l-9 -24q-20 -53 -35 -84q-47 -91 -98 -143q-37 -40 -86 -72q-35 -24 -104 -56l-9 -4l6 -4l81 -24q14 -5 61 -19q63 -19 89 -25q11 -3 27.5 -5.5t25.5 -3.5q4 -1 12 -1q24 0 47 14l14 6q2 1 7 1q7 0 15 -6q-3 -8 -17 -16
q-23 -15 -63 -19q-9 -1 -27 -1zM589 408.5q30 85.5 29 110.5q-20 -79 -73 -212q14 16 44 101.5zM590 512l-24 -77q17 32 24 77zM573 412l4 6l18 54l6 25q-6 -12 -11.5 -29.5t-7.5 -24.5l-9 -31q-4 -4 -6 -16q6 8 6 16zM408 461q-16 -86 -60 -200q50 102 60 200zM382 454
l-22 -81q20 46 22 81zM377.5 377q8.5 27 11.5 53l-24 -84l2 -1q2 5 10.5 32zM561 379h-2l-4 -12l0.5 -0.5l0.5 -0.5q4 8 5 13zM362 334l-2 1l-4 -11l2 -1q3 5 4 11z" />
    <glyph glyph-name="R" unicode="R" horiz-adv-x="515" 
d="M403 -41q-54 43 -83 110q-22 49 -56 151q-5 13 -17 39q-2 7 -13 9q-6 1 -25 5q-12 -31 -25 -68q-10 -24 -22 -58l-18 -49q-5 -12 -29 -55q-8 -14 -22 -14q-5 0 -19 4q-7 3 -9 12q-1 3 -1 9q0 8 1 13.5t2 9.5q7 41 35 112l7 20l20 54l72 200q11 31 21 63t15 60q4 24 4 36
q0 10 -1 15q-2 12 -4.5 15.5t-8.5 3.5q-7 0 -11 -1q-22 -4 -36 -10q-83 -42 -117 -125q-7 -19 -7 -34q0 -5 2 -15q2 -8 9 -26q-12 1 -22 10q-25 22 -25 53t20 64q33 57 85 90q37 23 69 23q38 0 63 -24.5t25 -61.5q0 -24 -10 -74q-8 -28 -11 -43q-2 -4 -1 -8q4 4 5 7
q33 61 85 124q10 13 25.5 26.5t21.5 19.5q10 9 36 19q13 5 29 5q17 0 28 -5q46 -15 71 -56q24 -38 24 -73q0 -17 -7 -40q-12 -38 -45 -92q-17 -27 -59 -63q-46 -37 -99 -59q-19 -8 -32 -12t-27 -5l-30 -4l9 -15q17 -24 37 -73l12 -28q3 -7 18.5 -43.5t33.5 -67.5
q25 -46 70 -77q22 -16 33 -23q25 -18 49 -15h3q4 0 14 -2q0 -8 -8 -10q-20 -6 -32 -6q-6 0 -16 2q-57 11 -106 51zM284 298q68 22 129 70q79 61 118 172q6 17 6 31q0 20 -12 46q-16 33 -46 33q-21 0 -41 -10q-31 -14 -61 -49q-47 -55 -79 -113q-27 -48 -56 -119l-19 -48
l14 -6q2 -1 6 -2.5t6 -3.5q5 -5 14 -5q5 0 8 1q6 0 13 3zM85 582l-2 1q-14 -16 -18 -31q6 10 20 30zM528 496l-39 -68q24 27 39 68zM555 488q-18 -31 -56 -93q33 32 56 93zM531 472q-28 -46 -32 -53l2 -2q20 26 30 55zM197 337l8 28l7 14l-3 2q-2 -10 -4 -16l-3 -5
q-14 -35 -17 -44l1 -5zM175 353l6 14l-2 1l-3 -6t-1 -9q-5 -4 -7 -15l2 -1zM156 271q8 20 14 37l9 20q-7 -7 -9 -19l-14 -38q-5 -8 -11 -26t-7 -25q13 29 18 51zM126 219l24 66q13 25 10 35l-12 -34q-7 -22 -23 -66q-5 -9 -4 -17q5 14 5 16zM178 287l-3 1q-6 -8 -40 -101
t-35 -106zM133 205q-2 0 -2 1l-5 -12l2 -1z" />
    <glyph glyph-name="S" unicode="S" horiz-adv-x="520" 
d="M69 49q-20 11 -35 26q-14 14 -14 35q0 15 6 27q15 25 34 40l18 13.5t29 15.5q8 2 10 2q10 0 19 -13q-33 -16 -62 -56q-14 -20 -15 -44q0 -14 12 -22q14 -8 38 -10l23 -1q62 0 126 22q54 20 78 36q16 10 26 21q8 8 8 17q0 10 -11 18q-8 6 -26 14l-64 23q-53 20 -84 42
q-41 30 -59 72q-9 23 -9 45q0 10 4 32q8 44 41 87q58 80 153 135q55 33 121 44q12 2 19 2q41 0 74 -31q18 -15 27 -51q4 -13 4 -30q0 -38 -29 -72q-23 -27 -66 -62q-34 -30 -47 -48q-16 -23 -18 -40l-4 -11q-34 13 -34 40q0 10 5 25q16 40 50 73l19 18l39 37q13 13 25 32
q12 21 12 44q0 11 -3 23q-1 7 -5.5 9t-14.5 2q-25 0 -62 -11q-51 -17 -97 -47q-89 -62 -133 -130q-30 -46 -30 -94q0 -53 46 -82q32 -20 86 -40q46 -18 63 -26q27 -12 42 -38q8 -13 8 -23q0 -16 -14 -28q-16 -14 -29 -22q-62 -37 -125 -51q-40 -9 -81 -9q-54 0 -94 20z
M506 536q-14 -18 -20 -24q19 10 20 24zM196 465q15 22 30 38l31 32q-24 -16 -51.5 -49.5t-35.5 -58.5q11 19 26 38zM502.5 503.5q9.5 9.5 14.5 22.5l-39 -43q15 11 24.5 20.5zM409 389q16 22 38.5 42t27.5 25l42 39q10 10 16 24l-2 2q-5 -5 -13 -15q-20 -23 -64 -63
q-32 -26 -45 -47l-5 -10zM157 458l27 38q-7 -4 -15 -15.5t-13 -21.5q-6 -6 -5 -13zM198 493q-9 -6 -16 -16t-8 -17zM423 449q-2 2 -3 2l-27 -32l3 -3zM430 436q-14 -7 -23 -22l2 -2z" />
    <glyph glyph-name="T" unicode="T" horiz-adv-x="348" 
d="M161.5 2.5q-14.5 11.5 -19.5 26.5q-7 22 -7 49q0 30 12 60q20 50 68 146l54 101q45 85 53 101l27 54q6 14 20 42q3 6 10 28q-4 4 -8 2.5t-5 -1.5l-53 -10q-64 -12 -96 -17q-21 -4 -49 -4q-33 0 -71 8q-35 8 -61 32q-5 3 -14 17l-2 12q3 -1 8 -3t7 -4q11 -9 23 -12.5
t32 -5.5q22 -2 34 -2q35 0 75 8q83 14 208 45q65 16 137 30q48 10 102 7q66 -6 103 -18q38 -14 60 -36q12 -14 18 -31q1 -4 1 -14q-15 8 -20 17q-13 21 -46 30q-43 10 -90 10q-21 0 -31 -1q-24 -2 -95 -16l-123 -28l-11 -3l-1 -4q4 -12 4 -26q0 -17 -10 -51
q-12 -38 -27.5 -72.5t-42.5 -91.5q-44 -85 -77 -155q-18 -37 -37 -77t-31 -74q-7 -21 -7 -37q0 -11 3 -22l7 -14l3 -8q-20 1 -34.5 12.5zM205 149l30 65l31 63l12 23l18 39q-2 -1 -3.5 -3t-2.5 -3q-6 -13 -20 -39l-26 -54q-18 -36 -52 -108q-6 -14 -10.5 -26l-7.5 -20l3 -1
q22 52 28 64zM238 292l-2 2l-19 -38q-16 -31 -31.5 -64.5t-25.5 -63.5zM215 211q-8 -9 -10.5 -14t-2.5 -12zM199 177l-3 1l-9 -21l2 -1z" />
    <glyph glyph-name="U" unicode="U" horiz-adv-x="553" 
d="M423 -35q-21 0 -42 9q-13 8 -23 18q-20 18 -29.5 41.5t-13.5 54.5q-2 22 -2 33q0 43 11 87l3 16l-6 -5q-31 -49 -66 -89q-36 -40 -73 -46q-9 -2 -27 -2q-26 0 -44 9q-35 17 -43 59q-3 15 -3 31q0 29 13 74q16 49 56 133q48 98 71 148q29 63 41 103q4 18 5 27q1 6 0.5 11
t-0.5 9q-8 2 -12 2q-7 0 -19 -4q-53 -15 -90 -55q-53 -58 -68 -121q-4 -17 -4 -38q0 -16 3 -31q0 -6 1 -10q-24 6 -34 32q-8 20 -8 46q0 47 29 95q25 41 53 68q56 54 116 54q37 0 60 -25.5t23 -59.5q0 -22 -5.5 -40.5t-18.5 -50.5q-27 -71 -75 -168l-39 -84
q-30 -68 -39 -118q-2 -12 -2 -19q0 -13 3 -27q0 -4 3 -10q5 -11 9 -15.5t11 -4.5t16 3q34 9 65 45q53 59 100 138q1 2 14 20l13 19q5 7 9 16l15 38q6 15 14.5 37.5t21.5 52.5q47 107 104 204l17 29l8 10q15 -6 18 -9q10 -8 10 -16l-2 -8q-11 -33 -24 -62q-14 -36 -35 -80
q-7 -17 -22 -52t-26 -63q-27 -69 -42 -110.5t-26 -85.5q-13 -60 -19 -95q-2 -12 -2 -35q0 -27 6 -54q6 -25 25 -48q9 -12 22 -12q8 0 17 3q45 17 74 70q2 6 4 9q3 6 6 9.5t7 3.5l14 -2q-2 -15 -3 -16q-25 -67 -87 -90q-19 -6 -37 -6zM125 645q-15 -12 -33 -36t-20 -36z
M380 334q56 150 119 275q1 0 0.5 1t-0.5 3l-6 -9q-61 -119 -113 -258l-3 -12v-1q1 0 1 -1zM64.5 602.5q3.5 4.5 2.5 9.5l-9 -15l2 -1q1 2 4.5 6.5zM361 135q8 67 33 145q3 10 17 47l21 56q18 53 64 157l10 22l20 43l-2 1q-4 -6 -5 -9l-12 -25q-6 -14 -20.5 -43.5
t-24.5 -53.5q-7 -17 -34 -85l-9 -24q-40 -101 -56 -180q-7 -37 -7 -63q0 -18 3 -36q0 33 2 48zM345 140q10 69 28 127q16 48 36 100q29 75 52 130l18 43q10 18 14 27l-3 2l-12 -28l-12 -25q-8 -14 -16 -34q-22 -54 -64 -162q-26 -67 -40 -144q0 -2 -2.5 -14.5t-0.5 -26.5z
M90.5 234.5q4.5 14.5 6.5 20.5q10 32 43 104q2 5 5.5 12t7.5 16q24 52 37 78q16 32 20 42l-3 1l-19 -42q-6 -8 -6 -10l-24 -51q-8 -17 -23 -48t-25 -54q-20 -45 -28 -84q0 -7 -1 -10q5 11 9.5 25.5zM111 195q11 50 31 93q27 60 83 180q10 21 17 38l-2 1l-4 -6l-90 -189
q-24 -51 -35 -98q-1 -2 -3 -10.5t0 -16.5q1 1 3 8zM140 323l51 111l-2 1l-3 -6q-30 -60 -44 -90q-23 -49 -38 -95q-1 -3 -9 -35q2 0 3 -1q15 59 42 115zM361 281q-12 -17 -24.5 -78t-8.5 -84q6 67 33 162z" />
    <glyph glyph-name="V" unicode="V" horiz-adv-x="381" 
d="M136 40q-4 0 -7 5q0 2 -8 -1q-5 8 -3 19q11 63 14 85q9 61 35 181l14 66q20 95 26 146q3 17 3 33q0 21 -4 38q-1 5 -3 10t-3 9q-3 11 -16 9q-39 0 -68 -26q-47 -41 -60 -95q-4 -13 -4 -29q0 -9 1 -14q0 -4 1 -6l-2 -2q-19 3 -26 19q-6 12 -6 24q0 5 2 17q7 27 11 37
q28 63 73 89q27 15 54 15q30 0 62 -19q26 -17 38 -57q8 -24 8 -56q0 -21 -3 -42q-7 -51 -18.5 -108.5l-14.5 -72.5q-3 -11 -7 -31l-15 -72v-6h1q2 0 7 5q96 107 160 198q59 84 89 159q17 40 17 68t-21 49q-4 4 -10 6.5t-8 3.5l-20 10q-2 1 -2.5 2.5t-1.5 2.5q4 2 11 2
q6 0 16 -2q53 -11 77 -68q6 -13 6 -28q0 -8 -4 -28q-8 -39 -38 -93q-38 -70 -95 -140q-28 -35 -88 -101l-39 -41l-29 -31q-24 -27 -25 -28q-12 -15 -13 -16q-7 -9 -11 -25q-2 -9 -8 -25l-6 -21q-1 -1 -1 -3q-5 -13 -11 -17t-19 -3zM489 596l-10 -29q11 17 10 29zM513 592
l-33 -84q28 47 33 84zM496 573h-2l-5 -12l2 -2zM186 174.5q1 4.5 1 5.5l45 219l1 12q-10 -40 -14 -60q-30 -122 -40 -185q6 4 7 8.5zM152 166q20 96 29 144l11 57l4 15l-3 1l-1 -16l-2 -2t-1 -3q-16 -63 -40 -191l-2 -21q3 5 5 16zM203 344q-7 -12 -24 -95t-16 -100
q14 65 40 195z" />
    <glyph glyph-name="W" unicode="W" horiz-adv-x="890" 
d="M198.5 -92q-5.5 4 -7.5 14q-12 45 -12 92q0 12 2 36q4 41 13.5 81t25.5 95l24 76q6 20 19.5 61t22.5 72q22 69 29 134q1 8 1 23q0 27 -8 48q-3 7 -11 21q-5 7 -18 9q-23 0 -47 -11q-59 -27 -98 -84q-25 -35 -49 -87q-16 -35 -19 -84v-49q1 -21 11 -43q5 -13 15 -13
q7 0 11 2q18 5 37 24q26 27 45 67l20 41l14 -3q8 -3 10 -6.5t1 -11.5q-8 -47 -31 -85q-11 -16 -28 -35q-20 -22 -48 -22q-39 0 -66 19q-24 17 -32 49q-5 20 -5 48q0 60 22 112.5t63 108.5q32 44 87 75q29 15 58 15q17 0 32 -4q46 -11 71 -56q20 -32 20 -83q0 -38 -8 -76
t-22 -85l-63 -196q-26 -88 -35 -145q-2 -16 -2 -22l1 -3l4 4l77 118q47 70 80 141q40 81 64 150q10 31 14 82l3 35q0 3 2 13q17 0 30 -8.5t19 -24.5q11 -26 11 -59q0 -42 -13 -109l-12 -59q-15 -63 -27 -131q-5 -27 -9.5 -55.5t-4.5 -53.5q0 -51 19 -89q16 -31 48 -31
q17 0 31 8q32 22 48 42q21 28 43 61q19 27 45 87q33 81 42 166q6 66 6 98q-1 44 -3 73.5t-8 58.5q-9 42 -24 71q-7 14 -17 24q-43 48 -91 68q-9 3 -18 8l-8 6v3l11 1q27 0 56 -13q32 -14 73 -48q28 -21 54 -52q11 -14 21 -46q9 -26 13 -54.5t6 -67.5q1 -14 1 -41
q0 -48 -6 -95q-6 -52 -21 -102q-22 -64 -37 -94q-35 -66 -77 -117q-38 -43 -77 -58q-36 -13 -66 -13q-36 0 -66 18q-16 8 -28 27q-22 32 -27 85q-2 20 -2 29q0 30 6 63.5t7 40.5q2 13 6 30t6 25q0 1 0.5 4t-1.5 6l-24 -39l-69 -101l-64 -87q-26 -36 -47 -95q-2 -4 -3 -10.5
t-1 -8.5q0 -4 -2.5 -6.5t-5.5 -1.5q-4 1 -8.5 0.5t-7.5 -0.5q-11 1 -16.5 5zM93 531q6 7 11 19l-3 1l-9 -19q-10 -15 -18.5 -33.5t-7.5 -26.5zM808 317q6 50 6 100q0 59 -8 76q2 -44 2 -66q0 -91 -16 -180q10 20 16 70zM782 405q0 58 -7 79q3 -40 3 -82q0 -46 -4 -83
q8 30 8 86zM488 455l2 20h-2l-3 -20h3zM797 404q0 29 -3 59q-4 -103 -5 -150q8 48 8 91zM225 19q2 33 16 97q13 54 44 149l13 41l36 119q3 9 7 27q-2 0 -2 1l-18 -56l-27 -84q-41 -130 -48 -155q-10 -34 -22 -104q-1 -6 -1 -19q0 -12 1 -19zM199 61q14 82 43 174l62 199
l4 13q-5 -5 -6 -10q-28 -84 -41 -126q-40 -123 -58 -204q-11 -52 -9 -83zM467 73q5 67 18 131q25 113 41 190q3 14 7 42h-2l-3 -16l-30 -134q-2 -9 -15 -64.5t-18 -107.5l-1 -20v-19l1 -18q2 5 2 16zM211 48q16 91 47 188q34 108 52 162l3 13q-1 1 -3 1q0 -1 -5 -13
l-49 -153q-29 -92 -41 -156q-6 -28 -5 -44zM822 383v18h-1v-18h1zM803 375v25h-1v-25h1zM216 395h-2l-5 -13q2 0 2 -1q4 11 5 14zM462.5 171.5q8.5 45.5 23.5 110.5q12 48 21 96l-3 -9q-7 -31 -29 -122l-6 -24q-14 -69 -18 -115q-1 -9 -0.5 -15.5t0.5 -11.5q3 45 11.5 90.5z
M203 366l-12 -23l2 -1q9 12 10 24zM439 76q2 54 12.5 106.5t29.5 126.5h-3q-2 -2 -2 -5q-3 -10 -10 -40q-24 -90 -29 -161q-1 -9 -0.5 -15.5t0.5 -11.5h2z" />
    <glyph glyph-name="X" unicode="X" horiz-adv-x="643" 
d="M72 -4q-59 47 -51 121q9 92 71 168q26 30 51 38q15 5 25 5q24 0 44 -17q33 -26 34 -63l1 -19q0 -35 -11 -64q0 -1 -3 -7q0 -1 -3 -4l-16 8q7 35 8 42q2 20 2 30q0 16 -3 29q-7 24 -20 37q-6 7 -14 7q-3 0 -9 -2q-19 -8 -37 -29q-27 -31 -44 -80q-22 -59 -22 -109
q0 -38 16 -63q9 -16 24 -25t33 -9q13 0 24 4q30 13 50 31q57 52 98 132q28 56 40 85q9 20 15 28q4 5 4 20q1 36 1 107q0 56 -1 84q-2 41 -5 67.5t-12 51.5q-10 30 -26 44q-10 11 -25 11q-6 0 -9 -1q-72 -18 -111 -81q-15 -26 -23.5 -44t-11.5 -39q-3 -15 -3 -30q0 -19 6 -39
q4 -10 8.5 -15t13.5 -5q4 0 12 -6q-4 -8 -13 -8q-33 0 -53 33q-14 21 -14 61q0 23 12 52q23 57 56 92q37 39 86 52q12 4 27 4q25 0 52 -15q44 -25 64 -74q19 -48 23 -126q2 -30 2 -44l2 -45q0 -8 1 -12l2 -1l6 15q35 88 71 146q52 85 146 140q37 21 75 21q40 0 74 -21
q5 -3 11 -12q0 -2 -1 -3q-5 0 -8 1l-24 6q-12 2 -18 2q-25 0 -59 -16q-23 -9 -61 -38q-74 -60 -120 -153l-66 -135q-11 -21 -24 -31q-5 -4 -5 -12q0 -57 1 -85q5 -70 32 -120q7 -12 25 -32q12 -14 37 -19q4 -1 11 -1q17 0 28 11q15 12 26.5 28.5t13.5 19.5q18 26 31 55
t28 69l15 41q2 5 4 9t3 7h17l-2 -10q-26 -82 -40 -122q-15 -40 -45 -82q-5 -7 -25 -27q-13 -11 -30 -13q-9 -2 -28 -2q-39 0 -72 20q-30 18 -50 53q-23 41 -33 97q-1 2 -1 5.5t-2 8.5q-5 -9 -6 -11q-24 -54 -49 -94q-32 -49 -71 -79q-42 -34 -89 -34q-60 0 -94 29zM492 403
q32 64 56.5 104.5t59.5 75.5q-9 -4 -15 -12q-32 -39 -41 -53q-32 -49 -74 -140l-2 -6zM166 550l-2 1q-13 -22 -15 -38zM513 492l-3 1q-6 -10 -8 -16l2 -1zM448 307q6 10 8 16h-2l-8 -16h2zM108 254q-32 -46 -41 -104q21 68 41 104zM86 236q-17 -22 -23 -54q7 18 23 54z
M68 226q-20 -31 -24 -62z" />
    <glyph glyph-name="Y" unicode="Y" horiz-adv-x="506" 
d="M31 -225q-3 15 -3 30q0 44 26 84q37 57 114 94q30 14 46 20q34 13 81 13h15q12 40 26 122q-2 -4 -4 -6l-18 -37q-13 -27 -40 -48q-24 -20 -54 -20q-20 0 -38 7q-62 26 -62 107q0 34 12 77q11 45 43 153l25 84q9 27 25 83q4 16 8 46q1 20 -9 44q-4 8 -14 6q-28 -3 -46 -14
q-62 -35 -91 -97q-1 -3 -3 -7.5t-3 -10.5q-9 -40 -9 -66q0 -25 15 -55q5 -11 17 -14q2 0 10 -6q-1 -4 -4 -4.5t-7 0.5q-27 4 -45 30q-24 34 -24 68q0 13 2.5 30t3.5 25q2 18 17 42q29 52 81 86q33 22 66 22q16 0 28 -4q26 -7 44 -30q27 -31 27 -76q0 -15 -3 -32
q-6 -36 -26 -101l-6 -20q-22 -68 -32 -103q-2 -7 -15 -51.5t-20 -86.5q-4 -26 -4 -41q0 -14 3 -29q3 -20 18 -34q7 -7 12 -7t10 4q34 19 55 55q14 24 40 72q15 29 28 52q18 31 28 71q22 94 55 176q36 89 77 148q1 1 8 11l20 -6v-9q-1 -2 -2.5 -4.5t-2.5 -4.5q-6 -12 -16 -36
q-43 -91 -68 -174q-21 -65 -42 -162l-12 -48l-36 -161q-2 -5 -4 -15q5 6 9 22l29 122q11 49 29 118q27 116 51 179q10 28 34 84l18 44q5 12 13 36l5 5q8 -1 5 -11q-10 -30 -16 -45q-50 -120 -72 -206l-35 -142q-16 -69 -50 -207l-1 -5l13 -3q68 -12 117 -38q27 -15 43 -31
l5 -5t5 -10q-3 -1 -7 -1q-9 0 -20 7q-6 4 -19.5 13.5t-25.5 15.5q-42 23 -109 34h-7l-6 -16q-21 -73 -56 -129q-36 -58 -81 -94q-29 -22 -49 -29q-37 -13 -61 -13q-17 0 -30 5q-46 17 -54 58zM435 394q18 56 28 84q3 9 7.5 19.5t8.5 23.5l18 38l-2 1q-11 -20 -17 -39
q0 -1 -2 -3q-23 -48 -47 -130q-1 -2 -1 -6q3 4 7 12zM69 540q-4 -4 -5.5 -6.5t-1.5 -8.5zM472 532q-2 0 -3 1l-6 -15q0 -1 2 -1q4 10 7 15zM434 433l24 73q-10 -15 -32.5 -82.5t-22.5 -82.5q20 62 31 92zM169 151q7 49 33 138l51 168q1 3 1 10q3 5 4 8t-1 8l-3 -11v-5
q-1 -2 -2.5 -4.5t-2.5 -4.5q-7 -21 -16 -52q-3 -9 -13 -40q-33 -103 -47 -162q-9 -40 -10 -70q0 -5 1 -8q3 7 5 25zM146 199q13 57 44 158l9 31l21 69q1 4 5 17q-8 -9 -5 -17l-6 -9l-54 -174q-19 -62 -24 -110q-1 -7 -1 -24zM223 415q1 1 0.5 2t-0.5 2l-1 1q-2 -6 -5.5 -15
t-6.5 -21l1 -6q8 23 12 37zM175.5 256q14.5 51 17.5 62l15 50q-2 0 -3 1l-3 -8q-3 -12 -20 -67q-24 -80 -30 -122q-2 -10 0 -14q9 47 23.5 98zM404 279h-3q-4 -8 -7 -24t-5 -22l3 -1zM148 -255q53 36 85 85q36 53 61 130q3 9 11 38l-16 -2l-32 -8q-82 -30 -129 -74
q-38 -33 -50 -74q-6 -20 -6 -39t7 -34q13 -33 39 -33q11 0 25 8zM64 -163q-7 -14 -7 -26q0 -5 2 -13z" />
    <glyph glyph-name="Z" unicode="Z" horiz-adv-x="539" 
d="M59 -129.5q-19 7.5 -30 26.5q-9 15 -9 37q0 11 1 17q9 63 58 129q20 27 63 54q53 33 98 48q34 13 63 13q16 0 27.5 -2.5t21.5 -9.5q6 -4 9.5 -8t4.5 -11q-5 2 -9.5 3t-9.5 3q-8 4 -18 4q-4 0 -16 -2q-35 -8 -76 -30q-36 -20 -65 -39q-69 -45 -99 -140q-2 -7 -3 -17
t-1 -14v-5q0 -8 1 -12q6 -19 15 -25t26 -4q24 4 35 9q48 21 98 69q107 104 157 247q2 6 8.5 27.5t8.5 40.5q2 24 2 36q0 22 -4 41q-7 28 -36 34q-16 4 -37 4q-16 0 -33 -3q-58 -7 -130 -46q-16 -8 -28 -16l-8 -2q-4 0 -9 3q-2 1 -10 6t-12 12q-4 5 0 11l2 2l26 30
q60 70 92 103q27 28 65 58l30 26q17 14 21 20q-2 -1 -4 -0.5t-4 -0.5q-65 -14 -112 -14q-51 0 -84 11q-17 5 -38 14q-33 16 -43 42q4 5 8.5 4t5.5 -1q5 -2 17 -5.5t22 -5.5q35 -8 79 -8q15 0 45 2q78 7 185 39q10 4 23 7l22 6q10 4 20.5 -3t13.5 -17l3.5 -7t-0.5 -9
q-1 -3 -5.5 -6t-6.5 -4q-76 -51 -184 -141q-48 -40 -87 -85l-6 -8l18 5q46 13 84 13q58 0 96 -30q32 -24 45 -72q7 -21 7 -45q0 -27 -11 -69q-37 -130 -132 -229q-57 -59 -116 -91q-52 -27 -106 -27q-26 0 -45 7.5zM315 520l139 110q0 1 -1 1l-8 -5q-44 -32 -66 -49
q-59 -46 -104.5 -87t-82.5 -87l-4 -6l2 -2q67 79 125 125zM281 525l-10 -9q8 2 10 9zM262 507q-28 -21 -42 -43zM259 488l-2 1l-21 -21l1 -2zM211 452l-2 2l-12 -13l2 -1zM224 452q-7 -4 -9.5 -7t-4.5 -9q6 6 14 16zM189.5 428q2.5 2 3.5 9l-14 -16q8 5 10.5 7zM206 431
l-3 2l-12 -14l2 -2zM175 412l-2 2l-8 -9l2 -2zM186 410l-1 1l-10 -10l2 -2zM159 394l-2 2l-9 -10l2 -2zM444 219l-51 -121q33 51 51 121zM417 215l-2 1l-24 -62q2 0 3 -1q14 32 23 62zM424 205l-10 -25q-7 -20 -13 -34l2 -1q18 38 21 60zM74 7q-8 -12 -13.5 -30t-5.5 -32
q0 -8 1 -11q2 27 18 73zM35 -46l3 22q5 13 7 16l-4 1l-3 -17q-9 -19 -6 -38zM47 -37l5 18l-3 1l-7 -35l2 -1z" />
    <glyph glyph-name="a" unicode="a" horiz-adv-x="286" 
d="M-30 50q-2 32 5 57q29 102 86 175q20 27 47 47q18 12 38 12q14 0 27 -6q7 -3 19 -13q7 -7 4 -15q-9 1 -14 10q-4 7 -12 7q-19 0 -33 -11q-22 -14 -45 -48q-34 -49 -62 -126q-12 -36 -21 -72q-1 -5 -2 -11.5t-1 -10.5l3 -1q14 13 36 43q31 47 35 53l47 69q14 19 46 55
q6 9 14 17q6 0 10 -1q16 -4 16 -16q0 -16 -9 -38q-16 -40 -25 -59q-24 -58 -28 -90q-1 -9 -1 -27q0 -4 2 -9.5t3 -9.5q9 6 14 11q22 20 50 57l48 72l14 21t11 16q2 3 10 8q4 -3 4 -5.5t-2 -5.5q-16 -29 -19 -34l-21 -34q-36 -60 -42 -68q-5 -8 -29 -37q-12 -14 -31 -14
q-15 0 -28 8.5t-17 21.5t-4 30q0 28 9 55t25 62q4 7 10 21l-2 2l-7 -9q-17 -29 -38 -62l-23 -38q-3 -5 -17 -29t-31 -43l-5 -5q-12 -12 -29 -12q-13 0 -23 7q-10 8 -12 23zM197 236l-2 1l-5 -12l2 -1q4 8 5 12zM9 109q16 48 25 71l24 50l-2 1q-3 -6 -11 -21.5t-12 -27.5
q-9 -16 -20.5 -50t-10.5 -43q3 12 7 20zM183 200l-3 1l-6 -14q0 -1 2 -1zM164 160q-6 -8 -12.5 -28t-7.5 -31zM0 118q1 5 3 10t4 12l-2 1l-9 -28q2 1 4 5z" />
    <glyph glyph-name="b" unicode="b" horiz-adv-x="337" 
d="M-44 32q-6 2 -6 11q0 4 1 12t2 13q20 69 60 161q44 97 88 215l23 60l17 43q5 14 7.5 24.5t4.5 17.5q2 8 2 10q0 10 -9 17l-3 5q5 3 13 1q13 -4 21.5 -17.5t9.5 -28.5q0 -39 -12 -75q-30 -94 -46 -141q-18 -53 -54 -133q-1 -2 -2 -5t-1 -7l12 13q7 3 10 7.5t6 13.5
q37 49 75 70q12 6 25 6q17 0 30.5 -10t19.5 -29t4 -49q-7 -57 -24 -98l-2 -5l0.5 -1t0.5 -3q3 1 8.5 2.5t8.5 3.5l44 22l29 15l14 6q11 6 13 7l3.5 3.5t7.5 0.5l-4 -5q-33 -30 -96 -63q-9 -4 -33 -11q-9 -3 -13 -10q-6 -10 -20 -30q-26 -37 -73 -37q-21 0 -53 9
q-28 8 -41 31l-6 9q-5 -5 -7.5 -13t-3.5 -11q-7 -18 -17 -30q-7 -6 -14 -4q-6 3 -20 7zM-0.5 154.5q19.5 47.5 50.5 117.5l16 38q-1 1 -3 1l-4 -8q-36 -80 -52 -120q-17 -42 -41 -112q-2 -5 -4 -13q2 0 3 -1q15 50 34.5 97.5zM26 148l23 54l43 101l1 7q-50 -106 -79 -179
l3 -2zM168 126q30 57 47 139q3 15 1 35q-1 7 -4 8.5t-10 0.5q-12 -2 -17 -5q-27 -13 -49 -38q-48 -51 -96 -136q-2 -2 -4 -9l28 -5q34 -5 84 -3q13 1 20 13zM7 138l30 73q4 9 13.5 31.5t15.5 40.5q-57 -118 -90 -217q1 -1 3 -1q22 58 28 73zM227 177l-21 -50l3 -1
q14 24 18 51zM202 168l-3 1l-11 -27q2 0 3 -1q3 9 11 27zM208 162l-9 -22q10 10 9 22zM147 95q-48 -2 -115 10q3 -10 8.5 -18.5t11.5 -15.5q11 -15 33 -15q38 3 62 39z" />
    <glyph glyph-name="c" unicode="c" horiz-adv-x="232" 
d="M56 -1q-23 0 -43.5 9t-35.5 26q-15 16 -16 38l-1 14q0 35 17 76q27 64 72 116q17 20 35.5 30.5t44.5 10.5q31 0 51 -24q4 -6 5 -9q5 -17 18 -23l-29 -32l-26 -36l-2 -4q-5 -7 -9 -11.5t-8 -4.5t-20 8l8 18q20 37 48 69q4 5 4.5 7.5t-2.5 7.5q-7 14 -19 14q-4 0 -12 -2
q-23 -9 -44 -35q-56 -75 -75 -160q-2 -10 -4 -36q0 -8 1 -12q2 -19 12 -28.5t26 -9.5q4 0 14 2q31 8 67 42q19 17 33.5 36.5t37.5 52.5q4 6 8.5 13t10.5 15l16 17q6 5 13 -1l-41 -70q-26 -43 -60 -77q-27 -27 -55 -39q-21 -8 -40 -8zM18 154q10 24 30 68q-20 -32 -32 -61
t-15 -59q7 28 17 52zM16 185q-8 -10 -14 -24t-5 -22zM-2 174q-7 -7 -12.5 -21.5t-4.5 -24.5q7 21 17 46z" />
    <glyph glyph-name="d" unicode="d" horiz-adv-x="325" 
d="M345 203l-2 -6l-16 -31l-48 -93q-17 -31 -43 -51q-20 -16 -45 -16q-13 0 -24 4q-27 8 -33 38q-2 8 -2 24q0 19 3 37q1 3 1 8l-1 4q-5 -8 -13 -24l-12 -21q-4 -6 -9 -14.5t-11 -17.5q-3 -4 -17 -21q-12 -15 -37 -15q-16 0 -29.5 7t-21.5 20q-15 29 -15 62q0 35 15 78
q22 63 57 103q23 27 44 36t42 9q31 0 56 -21l3 -3l3 -2q2 3 4 9q27 67 79 203l21 56l16 36l4 1q15 -3 20 -7t5 -14q0 -8 -1 -14q-9 -53 -37 -130l-72 -212q-15 -42 -34 -103l-6 -20q-9 -28 -9 -59q0 -5 4 -17q2 -6 8 -6q15 0 32 17q30 26 55 71q31 57 37 67q3 4 21 25
q1 1 8 3zM283 507q2 0 3 -1q3 12 7 19q-1 1 -3 1q-5 -15 -7 -19zM167.5 65q0.5 6 2.5 14q5 21 7 28q7 35 14 56l26 76q18 50 35 102l23 65q19 51 32 89l2 10h-2l-14 -38q-56 -158 -83 -237q-14 -39 -38 -119q-7 -25 -7 -55l2 -1q0 4 0.5 10zM257 438q-1 -3 -1 -8l2 2l23 59
l-1 5l-3 -6zM230 331.5q-2 -7.5 -2 -9.5q8 11 9 23l3 5l51 137l1 6q-3 -1 -3 -4q-8 -19 -34 -91l-9 -24q-3 -9 -5 -16.5t-4 -12.5q-5 -6 -7 -13.5zM237.5 379.5q2.5 5.5 5.5 12.5l11 33q-12 -20 -21 -55q2 4 4.5 9.5zM232 368q-1 -4 -3 -8t-4 -10q7 7 7 18zM221 333l4 16
q-7 -7 -4 -16zM121 139q14 26 22 38q11 18 19 37.5t18 49.5q1 3 1 7q0 6 -5 13q-4 6 -7 9q-12 12 -22 12q-6 0 -18 -5q-27 -14 -48 -48q-26 -43 -42 -94q-15 -47 -15 -86q0 -29 10 -45q15 7 25 20l15 21q5 7 14.5 19.5t15.5 22.5zM20 146l5 18q4 12 7 18q4 12 7 17q3 8 8 17
l3.5 7t1.5 9q-43 -73 -43 -141l3 18q2 6 4 18zM-3 112l17 66q-16 -33 -17 -66zM-2 169q-7 -11 -12 -32.5t-3 -32.5zM149 105l6 30q-1 -3 -5 -12t-1 -18q-6 -7 -6 -16q0 -4 1 -7.5t1 -8.5zM160 100h-3l-3 -24h3z" />
    <glyph glyph-name="e" unicode="e" horiz-adv-x="228" 
d="M248 179l-2 -8q-4 -7 -10.5 -18.5t-16.5 -26.5q-33 -52 -62 -77l-35 -27q-23 -13 -45 -13q-41 0 -79 30q-28 22 -28 64q0 28 11 56q23 61 68 115q2 2 14 16t25 23q23 15 44 15q14 0 25 -5q14 -5 25 -20q6 -9 6 -19q0 -6 -1 -10.5t-2 -7.5q-5 -23 -16 -40q-35 -54 -77 -76
q-25 -12 -53 -9q-4 -8 -5 -12q-11 -31 -11 -61q0 -19 11.5 -30t30.5 -12q21 0 40 11q40 22 76 68l44 62q2 2 3.5 4.5t4.5 4.5q1 1 2.5 0.5t2.5 0.5q0 -1 -1 -1l2 -2h4zM125.5 291q-8.5 -9 -19.5 -24q-35 -53 -51 -89l-12 -24q11 0 25 5.5t25 12.5q33 24 57 63q6 13 13 31
q3 8 3 15q0 10 -3 17q-3 9 -9 9l-8 -2q-12 -5 -20.5 -14zM43.5 200.5q-18.5 -33.5 -17.5 -43.5h1l51 94q-1 -1 11 14q-1 0 -3 2l-9 -15q-15 -18 -33.5 -51.5zM7 146l15 33l10 22l-2 1q-17 -29 -25 -55zM12 191l-2 1q-16 -29 -20 -53zM239 177h-1h1zM20 147q-6 -11 -10 -36
q13 26 10 36z" />
    <glyph glyph-name="f" unicode="f" horiz-adv-x="148" 
d="M198 577q-3 -41 -26 -103q-21 -58 -40 -107q-5 -12 -9 -23.5t-8 -20.5q-22 -58 -68 -174q-2 -4 -5 -13.5t-7 -15.5q-4 -8 -4 -18q0 -14 6 -26q4 -7 11 -7q20 0 40 17q26 21 53 56q3 5 11 15q3 -3 6 -3t7 3t7 4q-8 -19 -30 -49l-21 -28q-11 -16 -34 -30q-11 -8 -23 -8
q-8 0 -12 2q-5 0 -8 1v-8q3 -13 3 -26q0 -20 -5 -43q-19 -94 -53 -192q-18 -47 -41 -81q-8 -11 -16 -19q-18 -19 -40 -19q-13 0 -25 6q-17 7 -23 26q-5 19 -4 34q7 66 30 131q25 70 56.5 150t40.5 101q7 16 12.5 30t10.5 26q9 22 25 66q9 22 19 48t22 56q28 69 86 207
q7 18 16 43q1 2 3 8t2 11q0 8 -6 15q3 1 8 1q10 0 16 -6q20 -15 17 -37zM12.5 189q-7.5 -21 -7.5 -27l9 20l13 38l5 10l12 32q5 12 12 31t18 44l60 148q3 6 7 18q-5 -3 -6 -6l-105 -261q-2 -5 -4 -15q-6 -11 -13.5 -32zM92.5 305q68.5 174 72.5 196q-17 -45 -53 -133
q-66 -162 -95 -245q7 8 75.5 182zM133 457l-28 -71l-72 -181q-5 -11 -7.5 -19.5t-4.5 -13.5q-2 -4 -3.5 -7.5t0.5 -8.5l4 15l8 16l22 59q58 144 86 216l3 9q-4 -4 -8 -14zM-30 13l-2 -7q2 0 2 2l30 69q1 1 0.5 3l-0.5 2q-4 -2 -4 -5zM20 39q0 13 -6 29l-7 -13
q-21 -53 -65 -159q-42 -107 -55 -177q-2 -12 -2 -17q0 -9 5 -24q3 3 8 7.5t8 8.5q16 21 25 38q18 36 33 75q27 70 46 154q8 37 10 78zM-125 -280q9 59 28 112l2 10q1 1 2 2.5t1 3.5q20 50 58 150l2 7q-4 -3 -5 -8l-12 -32q-30 -76 -44 -114q-2 -3 -2 -9l-6 -10
q-18 -51 -27 -105v-11q1 1 3 4zM-140 -227l-2 2q-7 -32 -6 -53q6 34 8 51zM-128 -226l-2 1q-4 -18 -10 -54h2q5 21 10 53z" />
    <glyph glyph-name="g" unicode="g" horiz-adv-x="299" 
d="M-47 -320q-16 0 -28 4q-35 10 -35 49q0 34 25 75t83 103q31 31 89 76q6 4 18 14q9 8 12 17l45 149q0 5 -2 8l-21 -36q-3 -5 -19 -34q-18 -32 -28 -48q-12 -20 -29 -35q-14 -14 -34 -14q-12 0 -23 6q-33 17 -37 51q-2 14 -2 20q0 14 3 27q15 75 69 147q27 36 59 60
q28 19 53 19q30 0 46 -28q12 -20 9 -41q0 -2 -2 -8l-15 7q1 19 -11 42q-2 5 -4.5 7t-6.5 2q-5 0 -8 -1q-17 -4 -37 -26q-47 -45 -76 -117q-19 -40 -25 -74q-6 -25 -4 -54q2 -13 9 -19l12 9q20 15 38 44q50 76 74 114q2 4 8.5 14.5t14.5 17.5q1 1 5 4.5t10 1.5q14 -5 16 -14
q1 -3 1 -9q0 -74 -16 -130l-2 -11l8 5l16 13q16 12 32 26q34 29 61 71q3 4 6 6.5t8 2.5l3 5l8 -4q-3 -5 -6.5 -11t-8.5 -14q-38 -58 -91 -99q-14 -9 -42 -33q-6 -5 -8 -12q-33 -98 -60 -161q-28 -68 -48 -99q-31 -49 -61 -71q-18 -13 -37 -13zM53 222q-15 -19 -31 -59.5
t-14 -54.5q11 47 45 114zM26 196q0 1 -2 1q-2 -5 -5.5 -12t-7.5 -16l-6 -15l3 -1zM6 179q-3 0 -4 1l-18 -51q1 -1 3 -1q12 34 19 51zM158 104l-2 2l-24 -78l2 -1q10 25 24 77zM182 104l-3 1q-14 -47 -15 -52l4 -1q5 22 14 52zM158 66q-11 -16 -8 -27q6 18 8 27zM142 -24
l12 35l-1 1l-2 1l-37 -104l2 -1q16 38 26 68zM-27 -277q36 36 66 101q12 26 34 80l20 47l6 18l-2 1l-13 -9q-68 -53 -126 -133q-25 -35 -33 -69q-4 -16 -4 -25q0 -10 5 -22q4 -12 13 -12q3 0 11 4q11 7 23 19z" />
    <glyph glyph-name="h" unicode="h" 
d="M384 210l-6 -14q-12 -28 -31 -55t-23 -33q-28 -40 -47 -72q-23 -36 -63 -36q-22 0 -40 13t-23 34q-3 14 -3 28q0 12 4 38q9 45 35 113l12 32q6 16 13.5 37t16.5 46q4 10 6.5 24t3.5 20t0.5 10.5t-0.5 8.5l-12 -6q-16 -14 -23 -23q-24 -32 -35 -48q-32 -48 -47 -73
q-9 -15 -20 -36l-10 -18l-66 -118l-30 -47q-10 -16 -23 -16q-7 0 -20 5q-14 6 -13 21q1 5 2.5 14.5t3.5 16.5l61 173q30 84 44 127q22 66 31 99q2 8 15 67l6 27q2 7 1.5 15.5t-0.5 11.5q0 19 -13 24q-1 0 -10 7q4 2 13 2q10 0 19.5 -4.5t15.5 -11.5q21 -27 21 -57
q0 -24 -6 -70q-6 -47 -19.5 -93t-34.5 -105q-9 -28 -23 -65l-17 -47q-2 -5 0 -9q4 6 5 10q12 22 14 26q22 40 35 59q33 55 80 126q7 10 28 27q10 7 22 7q14 0 27 -8q13 -10 18 -24t5 -34q0 -38 -13 -80q-17 -48 -22 -61l-22 -62q-18 -53 -24 -89q-1 -5 -1 -15q0 -14 4 -23
q3 -10 8 -10q4 0 10 3q16 9 27 26l72 98l36 49q9 13 25 18zM24 155q37 97 49 134q12 33 32 101l11 37l2 8q-25 -79 -83 -235l-46 -126l3 -1q6 11 6 13q6 14 16 42zM-34 85q8 20 22 62l11 35q4 7 5 9l31 84l32 93q7 23 13 41l3 11l-2 1q-1 -2 -2 -4.5t-2 -5.5
q-13 -39 -16 -47l-12 -33q-35 -100 -44 -128q-3 -7 -7 -21l-4 -8q-10 -26 -28 -78l-5 -21q-7 -12 -9 -32q9 18 9 32q4 6 5 10zM29 213q23 63 52 151q2 4 4 16q-9 -19 -19 -46l-56 -159q-15 -39 -31 -86q-1 -3 -1 -9l4 7q32 84 47 126zM215 258q25 54 30 95zM192 84
q1 10 5 23q8 32 20.5 67t15.5 43q10 27 28 81q1 5 9 43h-2l-3 -8q-1 -4 -2.5 -12t-3.5 -13l-36 -102q-27 -74 -34 -107q-1 -4 -2 -10t-1 -15q0 -7 1 -11zM253 335l-28 -84l-2 -10l4 5q20 57 23 67q2 5 3.5 13t2.5 12q-1 0 -3 -3zM176 77q10 46 16 69q3 13 8 31q10 24 14 36
q4 8 8 26l-3 -6l-15 -40q-2 -4 -4 -16l-4 -5l-21 -76q-1 -4 -1 -11t-1 -11q3 2 3 3zM186 184l2 -1l5 12q-2 0 -2 1q-4 -8 -5 -12zM181 164q-9 -16 -15.5 -48t-4.5 -41zM-23 77q-4 -5 -6.5 -13.5t-3.5 -12.5h2q4 12 8 26z" />
    <glyph glyph-name="hbar" unicode="&#x127;" 
d="M384 210l-6 -14q-12 -28 -31 -55t-23 -33q-28 -40 -47 -72q-23 -36 -63 -36q-22 0 -40 13t-23 34q-3 14 -3 28q0 12 4 38q9 45 35 113l12 32q6 16 13.5 37t16.5 46q4 10 6.5 24t3.5 20t0.5 10.5t-0.5 8.5l-12 -6q-16 -14 -23 -23q-24 -32 -35 -48q-32 -48 -47 -73
q-9 -15 -20 -36l-10 -18l-66 -118l-30 -47q-10 -16 -23 -16q-7 0 -20 5q-14 6 -13 21q1 5 2.5 14.5t3.5 16.5l61 173q30 84 44 127q22 66 31 99l2 6h-18q-7 -1 -12 -0.5t-9 0.5q-8 2 -9 8q7 8 12 10t16 3l25 2l14 65q2 7 1.5 15.5t-0.5 11.5q0 19 -13 24q-1 0 -10 7
q4 2 13 2q10 0 19.5 -4.5t15.5 -11.5q21 -27 21 -57q0 -23 -3 -47q11 1 30 1q25 0 52 -5q10 -2 18 -8q4 -1 4 -4.5t-3 -5.5q-8 -5 -16.5 -6t-17.5 -1h-13q-5 0 -20 -0.5t-38 0.5q-6 -45 -18.5 -88t-34.5 -104q-9 -28 -23 -65l-17 -47q-2 -5 0 -9q4 6 5 10q12 22 14 26
q22 40 35 59q33 55 80 126q7 10 28 27q10 7 22 7q14 0 27 -8q13 -10 18 -24t5 -34q0 -38 -13 -80q-17 -48 -22 -61l-22 -62q-18 -53 -24 -89q-1 -5 -1 -15q0 -14 4 -23q3 -10 8 -10q4 0 10 3q16 9 27 26l72 98l36 49q9 13 25 18zM24 155q37 97 49 134q12 33 32 101l11 37
l2 8q-25 -79 -83 -235l-46 -126l3 -1q6 11 6 13q6 14 16 42zM-34 85q8 20 22 62l11 35q4 7 5 9l31 84l32 93q7 23 13 41l3 11l-2 1q-1 -2 -2 -4.5t-2 -5.5q-13 -39 -16 -47l-12 -33q-35 -100 -44 -128q-3 -7 -7 -21l-4 -8q-10 -26 -28 -78l-5 -21q-7 -12 -9 -32q9 18 9 32
q4 6 5 10zM29 213q23 63 52 151q2 4 4 16q-9 -19 -19 -46l-56 -159q-15 -39 -31 -86q-1 -3 -1 -9l4 7q32 84 47 126zM215 258q25 54 30 95zM192 84q1 10 5 23q8 32 20.5 67t15.5 43q10 27 28 81q1 5 9 43h-2l-3 -8q-1 -4 -2.5 -12t-3.5 -13l-36 -102q-27 -74 -34 -107
q-1 -4 -2 -10t-1 -15q0 -7 1 -11zM253 335l-28 -84l-2 -10l4 5q20 57 23 67q2 5 3.5 13t2.5 12q-1 0 -3 -3zM176 77q10 46 16 69q3 13 8 31q10 24 14 36q4 8 8 26l-3 -6l-15 -40q-2 -4 -4 -16l-4 -5l-21 -76q-1 -4 -1 -11t-1 -11q3 2 3 3zM186 184l2 -1l5 12q-2 0 -2 1
q-4 -8 -5 -12zM181 164q-9 -16 -15.5 -48t-4.5 -41zM-23 77q-4 -5 -6.5 -13.5t-3.5 -12.5h2q4 12 8 26z" />
    <glyph glyph-name="i" unicode="i" horiz-adv-x="187" 
d="M138 449q-13 4 -9 18q2 9 6 22t7 22l25 -5q0 -4 -1 -5q8 0 13 -1l-24 -55q-12 3 -17 4zM-2.5 32.5q-17.5 21.5 -17.5 54.5q0 40 12 76q31 104 84 202l10 14q8 9 12 9q2 0 10 -2q1 0 9 -2l-1 -12l6 9l7 -3q0 -6 -1 -9q-3 -9 -7 -22.5t-11 -31.5l-18 -48
q-5 -14 -11.5 -30.5t-13.5 -36.5q-23 -61 -31 -114q-2 -14 -2 -22q0 -10 3 -22q4 -13 11 -20q7 -5 12 -5t10 4q18 12 27 22q23 24 48 67l45 81q4 6 8.5 11.5t7.5 9.5q4 6 11 1l-3 -10q-40 -88 -64 -129q-13 -22 -33 -47q-21 -27 -53 -27q-10 0 -21 3q-28 8 -45.5 29.5z
M25 110q7 34 17.5 64.5t31.5 87.5q9 28 28 71q2 7 8 21l1 7q-4 -4 -6 -10q-11 -26 -31 -78l-9 -22q-18 -45 -27.5 -73t-15.5 -58q-1 -5 -2 -12t-1 -16t1 -13zM40 214l-2 1l-6 -12l3 -1q1 4 5 12zM19 148l12 43h-3q-19 -51 -20 -85zM16 190q-22 -48 -23 -92z" />
    <glyph glyph-name="j" unicode="j" horiz-adv-x="186" 
d="M102 387q-4 3 -4 10q0 14 5.5 32t7.5 27q1 2 2.5 3.5l3.5 3.5q4 -4 6 -8l5 5q1 -3 2 -4.5t2 -2.5l11 3l-14 -35l2 -1l15 31q6 -3 10 -4q-1 -2 -2 -5t-3 -6q-11 -18 -20 -47q-3 -8 -6 -8l-8 1q-11 2 -15 5zM205 214q3 0 11 -3l-11 -19q-16 -28 -25 -38q-62 -70 -143 -127
l-37 -24q-7 -4 -10 -14l-39 -134q-21 -69 -47 -123q-7 -16 -20 -36q-25 -38 -67 -38q-17 0 -35 6q-27 8 -37 33q-5 10 -5 21q3 63 42 119t100 107q-4 -3 41 32q5 4 7 14q19 70 25 89q25 82 67 175q4 8 12 25.5t15 30.5q7 14 16 14q8 0 13 -2q13 -5 16 -7q8 -3 5 -13l-23 -69
l-69 -190l-2 -8q2 -2 2 -3l22 16l33 24q52 42 100 93q8 9 18 22t15 20q6 7 10 7zM-6 53q10 32 16 47l75 201l2 7l-3 1l-25 -66q-56 -137 -81 -226l4 -1l4 11zM-29 31q11 36 14 47q1 3 1 9l6 9q4 10 5 15l15 45l8 19l6 15h-3l-4 -15q-8 -12 -7 -19l-3 -3l-23 -66l-19 -57z
M3 175l2 -1l4 11h-2q-3 -8 -4 -10zM-27 86l6 22l5 7l12 33q0 2 2 8l-3 1l-9 -28q-3 -7 -7 -21q-7 -13 -6 -22zM-37 52l10 32q-2 0 -3 -1q-7 -17 -7 -31zM-47 -88q17 62 16 72l-2 -5q-23 -82 -38 -142q7 13 24 75zM-56 -57q9 11 6 23zM-80 -58l-4.5 -1.5t-2.5 -1.5
q-58 -49 -93 -95q-29 -39 -41 -82q-2 -9 -3 -23t-2 -23q-1 -15 15 -31q6 -7 14 -7q7 0 12 4q5 3 9 8q16 14 33 48q31 65 53 160z" />
    <glyph glyph-name="k" unicode="k" horiz-adv-x="289" 
d="M79 79q-15 32 -15 54q0 3 -2 11q-13 -18 -21 -34q-13 -23 -15 -26q-5 -8 -39 -58l-17 3q-20 3 -20 24q1 10 5 23q18 64 47 132q36 91 72 194l33 90l25 68q4 9 8 29q2 10 2 14q0 11 -4 19q-1 1 -0.5 2.5t0.5 2.5h3q14 0 22 -10q16 -17 16 -45q0 -30 -15 -79
q-32 -98 -60 -175q-16 -45 -52 -133l-5 -14l3 -1q2 0 3.5 2.5t2.5 3.5q12 18 25 40l16 25l62 91q12 16 27 30q9 8 27 16q8 2 12 2q12 0 21 -7.5t13 -20.5q1 -7 1 -22q-2 -24 -19 -55q-22 -39 -53 -74q-25 -28 -65 -42l-21 -8v-6q9 -33 16.5 -54.5t20.5 -41.5q1 -1 1.5 -2
l1.5 -3q7 -7 13 -11.5t12 -4.5q8 0 22 8q21 12 38 28.5t36 41.5q20 26 29 39q3 4 7 7.5t10 2.5l-2 -8q-7 -9 -13 -22l-19 -29q-18 -24 -40 -46q-14 -15 -28 -24q-19 -12 -38 -12q-17 0 -35 9q-38 16 -55 56zM113 389h-2q-3 -9 -4 -11q2 0 3 -1zM-3 80q16 42 20 53t9 24.5
t11 28.5l8 19q43 109 56 146l3 12l-2 1q-19 -53 -52 -134q-7 -18 -27 -68.5t-34 -93.5l3 -1q3 7 5 13zM150 228q32 37 58 79q9 17 19 40q1 1 5 17q-18 -1 -30 -12q-18 -16 -27 -29q-42 -61 -88 -133q-1 -1 -1.5 -2.5l-1.5 -4.5q42 17 66 45zM-36 55l12 45l14 40l3 4l64 164
q2 5 7 22q-4 -2 -5 -6l-48 -125q-8 -19 -22 -59q-2 -6 -14 -40q-10 -23 -14 -45h3zM4 142l4 8l42 104l24 64q-2 0 -3 -1.5l-1 -1.5l-51 -128q-3 -7 -16 -44q-7 -14 -15 -42q12 23 16 41zM222 308.5q1 2.5 2 4.5l-2 1l-4 -9l2 -2q1 3 2 5.5zM241 305l-40 -65q30 33 40 65z
M-22 66l-2 1l-5 -17l3 -1z" />
    <glyph glyph-name="l" unicode="l" horiz-adv-x="150" 
d="M-20 92q0 29 9 58q56 182 85 273q9 29 29 87l13 37q13 38 15 64q0 4 2 12l6 1q11 0 18 -9q10 -11 12 -33q3 -36 -8 -75q-6 -22 -20 -66l-10 -33l-64 -196l-27 -76q-14 -37 -14 -66q0 -9 3 -17q3 -12 12 -12l8 2q22 8 39 30q3 4 29 37q8 11 14.5 21t11.5 17q1 2 4 3.5
t4 2.5l4 -2l-12 -26q-18 -36 -29 -53q-16 -28 -44 -40q-15 -6 -30 -6q-14 0 -29 6q-31 13 -31 59zM13 83q8 38 14 57q4 14 27 83l12 35q20 63 62 189l6 19l8 25q-1 1 -3 1l-7 -23l-12 -33q-35 -100 -44 -128q-32 -100 -47 -151q-9 -25 -15 -51q-2 -8 -2 -24zM112 489
q-51 -135 -91 -280q39 115 91 280zM111 444q-8 -12 -43.5 -120t-34.5 -119zM-2 134q-3 -7 -5 -15t0 -15q4 20 5 30zM3 92l3 22q-2 0 -3 1l-2 -23h2z" />
    <glyph glyph-name="m" unicode="m" horiz-adv-x="439" 
d="M452 182q3 1 7 -2l-6 -13q-38 -64 -58 -96q-18 -29 -42 -46q-16 -12 -36 -12q-22 0 -35.5 14t-14.5 37q0 23 9 55q6 27 18 55t14 34q14 35 44 105q3 8 6.5 20t5.5 19q0 -1 2 13l-9 -4q-21 -13 -41 -43q-20 -29 -35 -56l-51 -85l-39 -67q-7 -11 -27 -41q-9 -12 -25 -12
q-12 0 -20 7q-4 4 -6 12t-2 13q0 8 1 14t2 10q8 40 28 85l18 43q4 11 14 33t16 40q5 13 10 29q2 4 7 19q1 2 1 5.5t2 8.5q-2 -2 -4.5 -3t-3.5 -3l-34 -48q-26 -40 -57 -106l-18 -35q-9 -17 -19 -40q-20 -42 -31 -62q-7 -15 -19 -31.5t-15 -20.5q-5 -8 -16 -8q-5 0 -15 2
q-15 3 -17 21q-1 4 -1 13q0 15 4 27q10 42 18 62q19 57 50 130q2 8 8 22q1 3 10 21l30 -12q-15 -65 -48 -169l-18 -57q4 4 5 6l78 147q45 85 84 141q5 6 9.5 11t8.5 9q8 8 18 8q11 0 18 -8q12 -11 12 -37q0 -17 -4 -32q-5 -25 -14 -48.5t-24 -58.5l-37 -92q-1 -3 -1 -10
q8 10 8 11l87 147q4 7 20.5 33t34.5 46q15 17 37 30q8 5 16 5q12 0 21.5 -7.5t10.5 -19.5q1 -5 1 -15q0 -21 -8 -42q-11 -32 -26 -70l-13 -35l-40 -99q-10 -28 -10 -45q0 -9 1.5 -15t7.5 -11q8 2 22 12q21 18 49 57l45 65l16 17q2 2 5 3zM165 153l52 128q13 33 15 56l-1 -3
q-9 -31 -33 -89l-9 -22q-20 -47 -31 -76t-19 -61q0 -4 -1 -7q5 6 7 16zM346 214l3 -1l10 25q24 58 30 96l-9 -31l-30 -78zM199 307l2 -1q2 4 7 19l-2 1zM56 254l-2 1q-17 -50 -22 -64q-4 -11 -19 -56.5t-24 -87.5zM25 236q1 -1 3 -1l2 6t2 7h-2q-1 -4 -5 -12zM33 225
q-4 -8 -5 -13h2l5 12zM8 183l5 9q2 10 4 14l7 17q-2 0 -3 1q-4 -13 -5 -17q-6 -9 -8 -24zM328 171l2 -2l9 23l-2 1zM18 186l-16 -48q1 -1 3 -1l16 48zM127 115l13 45q3 5 7 15q-7 -6 -7 -15q-11 -19 -14 -44q-5 -7 -2 -17zM-10 137l3 -1l12 35l-3 1zM150 153
q-6 -8 -8.5 -17.5t-3.5 -13.5q0 -1 2 -1l10 32q4 5 6 15q-1 1 -3 1zM315 136q-18 -39 -19 -69zM-10 93q1 3 4.5 13t2.5 19l-9 -31q0 -1 2 -1zM-12 124q-13 -25 -15 -55z" />
    <glyph glyph-name="n" unicode="n" horiz-adv-x="310" 
d="M330 188l-8 -23q-2 -6 -9.5 -28t-16.5 -39t-29 -49q-18 -29 -41 -39q-10 -5 -26 -5q-21 0 -38.5 11t-24.5 30q-6 14 -6 45q1 40 22 94l69 172q6 17 9 33q2 2 1.5 6t-0.5 6q-2 1 -5 1t-7 -4q-3 -3 -10.5 -9t-12.5 -13q-20 -27 -33 -50q-36 -62 -73 -147q-36 -85 -61 -133
q-8 -14 -13 -20q-9 -13 -25 -13q-15 0 -24 12q-8 13 -8 25q0 17 10 49l15 44l19 59l33 106q3 8 4 14t2 10l3 6l24 -9q8 -3 8 -14q1 -21 -6 -52l-30 -120q-2 -6 -6 -18.5t-5 -23.5q4 6 5 10l66 135q25 51 46 91q21 39 49 67q15 13 32 13q21 0 36 -18q7 -10 7 -30
q0 -16 -7 -37q-24 -68 -37 -102q-19 -51 -37 -95q-15 -39 -12 -82q0 -12 5 -24q2 -7 5.5 -8.5t11.5 0.5q14 4 31 21q31 33 52 81l18 41q6 14 16 17zM168 101q6 29 28 85l7 19l49 128q2 6 7 25q-2 0 -3 1l-3 -10l-24 -67l-51 -132q-12 -28 -12 -60q0 3 2 11zM242 352l-14 -40
l2 -1l15 40zM225 337q2 0 2 -1l6 13l-2 1zM36 175q3 10 6.5 25t5.5 24q8 21 13 48q-12 -30 -14 -48l-3 -8l-31 -101q-14 -44 -20 -67q-1 -2 -1 -7q3 2 3 4q28 86 41 130zM29 243q6 9 6 20h-2zM188.5 245q-3.5 -10 -3.5 -17l12 32h-2q-3 -5 -6.5 -15zM200 241l2 -1l7 18
q-2 0 -3 1zM160 124l12 41q2 4 7 19l9 20q4 9 7 20l-3 1q-4 -14 -14 -40q-2 -6 -4 -10.5t-3 -8.5q-7 -13 -13 -41zM-24 68l30 93l7 22q4 12 6 21t3 15l-2 -2l-42 -129l-6 -24q4 1 4 4zM158 157q6 20 10 29q8 17 10 29h-2l-10 -28q-15 -33 -19 -64q7 19 11 34zM-0.5 117
q-9.5 -29 -13.5 -56q23 71 29 92q-2 0 -3 1q-3 -8 -12.5 -37z" />
    <glyph glyph-name="o" unicode="o" horiz-adv-x="251" 
d="M40 18q-21 0 -43 14q-27 19 -27 60q0 26 10 56q16 60 51 111q4 4 6 11q15 41 47 75q18 19 48 27q6 2 16 2q26 0 44 -30q13 -21 13 -59q0 -30 -15 -73q-14 -44 -34 -81l-1 -5q14 3 31 15q19 14 53 48q3 4 23 21q5 4 9 -1q-5 -12 -18 -27q-31 -36 -64 -58q-22 -13 -39 -13
q-5 0 -9 -7q-5 -6 -18 -25t-27 -31l-19 -17q-16 -13 -37 -13zM131 135q24 43 39 88q5 15 13 45q3 14 3 26q0 17 -4 32q-4 16 -15 31q-6 7 -15 4q-19 -9 -27 -20q-18 -22 -31 -53q-2 -6 -2 -9q0 -5 5 -9q-5 -6 -9.5 -12.5t-4.5 -13.5l-3 -46q0 -30 18 -56q12 -13 27 -16z
M12 190l9 25q-30 -54 -36 -103zM10 145l21 60h-3q-22 -49 -25 -80zM13 98q10 37 13 47q2 6 4.5 14t5.5 17q3 6 -2 9q-22 -56 -24 -96zM64 53q11 9 20 19q16 16 34 42q-42 11 -69 48q-3 -4 -3 -6q-17 -43 -22 -81v-8q0 -14 1 -21q2 -9 8 -9l8 2q12 5 23 14z" />
    <glyph glyph-name="p" unicode="p" horiz-adv-x="372" 
d="M402 213q-2 -3 -4 -8t-4 -7q-4 -5 -20.5 -25t-35.5 -32q-31 -19 -47.5 -28t-38.5 -13q-19 -4 -39 -6q-13 -1 -20 -11q-23 -27 -55 -47q-18 -12 -43 -12t-42 8q-18 8 -26 26l-6 -8q-25 -44 -59 -128q-9 -25 -16.5 -44t-13.5 -33l-18 -45q-10 -24 -16 -36q-4 -10 -7 -11.5
t-13 0.5l-11 3q-7 2 -7 9q0 20 5 45q11 40 27 82l81 213l32 82l42 111q12 31 16 56l2 4q28 -4 28 -33q0 -21 -5 -46q-8 -28 -20 -64l-6 -21q-3 -10 -14 -44l-1 -7l2 -1l6 10l24 40q24 44 38 65q19 30 48 64q20 25 49 25q24 0 40 -17.5t16 -44.5q0 -31 -14 -75
q-14 -41 -37 -85l-4 -9h9q69 8 128 64q7 6 12.5 12.5t12.5 12.5q4 4 8.5 7.5t9.5 3.5q1 0 7 -2zM215 257q6 16 12 52q1 6 0.5 10t-0.5 7q-2 6 -9 5q-24 -5 -35 -18q-30 -34 -42 -53q-8 -12 -60 -98l-16 -27q-2 -4 -4 -10l92 -8l6 10q31 56 56 130zM220.5 227q6.5 18 7.5 33
l-10 -29l-11 -30q7 8 13.5 26zM215 151q2 2 2 3q27 54 35 89l1 11l-11 -28q-5 -16 -10 -29q-12 -30 -19 -45l-12 -24q9 8 14 23zM235 242l-17 -45l3 -1q9 17 16 45zM18 181q-2 0 -3 1q-2 -6 -5.5 -14.5t-4.5 -15.5l-9 -26q-4 -6 -5 -9l-23 -60q-18 -46 -32 -85
q-6 -13 -9 -23t-6 -17q-5 -7 -4 -17l5 16q14 33 17 41q26 66 55 143l3 10l9 26zM44 180h-3q-5 -11 -19 -52v-5h3q12 38 19 57zM17 143h-3l-3 -15q5 6 6 15zM-11 65q11 27 21 61q-5 -7 -5 -8l-12 -33l-59 -150l-3 -10l2 -1q4 8 5 12zM136 94l-1 3l-23 2q-9 1 -21.5 3t-29.5 3
h-3q-13 0 -13 -10l2 -9q7 -16 13 -28t15 -12q5 0 13 5q15 9 31 24q7 5 17 19zM16 102l-3 1q-11 -32 -26 -70q14 14 27 61zM-74 -93l-2 1l-5 -12q1 -1 3 -1zM-106 -141l7 16q-2 0 -3 1l-5 -17q-10 -16 -7 -28zM-88 -128l-2 1l-15 -38l3 -1z" />
    <glyph glyph-name="q" unicode="q" horiz-adv-x="355" 
d="M20.5 -348q-9.5 10 -10.5 29q0 23 4 42q9 44 41 130l65 174q1 2 1 4.5t2 6.5q-6 -5 -7 -6q-5 -3 -9.5 -8t-11.5 -9q-7 -5 -15 -7q-6 -1 -19 -1q-35 0 -57 21q-24 21 -24 61q0 18 7 44q15 59 42 114q34 66 90 101q20 13 44 13q20 0 37.5 -10.5t30.5 -30.5q5 -6 7 -12
l11 16h4q5 0 11 -2t11 -1l-3 -17l-4 -8l-96 -242q-1 -3 -2 -6.5t-3 -7.5q5 3 6 7q26 62 38 94q23 55 38 98l16 42l7 22l8 14q1 -1 3.5 -1.5t5.5 -1.5q-9 -33 -40 -117l-8 -20l-38 -97l-15 -39q4 0 12 2q23 7 48 25q46 34 88 85q14 16 27 38.5t17 29.5h15q0 -6 -1 -8
q-20 -60 -75 -119q-23 -25 -42 -40q-37 -31 -88 -36q-14 -2 -14 -9l2 -8l7 -27q4 -15 2 -36q-1 -8 -1 -23q0 -5 -0.5 -12.5t-2.5 -17.5q-12 -91 -42 -156q-17 -38 -44 -66q-19 -21 -49 -21q-17 0 -26.5 10zM70 31l25 23q21 25 41 60l18 31q12 19 25 43q8 13 15 31l18 35
q9 15 9 31q0 5 -2 15q-7 25 -26 36q-6 2 -10 2q-11 0 -21 -8q-42 -36 -65 -86q-14 -28 -24.5 -57.5t-24.5 -74.5q-9 -29 -8 -51v-6q0 -14 6 -22q4 -6 7 -7t10 1zM50 169q9 27 23 62l10 26v1l-5 -7q-4 -9 -10.5 -22.5t-13.5 -31.5q-26 -63 -31 -100q-1 -6 -1 -17q18 60 28 89
zM48 219q-11 -17 -25 -61.5t-14 -62.5zM13 159l8 29q-10 -15 -19 -49t-7 -43zM150 -9q1 3 1 7q-5 -12 -5 -13q3 3 4 6zM65 -330q26 27 44 70q21 48 37 119q11 44 12 90q0 6 -1 9l-9 -15l-36 -87l-11 -26q-30 -72 -45 -133q-3 -11 -3 -21t2 -15zM178 -65h-1v-10l0.5 -0.5
l0.5 -0.5v11zM41 -320q2 9 4 27h-2l-5 -27h3zM21 -316v13h-1v-13h1z" />
    <glyph glyph-name="r" unicode="r" horiz-adv-x="235" 
d="M43 -37q-7 20 -7 43q0 26 7 52t20 57l18 41l17 40q7 15 11 26.5t7 18.5q1 2 1 8l-34 12q-11 3 -26 8q-14 -29 -27 -45q-5 -8 -9.5 -6.5t-2.5 6.5q6 24 20 59q-13 10 -14 11q-24 20 -24 58q0 40 30 75q10 13 26 13q11 0 21 -7t14 -20q4 -9 4 -23q0 -11 -3 -22
q-3 -15 -9 -33.5t-8 -26.5q-1 -5 -5 -15q15 -11 39 -18q20 -4 28 -8q2 -1 16 -9q11 -8 11 -23q0 -8 -2 -12q-6 -22 -15 -45l-49 -119q-18 -43 -14 -88l1 -6l2 -1q9 9 12 13l44 67l81 120q6 8 21 26q4 6 10 1q-6 -11 -11 -20.5t-9 -17.5l-23 -41l-36 -63q-9 -16 -17 -28
t-13 -20l-22 -35l-10 -12q-10 -13 -32 -13q-13 0 -25 5q-9 5 -14 17zM53 318q16 42 20 53q6 21 5 38q0 12 -8 17q-12 -9 -20 -33t-8 -47t9 -32q2 2 2 4zM72 12q2 24 15 58l42 101l20 51v5q-2 -1 -4 -5l-21 -51l-45 -113q-11 -26 -9 -55q2 6 2 9zM121 213.5q2 5.5 1 10.5
l-7 -17l3 -1q1 2 3 7.5zM136 222q-2 0 -3 1l-8 -23l2 -1zM63 36q1 4 5 17q-1 1 -3 1l-4 -18h2zM54 48q-8 -13 -6 -34z" />
    <glyph glyph-name="s" unicode="s" horiz-adv-x="278" 
d="M23 28q-20 17 -38 54q-8 18 -14 56l-1 6q0 5 2.5 6.5t9.5 1.5q12 1 20.5 0.5t14.5 -0.5q68 -6 98 -8q8 -1 13.5 -0.5t10.5 0.5q0 2 0.5 3.5t-0.5 3.5q-7 29 -27 44q-5 4 -20.5 15t-26.5 23l-12 12l-12 -16q-6 -8 -27 -32q-1 -1 -4 -1q-4 0 -7.5 1t-2.5 2l20 30l22 33
q2 4 4 10q1 3 2.5 9.5t3.5 10.5q11 25 40 46q10 7 20 7q6 0 13 -3q3 -1 6.5 -2t6.5 -2q9 -1 15 -11l-2 -3q-19 -5 -29 -18t-20 -37q-2 -4 -2 -6q0 -4 1 -7t2 -5q5 -14 11 -24q2 -4 10 -10q32 -25 48 -53l7 -14q10 -1 21.5 2t13.5 4q12 4 36 14q13 5 29 19q6 6 9 6l10 -4
q-20 -30 -50 -41q-17 -7 -44 -14l-20 -6l1 -11q1 -6 1 -19q0 -28 -10 -52q-20 -46 -69 -47q-52 0 -84 27zM124 54q13 20 16 47l3 25l-17 1l-27 2l-86 7q-3 1 -6 0.5t-5 -0.5q0 -4 1 -5q8 -29 26 -62q10 -21 25 -35q10 -10 25 -10q9 0 13 2q19 7 32 28zM170 82l-9 -29
q2 0 2 -1q7 11 7 30z" />
    <glyph glyph-name="t" unicode="t" horiz-adv-x="175" 
d="M-18 43q-2 18 -2 26q0 32 11 70q32 126 72 222l3 8h-29q-17 0 -26 1q-2 0 -6.5 2t-7.5 3q4 5 10 6t7 1q8 1 19 2t26 1q8 0 12 2.5t7 9.5l19 43l11 25q2 6 4 9q2 5 5.5 9t8.5 4q13 0 23 -10q3 -3 2.5 -7t-0.5 -6q-4 -26 -16 -65l-4 -12q4 -1 12 -1q18 0 26 -1q9 0 14 -8
q-10 -3 -21 -4t-15 -1q-8 0 -22 -2l-4 -8l-17 -46q-32 -84 -49 -143l-6 -21q-15 -44 -17 -74q-2 -17 -2 -52l1 -7q5 -14 14 -14l9 2q30 12 48 42q4 6 28 46l21 37q20 32 31 48q1 1 4 4.5t8 1.5q1 -1 1 -3q-34 -81 -75 -145q-10 -15 -27 -29q-22 -18 -49 -18q-11 0 -28 5
q-31 10 -34 47zM116 388q18 43 23 77q-21 -60 -26 -77h3zM126 453l-2 1q-3 -7 -16 -44l2 -2q6 15 16 45zM17 51q1 9 2 26.5t4 29.5q7 29 23 85q20 67 57 159q2 4 3 8.5t2 8.5l-3 1l-3 -6q-17 -44 -34 -91t-28 -86q-16 -58 -23 -87q-3 -16 -3 -32q0 -15 1 -22zM94 367
q-1 1 -3 1l-9 -23q1 -1 3 -1zM77.5 357.5q1.5 3.5 0.5 9.5l-8 -19q6 6 7.5 9.5zM25 213q4 10 5 15q0 1 -2 1q0 -2 -5 -16h2zM42 226h-2q-2 -4 -3 -7.5t-2 -6.5l2 -1zM-2 109q-9 -24 -6 -48zM9 108q-9 -24 -6 -50z" />
    <glyph glyph-name="u" unicode="u" horiz-adv-x="262" 
d="M-40 57q0 21 12 59q7 17 11 31q24 60 42 115q3 7 4 12.5t2 8.5q1 2 1 5q0 6 -7 9l-8 6q3 1 5.5 2t5.5 1q19 0 32 -12t13 -34q0 -25 -8 -52q-14 -43 -19 -55q-4 -11 -9 -25t-10 -30q-9 -22 -15 -47l-2 -9q0 -4 5 -16q8 0 14 8q26 31 30 37q16 25 46 89l16 33q9 19 17 34
t14 27l21 39q3 4 5.5 6.5t6.5 2.5q10 0 17 -6.5t7 -16.5q0 -12 -2 -27.5t-3 -22.5q-6 -28 -26 -92l-23 -83l-3 -13q-2 -6 -2 -11q0 -12 7 -14h1q5 0 11 4q27 18 48 55q9 15 25 45q3 6 7.5 13.5t9.5 15.5l9 9q5 -3 4 -6.5t-1 -4.5q-2 -4 -4.5 -9.5t-5.5 -12.5l-33 -69
q-13 -23 -43 -46q-10 -7 -28 -7q-21 0 -34 10q-5 5 -9 12q-8 15 -8 32q0 12 3 24q10 45 27 91q7 15 8 29l-12 -25q-27 -62 -49 -109q-7 -15 -27 -41q-17 -18 -40 -18q-6 0 -18 2q-38 9 -38 47zM38 263l-7 -19q-10 -25 -14 -46q16 37 21 65zM140 42q6 35 28 108l25 81l6 30
q-3 -3 -5 -9l-23 -82l-30 -103q0 -2 -2.5 -11t-0.5 -19zM-1 56q3 17 15 51q3 6 4.5 12t3.5 11q11 29 31 89q2 6 4 15.5t4 15.5h-2l-48 -141q-4 -10 -8 -24t-7 -22q-2 -7 0 -11q3 3 3 4zM36 210.5q9 27.5 8 36.5l-9 -27l-17 -51q9 14 18 41.5zM-10 80q-8 -9 -5 -21zM-24 72v5
q-3 -4 -4.5 -9t1.5 -10zM129 51l1 11h-1q-2 -6 -2 -11h2z" />
    <glyph glyph-name="v" unicode="v" horiz-adv-x="297" 
d="M-20 22q0 27 3 54q5 41 23 121l12 57q1 7 2 17.5t1 16.5q0 1 0.5 2t-0.5 3q0 13 -12 17l-5 2q1 5 4.5 6.5t6 2t3.5 0.5q21 2 36 -12.5t17 -34.5q1 -6 1 -19q0 -18 -1 -27q-5 -42 -19 -100q-9 -40 -11 -52q-2 -9 -4.5 -22.5t-4.5 -31.5l-2 -22q2 2 4.5 3t3.5 3
q34 44 39 52q29 45 59 127q3 7 4 19t3 20q5 24 11 37q6 15 14 15q4 0 16 -5q-2 -16 -2 -25q0 -54 1 -81q0 -10 6 -24q7 -18 22 -18q8 0 12 2q16 6 27 16q8 6 42 38q6 6 12 10.5l10 7.5q1 0 3 -2l-8 -16t-16 -19q-39 -33 -41 -35q-20 -14 -44 -14q-23 0 -43 14q-4 3 -10 9.5
t-11 11.5q0 -2 -5 -11q-21 -55 -44 -94q-25 -37 -35 -48q-12 -16 -36 -16q-13 0 -24 6q-20 13 -20 39zM0 82l30 152l3 24q-5 -11 -6 -20l-6 -28q-20 -96 -27 -140q-2 -12 -4 -38l2 -1zM19 27q8 54 14 81l22 117q1 5 2 13t1 12q-2 -3 -4 -9l-9 -46l-25 -127q-6 -34 -4 -52z
M43 238h-3q-7 -37 -13 -62q-2 -9 -11.5 -55t-12.5 -90zM170 195v11h-1v-11h1z" />
    <glyph glyph-name="w" unicode="w" horiz-adv-x="393" 
d="M443 246q-37 -54 -95 -54q-27 0 -52 19q-4 -12 -6.5 -21.5t-5.5 -17.5q-18 -54 -34 -98q-9 -26 -29 -44q-7 -7 -17.5 -10.5t-22.5 -3.5q-18 0 -30 9q-8 5 -11 14q-4 9 -8 33q0 2 -1 6t-3 8l-4 -7q-15 -39 -48 -96q-4 -7 -10.5 -15t-10.5 -12q-4 -5 -12.5 -8t-18.5 -3
q-16 0 -22 5q-13 9 -17 27q-7 33 -4 59q13 148 83 317q4 10 19 38l24 -5q-2 -6 -3.5 -13t-3.5 -13q-26 -80 -38 -121q-31 -103 -44 -174q-4 -30 -4 -46q0 -10 2 -30l1 7q-1 61 21 138q9 34 22.5 78.5t19.5 66.5l24 82l6 22q8 -2 8 -8l-2 -15l-33 -117l-39 -142
q-15 -58 -15 -108q1 -5 1 -16q1 -1 2 -5l8 9q29 43 48 83q34 72 74 191q3 9 6.5 22t5.5 19q6 2 9 2h3q9 0 12.5 -4t2.5 -13q-8 -96 -19 -144q-9 -39 -6 -79q1 -9 3 -15t8 -11q16 13 24 27q16 27 20 38q8 18 17 41.5t13 35.5l12 33q2 6 4 14q2 6 2 9t-2 11q-3 7 -5 25
q0 7 9 11q2 1 7 1q12 0 20 -12q17 -28 30 -46q8 -14 21 -14q8 0 16 4q24 8 46 30q11 11 22 6zM72 314l-6 -21q4 3 6 10t3 10q-1 1 -3 1zM40 209h3l6 22q4 12 10 38q8 14 7 23l-7 -23l-14 -42zM40 253h2q3 6 4.5 12t3.5 11l-3 1q-4 -16 -7 -24zM165 94q0 12 1 20l16 88
q2 12 4 32h-2l-5 -29l-16 -89q-2 -16 -2 -24q0 -14 3 -29v11q1 8 1 20zM5 124h2l8 30h-2zM143 109h-2v-40h2v40zM152 101h-1v-27h1v27zM0 88q-11 -41 -8 -80zM11 86q-8 -29 -8 -55q0 -14 1 -21z" />
    <glyph glyph-name="x" unicode="x" horiz-adv-x="277" 
d="M114 8q-18 43 -30 103l-5 30l-3 8q-19 -14 -27 -32q-16 -35 -25 -59t-13 -49q-1 -2 -2 -5.5t-2 -8.5h-27q1 4 0.5 7t0.5 6q9 65 46 117q10 15 37 35q10 7 8 19q-8 50 -19 131q-4 20 -7 30q-7 22 -23 30q-3 1 -4.5 2.5l-3.5 3.5q10 4 12 4q18 1 37 -10q38 -24 47 -66
l14 -76q0 -1 2 -7q5 3 11 12q34 52 45 103q4 17 16 86q1 6 0.5 14.5t-0.5 13.5q0 17 -16 27l-6 2q7 4 13 4q3 0 9 -2q26 -13 30 -37q2 -14 2 -22q0 -22 -7 -54q-12 -60 -45 -109q-16 -24 -42 -53q-8 -10 -7 -21l11 -93q3 -37 18 -81q4 -11 9 -19q4 -7 11 -7q4 0 9 3
q9 5 17 14q11 12 18 27q22 42 38 111l15 53q1 3 5 9l9 18l4 7l3 -1q0 -1 0.5 -4.5t-0.5 -6.5q-12 -62 -20 -93q-17 -69 -44 -115q-22 -36 -62 -36q-41 0 -57 37zM99.5 139q-5.5 40 -11.5 78l-10 65l-2 -1l30 -215q-1 33 -6.5 73zM107 228q0 4 -2 18q-1 -1 -3 -1q2 -6 4 -18
l2 -14q2 -9 3 -10q0 17 -4 25zM109 158l-7 50l-4 -1q6 -30 8 -50q2 0 3 1zM121 155l-6 36h-3l6 -37zM115 112l-3 32q-1 -4 -1 -11q0 -6 2 -22q2 0 2 1zM127 99q0 24 -7 42l6 -56q1 5 1 14z" />
    <glyph glyph-name="y" unicode="y" horiz-adv-x="319" 
d="M349 224q-1 -4 -5 -17q-12 -28 -23 -47.5t-25 -35.5q-33 -37 -60 -63t-58 -46q-5 -3 -7 -11l-12 -38q-16 -54 -45 -105q-17 -30 -38 -65q-18 -33 -56 -62q-22 -16 -59 -21l-14 -1q-20 0 -42 8q-16 6 -23 20q-12 22 -12 45q0 19 10 41q19 41 63 77q27 22 78 46l37 19
l57 30q10 6 13 15l14 46l45 153l2 10l-5 -6l-34 -68l-9 -18q-6 -15 -15 -31q-11 -22 -27 -46q-7 -10 -19 -20q-10 -9 -27 -9q-11 0 -22 4q-23 7 -35 23.5t-12 40.5q0 43 16 89q12 38 38 114l19 57l6 11l14 -6q3 1 6 4v-8l-11 -39q-14 -52 -22 -78q-2 -8 -11 -35l-14 -47
q-8 -27 -10 -58q3 5 3 10q5 33 21 82q3 10 8 23q3 9 14.5 46.5t18.5 71.5q1 3 3 10.5t0 13.5l7 2q3 0 3.5 -2t-0.5 -6q-1 -10 -8 -43q-8 -40 -27 -95l-8 -23q-16 -53 -22 -91l-1 -16q0 -8 3 -19q5 -12 8 -15q3 -4 6 -4.5t8 2.5q21 15 33 34l44 76l19 35l30 56q26 47 44 93
h12q7 -2 9.5 -4.5t1.5 -9.5t-2.5 -27t-5.5 -37q-14 -60 -22 -90l-22 -90l-9 -33l8 4l19 17l26 24l47 51q30 36 50 83q10 0 15 -1zM215 217l2 -1q0 2 2.5 8.5t0.5 13.5zM209 190.5q-1 -4.5 -3 -8.5l2 -1q2 4 3 8.5t2 8.5l-2 1q-1 -4 -2 -8.5zM11 178l6 15q-4 0 -4 -3l-4 -12
h2zM23 189l-7 -25l2 -1l7 25zM7 161h-3q-1 -5 -5 -20h3zM116 -21q-9 -3 -12 -5l-18 -9q-66 -34 -88 -47q-54 -29 -88 -85q-12 -20 -12 -42q0 -13 5 -28q9 -31 39 -31q15 0 28 10q25 15 53 52q54 78 87 168z" />
    <glyph glyph-name="z" unicode="z" horiz-adv-x="282" 
d="M-56 -228q-16 0 -28 4q-14 5 -20.5 16t-4.5 26q5 29 31 71q43 65 120 120l121 86q13 8 14 21q1 7 2 16.5t1 21.5q0 6 -2 18l-0.5 0.5l-0.5 0.5q-4 16 -10.5 23t-17.5 7q-10 0 -16 -2q-31 -7 -57 -24q-20 -12 -40 -28q-6 -5 -16 -5l-12 1q-2 1 -4.5 2t-5.5 2l3 10
q15 31 34 52l86 94q1 0 5 7l-46 -6q-9 -1 -26 -1q-37 0 -61 11q-2 1 -4.5 2t-5.5 4q-1 1 -4 6q10 5 18 5q3 0 11 -2q24 -7 49 -7q38 0 75 15l28 11q8 3 14 3q13 0 22 -8l-5 -9l-15 -19q-25 -33 -30 -38l-42 -46l-22 -24q-1 -1 -2 -2.5t-2 -4.5l12 3q29 11 52 11q16 0 22 -1
q38 -9 45 -44q3 -12 5 -38q2 1 3.5 2t3.5 2q42 35 52 44q11 10 29 14q-6 -9 -10 -13q-29 -34 -71 -65q-11 -9 -12 -22q-3 -31 -23 -87q-19 -57 -49 -97t-53 -65t-52 -44q-39 -24 -80 -30h-8zM188 138v10h-1v-10h1zM10 -177q20 16 37 35.5t38 47.5q53 71 80 155l2 12
q-1 -1 -2.5 -1t-2.5 -1l-29 -21q-87 -67 -94 -73q-31 -24 -75 -75q-23 -28 -36 -64q-2 -14 -2 -20q0 -27 19 -27q8 0 12 2q19 6 53 30z" />
    <glyph glyph-name="e.ss01" unicode="&#xe01e;" horiz-adv-x="338" 
d="M27 8q-28 13 -42.5 34.5t-14.5 50.5q0 26 9 49.5t28 58.5q33 59 81 96q13 10 34 19q8 4 18 4q14 0 28 -8q19 -13 19 -33q0 -4 -2 -14q-7 -27 -24 -51q-34 -50 -85 -79q-16 -8 -25 -11t-11 -10q-1 -4 -3 -14.5t-2 -19.5q0 -27 19 -46q13 -13 29 -13q9 0 18 3q15 5 27 14.5
t27 24.5q38 38 72 110t34 123q0 18 -6 36t-22 23q-5 1 -19 9q2 5 5 6.5t9 1.5q40 3 71 -31q17 -17 19 -48q0 -26 -10 -58q-24 -80 -75 -146q-27 -34 -56 -57q-46 -35 -104 -35q-22 0 -46 11zM85 167q46 37 63 70q13 23 13 45q0 4 -1 7t-2 5q-16 -7 -40 -35.5t-43 -61
t-21 -50.5q16 7 31 20zM274 287q-3 -14 -7 -40q10 21 7 40zM298 250q6 25 3 37q-3 -13 -8 -31q-2 -11 -11 -49q10 18 16 43zM283.5 257.5q3.5 9.5 1.5 17.5l-6 -31q1 4 4.5 13.5zM32 143l19 43q6 14 10 20q1 2 11 17l-2 1q-5 -4 -11 -16q-24 -39 -33 -72q2 1 6 7zM-7 126
q-8 -18 -8 -26q0 -4 2 -12zM7 120h-3q-4 -14 -4 -19q0 -3 2 -11zM18 81q2 14 2 20q0 2 2 8t-1 11q-7 -11 -7 -27q0 -8 1 -12h3z" />
    <glyph glyph-name="t.ss03" unicode="&#xe046;" horiz-adv-x="166" 
d="M57 3q-39 0 -57 32q-18 30 -18 75q0 38 13 83q36 118 76 201q2 3 3 6t3 7q-23 -2 -35 -4q-50 -4 -75 -4q-29 0 -59 3q-46 4 -68 8q-76 13 -121 65q-3 3 -5.5 7.5t-3.5 7.5q0 5 1 9q17 -3 23 -12q26 -32 67 -40q40 -9 106 -11h30q21 0 31 1q51 2 124 15q9 4 11 9l27 54
l11 20q23 -3 37 -16q-5 -20 -15 -50l13 2q11 2 33 8q60 14 91 17q23 3 44 3q19 0 39 -3q30 -7 43 -11q21 -6 29 -28q1 -3 1 -7t-2 -6t-7 -4q-3 4 -12.5 9t-10.5 13q-16 4 -35 4q-56 0 -145 -24q-39 -10 -95 -22q-9 -2 -12 -10q-51 -121 -72 -190q-2 -8 -10.5 -34.5
t-13 -49.5t-4.5 -44q0 -26 9 -52q1 -3 8 -17q14 4 25 15q28 27 49 65l45 91q1 1 3 5.5t8 4.5h3q13 0 13 -7q0 -4 -3 -10l-37 -83q-15 -35 -29 -54q-17 -24 -36 -36q-16 -11 -38 -11zM158.5 495q5.5 17 7.5 22l-2 1l-21 -52q1 -1 3 -1q7 13 12.5 30zM132 493q6 8 9 18
q-2 0 -3 1q-4 -12 -7 -18q-10 -22 -16 -33l2 -1q12 23 15 33zM144 490q-9 -9 -8 -17zM50 220q6 17 7 20l11.5 34.5t15.5 42.5l24 60l15 35l-3 1q-5 -7 -5 -8l-7 -17.5t-6 -13.5q-50 -115 -74 -212q-7 -26 -5 -42q7 40 27 100zM31 254q12 32 17 49q3 5 7 17h-3l-5 -16
q-8 -16 -18 -50h2zM38.5 234.5q16.5 48.5 19.5 57.5l8 23q-11 -14 -33 -86.5t-21 -88.5q10 46 26.5 94.5zM26 242q-15 -41 -21.5 -62.5t-7.5 -46.5q11 46 29 109z" />
    <glyph glyph-name="y.ss03" unicode="&#xe049;" horiz-adv-x="307" 
d="M254.5 311.5q3.5 -5.5 1.5 -14.5l-5 -33q-36 -157 -82 -296q-20 -66 -46 -111q-40 -70 -93 -107q-38 -27 -78 -27q-13 0 -26 3q-23 5 -39 19q-7 5 -9.5 12t-4.5 18q-1 3 -0.5 6.5t-0.5 7.5q-2 0 -5.5 0.5t-8.5 -0.5q-32 -1 -63.5 4.5t-74.5 15.5q-90 20 -161 27
q-45 5 -82 5q-21 0 -32 -1q-37 -2 -65 -15q-23 -11 -32 -27q-1 -3 -4 -4l-8 4q-11 6 -11 14q0 4 4 11q14 25 46 35q22 7 49 9q14 2 44 2q20 0 60 -2q37 -2 75 -8t92 -17l41 -8q45 -8 83 -8q13 0 37 2q2 0 3 1q19 0 25 20q22 68 67 113q4 4 27 22q7 5 14.5 5.5t19.5 -0.5
q20 -2 37 -15.5t22 -32.5q2 -8 2 -11q0 -9 -8 -27q-22 -43 -70 -74q-36 -24 -80 -33l-11 -3q-3 -21 9 -39q7 -11 21 -9q20 3 45 18q52 32 91 99q29 50 54 131l48 157q2 3 0 8l-5 -7q-32 -59 -58 -89l-24 -23q-16 -15 -42 -15q-27 0 -45 15q-10 9 -15 23q-5 18 -5 35
q0 61 35 146q11 25 26 56q3 7 17 38q1 2 8 14q6 7 9 7l8 -2q7 -3 12 -6.5t9 -5.5q6 -4 3 -12l-21 -58l-15 -42q-24 -68 -32 -103q-8 -32 -8 -73l1 -10q15 0 24 9q5 5 17 15.5t20 19.5q34 39 63 93l36 68q18 36 28 54q1 2 5 11q5 8 10 8q3 0 9 -3q9 -4 12.5 -9.5zM37 269
q0 -1 2 -1l33 73q0 1 -2 1q-19 -33 -33 -73zM21 135l35 103l27 72l11 28l-2 1l-4 -9q-14 -38 -22 -57l-30 -79q-11 -29 -15 -59zM67 310q-4 -10 -7 -15h3l6 14q0 1 -2 1zM10 193q5 8 7.5 17.5t3.5 12.5q5 9 11 29h-2q-4 -9 -10 -27q-2 -6 -10 -32zM5.5 175.5
q3.5 7.5 2.5 14.5q-5 -11 -7 -26q1 4 4.5 11.5zM205 135.5q1 4.5 3 8.5l-2 1q-4 -13 -5 -17l2 -1q1 4 2 8.5zM194 95q1 2 1 7q-24 -68 -39 -120q-17 -57 -46 -119q23 37 35 73zM159 67.5q-1 -4.5 -3 -8.5l2 -1q4 13 5 17l-2 1q-1 -4 -2 -8.5zM120 -59q12 25 18 53
q5 12 9.5 28t6.5 23h-3l-8 -28l-6 -22q-12 -30 -17 -54zM156 22l-25 -80q0 -1 2 -1l15 45q2 8 11 35q-2 0 -3 1zM-88 -159l8 2q63 25 104 92q3 4 8 18q1 2 1 6q0 6 -9 9l-9 3q-3 3 -8 3q-4 0 -8 -4q-4 -3 -8.5 -6.5t-10.5 -8.5q-41 -37 -66 -102zM39 -85q-8 -10 -11 -16
l2 -2l11 17zM53 -86l-33 -45q25 18 33 45z" />
    <glyph glyph-name="o_n" unicode="&#xe060;" horiz-adv-x="592" 
d="M43 1q-21 0 -36 8q-19 10 -27 31q-7 14 -8.5 29t-1.5 38q4 76 50 145q20 34 48 59q14 12 27 20q13 9 26 9q17 0 33 -15l56 27q22 8 33 10q12 2 19 2q34 0 58 -27q17 -18 17 -46q0 -5 -2 -17q-7 -34 -25 -100q-10 -34 -16 -51l-12 -35q-7 -23 -8 -43q3 2 5 5q19 31 23 40
q36 72 79 166q33 70 79 125q12 15 27 22q8 4 20 4q20 0 33 -15q6 -6 7.5 -13t1.5 -19q0 -23 -8 -50l-17 -56q-14 -43 -23 -74q-21 -66 -28 -126l-1 -17q0 -8 3 -17l10 9q22 20 46 60l51 81l19 31q5 8 9 8q5 0 12 -3l-21 -37q-18 -30 -38 -62t-38 -56q-4 -6 -10 -14t-13 -18
q-17 -19 -45 -16q-16 1 -25.5 17t-9.5 38q0 9 5 46q12 74 49 176l30 87q2 4 3 11.5t2 12.5l-5 1q-7 0 -15 -8q-9 -7 -25 -25q-37 -45 -75 -127q-26 -57 -80 -169q-10 -21 -29 -40q-7 -6 -20 -6q-17 0 -25 8q-5 5 -6 12t-1 8q-2 14 -2 21q0 17 5 35q10 39 32 117l6 23
q9 27 15 56q3 11 3 22q0 9 -1 13q-2 10 -5.5 12.5t-13.5 2.5q-23 0 -45 -11q-12 -6 -50 -27q-4 -2 -10 -8q-9 -9 -9 -14t4 -12q14 -25 14 -56q0 -8 -2 -24q-13 -93 -74 -167q-5 -6 -24 -20q-6 -4 -14 -6q-5 -1 -16 -1zM482 216q4 6 1 12q1 2 3 4.5t3 6.5q6 14 12 33.5
t9 28.5l9 27q2 4 3 8.5t2 8.5h-2l-39 -117l-6 -19q1 1 5 7zM459 40q0 6 1 16.5t2 17.5q9 63 40 157l30 96q1 4 2 8.5t2 8.5q-3 -2 -5 -7l-25 -80q-20 -60 -30.5 -98t-16.5 -78q-1 -4 -2 -11t-1 -17q0 -9 1 -13h2zM511 344q-16 -41 -23 -69q17 38 23 69zM75 70q34 50 52 114
q8 34 8 52q0 6 -2 20q-2 13 -6 25q-1 3 -1 8q0 12 10 21l10 9q-13 0 -28 -15q-35 -40 -59 -86q-35 -66 -36 -126v-20t4 -31q1 -4 2.5 -7t2.5 -7q24 13 43 43zM270 91q8 28 20.5 69t27.5 96q0 1 -2 1l-3 -5q-10 -38 -26 -88l-24 -86q-1 -2 -3 -10t-1 -15zM63 255
q-15 -16 -32 -54t-16 -55q15 48 48 109zM278 212l-2 1q-24 -78 -33 -117l2 -1zM23 206l-2 1q-10 -15 -12 -35zM7 199l-3 1l-10 -25q1 -1 3 -1zM272.5 146q9.5 33 8.5 40q-2 -6 -4 -12.5t-4 -13.5q-12 -33 -17 -60q7 13 16.5 46zM157 173q-1 1 -3 1l-18 -55q12 21 21 54z
M436 54v28h-1l-3 -28h4zM449 81q-5 -12 -5 -21q0 -6 3 -12q0 11 2 33z" />
    <glyph glyph-name="zero" unicode="0" horiz-adv-x="328" 
d="M-32 100q-10 17 -16 49q-2 18 -2 27q0 36 13 90q9 39 24 77.5t37 88.5q40 91 81 152q33 48 61 70q15 12 31 12q11 0 20 -4q7 -4 11 -7.5t5 -10.5l-6 -1q-6 2 -8 2q-5 0 -10.5 -4.5t-6.5 -5.5q-16 -15 -29 -33t-29 -44q-60 -99 -107 -231q-23 -65 -31 -124q-2 -20 -2 -29
q0 -25 6 -51q5 -20 18 -32q14 4 24 16l39 51q26 40 55 104q45 96 83 216q7 21 25 94q2 8 2 12q0 11 -8 24q-10 -5 -20 -5q-11 0 -22 9q9 22 34 22q35 0 56 -35q12 -19 12 -41q0 -5 -2 -17q-9 -51 -33 -117l-17 -44q-20 -52 -31 -77q-26 -63 -59 -124q-25 -42 -54 -77
q-30 -36 -74 -36q-47 0 -70 34zM266 569q-16 -62 -23 -93q20 49 23 93zM-9 190q1 14 5 37q13 66 34 121q44 117 94 201l7 12q-5 -2 -5 -4q-5 -7 -13 -21q-42 -73 -77 -162q-30 -74 -43 -142q-5 -23 -5 -42h3zM235 369l30 79q16 41 26 91l2 19l-3 1l-1 -6q-4 -19 -7 -31
q-12 -49 -43 -133l-8 -25q2 1 4 5zM268 504.5q7 27.5 5 35.5q-14 -50 -20 -75q8 12 15 39.5zM10 333l-2 1l-4 -12l2 -1zM-11 308q2 4 3 7.5t2 6.5h-2q-2 -4 -3 -7.5t-2 -6.5h2zM-16 293q-19 -53 -20 -95zM-4 291q-17 -47 -17 -78z" />
    <glyph glyph-name="one" unicode="1" horiz-adv-x="288" 
d="M267 643q-15 -57 -23 -79q-24 -76 -74 -228l-54 -165l-15 -49q-8 -28 -13 -42l-4 -17h14q29 0 47 -11q11 -8 14 -21q-1 0 -2 -0.5t-3 0.5q-9 4 -23 4q-7 0 -21 -2q-47 -6 -82 -22q-8 -4 -15 -4q-11 0 -24 11l-9 10q1 6 10 10q12 5 36 13l14 4l5 34q25 127 61 242l56 171
l15 40l3 10l-2 1l-10 -9l-29 -24q-8 -8 -19 -8q-7 0 -21 6q-3 2 -5.5 4t-4.5 4q50 46 73 70q21 21 44 49q7 9 23 27q7 0 11 -1q12 -3 23 -12q7 -6 4 -16zM249 628q-3 -3 -5 -9q-17 -45 -29 -82l-58 -174l-54 -176q-1 -3 -1 -10q2 3 4 9q10 33 13 41l25 78q4 9 7 20l62 192
l35 102q1 3 1 9zM174.5 462.5q-39.5 -116.5 -38.5 -129.5l91 268q-13 -22 -52.5 -138.5zM163 465.5q-34 -98.5 -34 -109.5q38 111 78 225q-10 -17 -44 -115.5zM98 155l3 19q-4 -4 -5 -10t-1 -8q2 0 3 -1zM85 115q-12 -27 -12 -49z" />
    <glyph glyph-name="two" unicode="2" horiz-adv-x="407" 
d="M8 6q-7 0 -14.5 4.5t-10.5 6.5q-3 0 -3 6q2 6 4 9l10 18q18 33 39 67.5t41 60.5q24 32 80 94l26 28q5 6 38.5 43t60.5 75q39 54 57 117q4 16 4 35q0 16 -3 29q-4 12 -7 17q-7 12 -22 14q-7 1 -22 1q-68 0 -118 -43q-78 -70 -80 -180q0 -8 2 -22q3 -17 16 -29l12 -14
l-5 -2q-3 0 -4.5 1t-3.5 2q-21 8 -36 25.5t-16 43.5q-1 39 12 84q23 81 96 132q26 19 60 25q30 4 45 4t32 -3q39 -7 64 -37t25 -81q0 -26 -8 -55q-19 -60 -73 -128q-28 -35 -89 -100l-23 -25q-4 -5 -30 -32.5t-45 -54.5q-10 -12 -46 -66q-1 -4 -5 -9q14 2 13 2q70 17 124 17
q40 0 70 -9q26 -9 40 -23l4 -6l-6 -1q-7 0 -17 4q-26 8 -39 10q-16 2 -23 2q-75 0 -162 -36q-7 -3 -35 -18q-13 -7 -20 -4q-3 1 -9 1zM318.5 452q7.5 15 9.5 25l-25 -47q8 7 15.5 22zM280 350l9 8q10 14 16 20q35 46 50 84l2 7q-2 -1 -7 -8l-13 -22q-11 -21 -26 -44
q-7 -11 -17 -24t-15 -20q-10 -8 -14 -21zM338 461l-2 2q-8 -16 -26 -46l3 -1q11 13 25 45z" />
    <glyph glyph-name="three" unicode="3" horiz-adv-x="411" 
d="M13 16q-33 24 -33 61q0 11 3 21q19 73 66 122q16 18 35 18q21 0 30 -14l-8 -6q-14 -7 -25 -21q-36 -47 -54 -114q-1 -4 -1 -11q0 -17 12 -38q6 -10 21 -10q24 0 53 12q43 15 85 49q54 44 83 90q37 60 47 109q2 8 2 23q0 21 -8 45q-6 15 -17.5 23t-28.5 11q-7 2 -20 2
q-11 0 -25 -2t-20 -3q-29 -4 -47 -12q-6 -2 -9 -2q-6 0 -10 4q-2 2 -8 4q-5 1 -10.5 7.5t-9.5 8.5q3 10 17 18q5 3 37 22q26 15 54 32t48 34q41 32 61 72q13 25 13 55q0 17 -10.5 29.5t-27.5 14.5q-16 2 -23 2q-25 0 -55 -10q-55 -18 -88 -51q-51 -49 -60 -104
q-4 -23 -4 -50q1 -7 7 -28q-1 0 -2.5 -0.5t-4.5 0.5q-24 8 -28 32q-3 17 -3 31q0 46 27 92q36 62 113 96q39 17 80 17q61 0 94 -37q30 -33 30 -69q0 -46 -36 -91q-25 -33 -73 -63q-11 -8 -32 -20l20 -6q46 -13 67 -35q30 -32 38 -78q1 -6 1 -18q0 -26 -10 -54
q-26 -79 -86 -140q-44 -44 -94 -71q-45 -24 -90 -24q-51 0 -83 25zM341 555l-2 2q-5 -8 -9 -14t-7 -11q11 7 18 23zM350 550l-21 -31l2 -1q15 15 19 32zM348.5 516q11.5 15 15.5 30l-39 -53q12 8 23.5 23zM331 245q-2 0 -2 1l-25 -56q18 26 27 55zM355 242q-26 -61 -48 -96
q35 42 48 96zM330 210q6 13 8 26l-23 -51l2 -1q7 13 13 26zM48 170q-24 -37 -31 -75q20 50 31 75zM0 112.5q1 3.5 3 7.5l-2 1q-2 -4 -3 -7.5t-2 -6.5l2 -1q1 3 2 6.5z" />
    <glyph glyph-name="four" unicode="4" horiz-adv-x="405" 
d="M385 597q0 -7 -4 -17.5t-6 -15.5q-15 -48 -28 -86q-7 -21 -17 -51.5t-22 -71.5q-21 -68 -43 -153q-21 -84 -31 -134q-16 -70 -17 -121l-1 -19l-3 -10q-1 1 -3 1q-2 6 -1.5 14t0.5 12q0 17 -2 26v-52q-5 -1 -14 -1q-8 13 -8 29q0 33 5 75q9 65 23.5 128t39.5 161l3 14
q-25 -4 -34 -5q-15 -2 -45 -8l-83 -13q-33 -5 -66 -3q-25 0 -44 19q-4 5 -4.5 8.5t3.5 7.5q9 10 19 19l53 48q62 54 116 134q40 57 74 131l12 24q5 -2 10 -4.5l11 -5.5q12 -10 8 -21q-1 -5 -4.5 -19t-8.5 -25q-30 -75 -67 -128q-54 -77 -122 -130q-6 -5 -13.5 -11.5
t-18.5 -14.5l8 -2l94 12l100 12q7 1 8.5 2.5t3.5 8.5l39 133l33 100l6 14l3.5 7t5.5 5t10 -3q13 -5 20 -15q2 -2 2 -5zM169 508l3 -2q2 3 13 18.5t17 32.5zM136 424q20 15 55 64t38 66q-41 -69 -93 -130zM354 539q-4 -1 -4 -5l-42 -128q-1 -2 -0.5 -4t-0.5 -4q3 3 3 4
l42 128zM202 535l-32 -48l2 -1q19 23 32 47zM321.5 517q-2.5 -5 -0.5 -11q5 14 5 16l-2 1q0 -1 -2.5 -6zM295 350q4 13 5 22q-7 -10 -5 -22zM287 325h-2l-3 -12l2 -1zM242 152h-2l-3 -12h2zM235 121l-2 1l-3 -12h2zM228 89h-2l-3 -12h2z" />
    <glyph glyph-name="five" unicode="5" horiz-adv-x="398" 
d="M-5 61q-15 38 -15 77q0 8 2 28q5 37 19 61q5 10 12 17q6 7 14 2q7 -3 3 -12l-15 -53q-1 -3 -1 -10l22 68l5 2q0 -11 -1 -15l-9 -38q-5 -27 -5 -48q0 -39 14 -73q3 -7 6.5 -13t5.5 -10q32 6 56 19q34 17 65 45q87 77 126 165q28 63 28 115q0 32 -16 53q-14 19 -37 23
q-16 2 -22 2q-21 0 -49 -7q-52 -12 -101 -38l-36 -18q-8 -4 -11 -4q-4 0 -8 3q-10 4 -20 11q-7 6 -7 9q0 2 3 8l21 52q34 84 71 150q4 9 14 25q5 9 14 5q21 -7 49 -7l97 -3l36 -3q21 0 25 -21q-10 -7 -31 -7q-44 -2 -65 -2t-65 2q-11 0 -26 3q-16 -31 -27 -54.5t-18 -38.5
q-7 -14 -15.5 -33t-20.5 -43l3 -1q2 0 8 3q39 18 66 26q33 9 66 9q25 0 50 -6q59 -16 90 -72q13 -23 13 -56q0 -14 -1 -21q-8 -61 -34 -112q-28 -54 -74 -105q-37 -40 -81 -68q-15 -9 -40 -20q-16 -8 -46 -15q-13 -3 -26 -3q-16 0 -31 3q-34 7 -50 44zM77 474l4 7l39 83
l12 26q-3 -2 -7 -8l-32 -67l-17 -40q-10 -15 -14 -30l2 -1zM93 560l-2 1l-7 -14l2 -2q4 10 7 15zM327 313q-10 -27 -17 -49q16 23 17 49zM357 312l-43 -104q35 52 43 104zM333.5 280q4.5 13 5.5 25l-17 -45q7 7 11.5 20zM-3 182q1 8 5 19q-1 1 -3 1q-1 -5 -5 -20h3z" />
    <glyph glyph-name="six" unicode="6" horiz-adv-x="372" 
d="M109 1q-28 0 -52 10q-45 18 -65 70q-12 31 -12 72q0 82 42 185q47 121 122 213q49 63 116 100q26 15 46 15q15 0 32 -7q3 -1 6.5 -5.5t5.5 -6.5q5 -6 -2 -12q-6 3 -7 4q-5 6 -12 6q-4 0 -9 -3q-26 -12 -37 -20q-65 -49 -111 -119q-30 -45 -63 -116q-2 -6 -2 -8l2 -2
q3 6 4 7l15.5 15.5t17.5 15.5q17 13 42 13q16 0 29 -4q68 -18 92 -93q8 -27 8 -51q0 -23 -9 -61q-19 -71 -64 -134q-34 -47 -74 -70q-11 -6 -22 -9q-22 -5 -39 -5zM25 159q1 3 1 7q3 40 22 103q33 111 97 216q24 40 58 80l20 21l-2 2l-20 -21q-28 -33 -29 -35
q-101 -138 -142 -309q-7 -26 -7 -69q1 2 2 5zM132 492l-4 -2l-5 -8q-27 -42 -51 -94q-41 -88 -56 -160q-2 -9 -3.5 -22t-2.5 -20q29 150 122 306zM1 202q10 66 43 146l23 54l24 44l15 26q-10 -6 -17 -25l-24 -44q-1 -3 -5 -9q-26 -64 -38 -96q-21 -57 -25 -100q-1 -5 -1 -17
q3 7 5 21zM132 38q38 27 57 60q22 36 38 71q28 61 28 118q0 16 -1 25q-7 51 -32 80q-5 6 -14 5q-18 -4 -33 -15q-18 -14 -40 -28q-4 -3 -11 -3q-11 0 -19 11q-9 -6 -13 -15q-25 -66 -38 -112.5t-13 -96.5q0 -35 7 -56q9 -30 25 -45q12 -12 27 -12q7 0 14 3q12 6 18 10z
M273 168q24 52 24 90l-27 -90h3zM266 251l-13 -49l3 -1q11 30 10 50zM280 248q-4 -12 -16 -56q0 -1 2 -1q14 32 14 57z" />
    <glyph glyph-name="seven" unicode="7" horiz-adv-x="275" 
d="M-10 32q-5 2 -7.5 4t-2.5 6q0 9 4 25q13 43 49 123q34 74 52 111q1 3 2.5 6t2.5 7q3 1 -13 -3l-19 -6q-8 -2 -10 -2q-13 0 -23 16l8 4l20 5q10 3 40 10q10 3 16 13q41 87 85 162l64 104l9 16l-16 -4q-81 -24 -135 -31q-7 -1 -16 -2t-21 -1q-7 0 -21 2q-34 6 -45 33v5
q1 0 3.5 0.5t3.5 -0.5q8 -3 25 -3q18 0 34 3q68 10 176 40q10 3 11 3q8 2 11 2q15 0 26.5 -13t11.5 -29q0 -6 -1 -9q-6 -19 -15 -35l-102 -177l-32 -55q-2 -3 -3 -6t-2 -5l12 -11q-3 -5 -8.5 -6.5t-7.5 -2.5q-8 -1 -13 -9l-10 -20q-39 -76 -66 -131t-48 -111
q-2 -4 -3.5 -9.5t-4.5 -10.5q-2 -5 -8 -13zM193 436q-8 -7 -27 -42t-20 -43zM158 420l-3 1l-13 -25l2 -2zM165 410l-3 2q-1 -2 -2 -5t-3 -6l0.5 -0.5l0.5 -0.5zM148 380l-2 1l-11 -20q2 0 3 -1zM125 357l-2 1l-5 -9l2 -2zM121 304l-3 2l-33 -67l3 -1zM58 177q6 9 11.5 21.5
t7.5 16.5l-3 1l-17 -38l-12 -23l3 -1z" />
    <glyph glyph-name="eight" unicode="8" horiz-adv-x="392" 
d="M-20 161q0 17 2 26q14 83 74 152l8 10l-5 8q-15 16 -15 41q0 28 11 53.5t31 55.5q58 83 153 121q11 4 39 11q4 1 11 1q16 0 34 -10q47 -24 49 -85q0 -8 -6 -20q-14 -34 -43 -75q-42 -61 -98 -117q-6 -6 -12.5 -11.5t-13.5 -12.5l27 -17q29 -23 41 -57q5 -13 5 -24
q0 -17 -8 -35q-26 -64 -82 -101q-37 -25 -76 -25q-35 0 -71 21q-55 30 -55 90zM202 372q28 34 41 51q46 58 72 110q15 27 17 48v4q0 8 -4.5 11t-17.5 3q-16 0 -33 -6q-117 -45 -171 -152q-16 -30 -17 -55v-15q18 6 25 6q5 0 8 -1q19 -6 24 -22q-3 -1 -12 -3.5t-15 -9.5
q11 -6 43 -17q26 32 40 48zM192 565q-41 -26 -66 -64zM149 558q-19 -11 -34 -31l1 -2zM266.5 396.5q1.5 1.5 2.5 7.5q-7 -7 -10 -12q6 3 7.5 4.5zM251.5 378.5q3.5 3.5 2.5 8.5l-9 -10l3 -2zM216 370q0 1 -2 3l-7 -9q0 -1 1 -1zM223 348q11 10 19 22l-2 1l-19 -22
q-11 -10 -19 -20l2 -1zM218 359l-1 1q-6 -4 -10 -10l2 -1zM197 350l-2 1l-9 -11l2 -1zM134 93q36 22 63 63q21 30 26 55q2 12 2 19q0 20 -10.5 36t-32.5 23q-1 1 -4 1q-6 2 -29.5 10.5t-43.5 19.5l-7 2l-15 -20q-44 -60 -57 -125q-3 -12 -3 -25q0 -27 14 -48q9 -15 25 -22.5
t32 -4.5q24 5 40 16zM77 313q-2 2 -2 3l-24 -34l2 -2zM229 186q-2 0 -2 1q-2 -4 -4.5 -8.5t-5.5 -10.5l3 -1zM228 138q19 24 23 47l-15 -28q-4 -6 -10 -18v-1h2zM236 175l-2 1l-9 -15l3 -2z" />
    <glyph glyph-name="nine" unicode="9" horiz-adv-x="377" 
d="M51 42q-15 0 -25 10l-5 2q0 11 13 20q26 15 34 21q5 4 31 27q66 64 118 176l19 43l2 6l-0.5 0.5l-0.5 0.5l-26 -27q-35 -34 -74 -53q-20 -10 -42 -10q-28 0 -53.5 14.5t-40.5 37.5q-21 36 -21 74q0 9 2 25q13 91 84 182q40 51 96 84q37 20 69 20q39 0 74 -30
q26 -23 42 -66q10 -27 10 -56q0 -20 -3 -38q-7 -48 -31 -120q-25 -73 -48 -119q-22 -45 -41.5 -77.5t-44.5 -60.5q-37 -42 -71 -65q-8 -5 -30 -12t-29 -8zM154 325q38 24 65 55q6 6 10 6q5 0 10 -4l11 -7q3 9 5.5 15.5t4.5 12.5q32 90 41 148q3 17 3 33q0 25 -10 48
q-7 15 -14 20.5t-22 5.5q-30 0 -57 -15q-47 -24 -83 -65q-83 -96 -92 -199q-3 -36 11 -66q7 -13 13 -18.5t15 -5.5q8 0 18 3q30 7 71 33zM124 604q-14 -10 -35.5 -37.5t-23.5 -36.5zM294 356l-2 1q-8 -16 -22 -50l-24 -49l-27 -49q-15 -25 -17 -29q-10 -15 -11 -17l3 -2
q62 85 100 195zM234 292q22 47 23 60l-56 -117q11 10 33 57zM259 314l-2 1l-51 -101l2 -1q34 55 51 101z" />
    <glyph glyph-name="period" unicode="." horiz-adv-x="118" 
d="M33 60q-13 9 -13 24q0 17 11 31t24 14q17 0 30 -10.5t13 -26.5q0 -15 -8.5 -28t-23.5 -13q-20 0 -33 9z" />
    <glyph glyph-name="comma" unicode="," horiz-adv-x="138" 
d="M45 -24q-12 0 -23 10l13 11q26 20 39 45q5 10 5 16q0 2 -2 10l-5 -4q-9 -10 -20 -10q-10 0 -23 8q-9 6 -9 14q0 6 2 9q7 16 16.5 25t25.5 10q4 0 6 2q7 5 12 5q6 0 16 -4q15 -7 18 -24q2 -8 2 -23q0 -29 -15 -54.5t-41 -40.5q-10 -5 -17 -5z" />
    <glyph glyph-name="colon" unicode=":" horiz-adv-x="197" 
d="M96 404q-8 10 -8 21q0 6 4 16q2 6 6 10q8 12 19 12q8 0 17 -5q9 -6 11 -7q15 -5 28 -25q4 -6 4 -10q0 -11 -10.5 -23.5t-23.5 -11.5q-32 4 -47 23zM31 134q-11 7 -11 21q0 17 13 31t28 12q2 0 5 0.5t8 0.5q21 0 35 -17q4 -4 4 -8q0 -3 -4 -7l-37 -37q-5 -5 -12 -5
q-16 0 -29 9z" />
    <glyph glyph-name="semicolon" unicode=";" horiz-adv-x="141" 
d="M58 365.5q-12 8.5 -14 21.5q-1 3 -1 9q0 12 7.5 22.5t18.5 13.5q3 1 10 1q13 0 24 -7.5t15 -18.5q3 -7 3 -14q0 -9 -9 -18l-9 -11q-5 -8 -17 -8q-16 1 -28 9.5zM88 405q-6 -1 -7 -3t-2 -11q2 3 9 14zM67 204q-6 1 -11.5 2t-11.5 2q-24 6 -24 25q0 10 7 20q14 20 35 20
q6 0 10 -1l16 -4q16 -5 21 -26q1 -5 1 -15q0 -20 -8.5 -37t-25.5 -38l-9 -10q-13 -11 -22 -11q-10 0 -23 9q33 32 45 64z" />
    <glyph glyph-name="ellipsis" unicode="&#x2026;" horiz-adv-x="118" 
d="M85 118.5q13 -10.5 13 -26.5q0 -15 -8.5 -28t-23.5 -13q-20 0 -33 9t-13 25q0 17 11 30.5t24 13.5q17 0 30 -10.5z" />
    <glyph glyph-name="exclam" unicode="!" horiz-adv-x="254" 
d="M234 629q0 -5 -2 -10l-33 -86q-52 -144 -80 -243q-3 -11 -6.5 -19t-5.5 -14q-2 -4 -9 -14h-2q-1 3 -1 9q-5 -5 -9 -5t-12 4q-1 16 5 46q16 75 46 169q20 66 45 136q4 15 11 34l3 10q1 1 2.5 5t4.5 4q2 0 9 -7l5 5l6 -10q5 8 11 -1q-1 -2 -1 -4.5t-1 -4.5l6 6q8 -7 8 -10z
M218 621l2 13l-3 -6l-24 -65q-1 -2 -1 -7q1 1 2 2.5t1 3.5q19 47 23 59zM188 541q2 6 4 16q-1 -2 -2.5 -4.5t-2.5 -4.5q-16 -48 -25 -71l-5 -22q4 6 5 9q5 17 26 77zM148 425l9 31q-1 -1 -2 -2.5t-2 -4.5l-31 -97v-8l4 11q10 28 22 70zM94 100q0 -6 -7 -17q-9 -16 -27 -16
q-12 0 -24 7q-15 7 -16 22q2 3 4 8.5t4 7.5q17 13 32 13q12 0 22 -9q12 -10 12 -16z" />
    <glyph glyph-name="exclamdown" unicode="&#xa1;" horiz-adv-x="220" 
d="M150 486q-8 4 -13 9q-7 7 -7 15q0 11 3.5 16.5t13.5 10.5q7 4 15 4q10 0 21 -6q11 -5 16 -19q1 -2 1 -6q0 -6 -5 -13l-12 -11q-6 -7 -13 -7q-3 0 -9 2q-3 1 -11 5zM22 -1l-2 9q0 4 2 10q9 38 29 114q19 70 59 210q4 16 16 48l6 14l5 -8l5 2q4 0 24 -10l-5 -26l-35 -130
q-36 -125 -59 -212l-6 -23q-26 2 -39 2zM59.5 40.5q1.5 4.5 2.5 6.5l42 154q4 14 5 21q1 2 4 10q12 40 17 60q4 11 7 28q7 12 4 22q-2 -16 -4 -22l-4 -9q-8 -26 -22 -78q-2 -6 -2 -11q-4 -6 -5 -9q-22 -82 -40 -143l-9 -37q3 3 4.5 7.5z" />
    <glyph glyph-name="question" unicode="?" horiz-adv-x="379" 
d="M133 235q0 5 2 9.5t3 6.5q1 3 3 7.5t3 10.5q-8 -11 -16 -35q-19 6 -18 5q-11 4 -8 16q4 18 7 26q15 32 26.5 52.5t28.5 38.5l25 25l25 25q43 41 64 77q28 43 29 83q0 29 -8 45t-24 16l-15 1q-44 0 -82 -25q-66 -43 -106 -131q-13 -31 -13 -61q0 -8 2 -22t10 -19q1 0 4 -5
q-10 0 -14 1q-26 7 -34 29q-7 18 -7 39q0 15 5 37t16 42.5t29 46.5q37 54 91 82q36 18 73 18q36 0 70 -19q36 -19 50 -68q5 -18 5 -33q0 -23 -11 -56q-16 -43 -49 -81q-25 -29 -66 -66q-56 -50 -86 -113q-3 -5 -6 -7t-8 -1v3zM76 522l19 32q-10 -9 -20.5 -27t-10.5 -25z
M55 530l-2 1q-5 -11 -7 -13l2 -2zM306 524l-16 -32q1 -1 3 -1q12 17 13 33zM336 517q-3 -6 -18.5 -33.5t-32.5 -50.5q40 38 51 84zM318 516q-8 -16 -26 -48q22 24 26 48zM69 84q-6 3 -9 10q-1 4 -1 11q0 14 8 25q6 9 23 9q11 0 22 -11l-9 -9q2 -2 4.5 -3.5t3.5 -2.5
q9 -7 5 -16q-6 -16 -21 -17q-17 0 -26 4z" />
    <glyph glyph-name="questiondown" unicode="&#xbf;" horiz-adv-x="310" 
d="M247.5 464q-11.5 8 -14.5 15q-2 8 1 19.5t10 17.5q4 4 10 4q2 0 8 -2q13 -6 14 -14q1 -1 1 -2.5t1 -2.5q1 -2 2 -2t2 -1q8 -10 8 -18q0 -16 -19 -22l-4 -1q-8 1 -19.5 9zM35 28q-14 32 -14 70q0 35 12 69q23 65 68 110q13 13 30 26.5t21 16.5l17 13q16 12 23 19
q31 27 37 57l2 6l19 -6q14 -6 14 -22q0 -20 -6 -33q-14 -28 -36 -47l-45 -37q-49 -37 -80 -102q-18 -37 -18 -79q0 -41 20 -75l12 -15q5 -5 13 -5q7 0 12 4q28 16 40 34q34 44 40 92q1 5 1 16q0 14 -1 21q-2 17 -17 23q-7 5 -8 5q2 6 9 6q3 1 9 1q17 0 32 -11t21 -28
q5 -17 5 -30q0 -45 -20 -79q-29 -50 -71 -68q-27 -11 -52 -11q-24 0 -45 10q-29 14 -44 49zM249 374l-15 -28q15 12 15 28zM66 120q10 52 43 101l5 8q-23 -25 -38 -60t-15 -66q0 -11 1 -16zM45 151q2 10 7.5 23t8.5 22q-27 -45 -26 -91q7 34 10 46zM66 177q-17 -30 -18 -66z
M228 115q2 10 2 14q0 1 -2 1l-2 -15h2zM251 127l-9 -51q13 26 9 51zM238 105l3 20h-2q-2 -14 -4 -20h3z" />
    <glyph glyph-name="periodcentered" unicode="&#xb7;" horiz-adv-x="104" 
d="M35 362q-15 8 -15 22q0 20 13 34q5 6 15 6t17 -7q-1 1 17 -20q3 -8 2 -10q-7 -24 -24 -30q-2 -1 -7 -1z" />
    <glyph glyph-name="bullet" unicode="&#x2022;" horiz-adv-x="168" 
d="M39.5 347q-19.5 17 -19.5 46q0 39 38 62q2 2 5 2q25 1 41.5 -2.5t29.5 -18.5q14 -17 14 -35q0 -6 -2 -14q-9 -33 -39 -52q-8 -5 -17 -5q-31 0 -50.5 17zM75 399q1 3 3 6l-3 2l-4 -12l2 -1q1 2 2 5z" />
    <glyph glyph-name="asterisk" unicode="*" horiz-adv-x="259" 
d="M97 426h-1q-2 0 -3.5 -4t-5.5 0q-1 -2 -3 -2t-4.5 2t-4.5 1q1 22 12 51q3 7 7 21l-2 1l-58 -50l-14 19q2 8 14 19q17 17 53 49q20 16 32 24l-16 22l-36 46l-6 10q-1 2 -1 5q0 5 8 5q23 -2 32 -18l21 -30l10 -12q6 13 10.5 24t7.5 19q10 26 16 39l9 -3t9 -5q1 -2 4.5 -3.5
t6.5 -3.5q6 -7 6 -10q0 -5 -2 -8q-4 -12 -11 -26q0 -1 -2 -7l19 8q4 2 10 2q12 0 19 -10l6 -9q-22 -12 -79 -46l10 -15l18 -26l27 -42q10 -14 6 -26q-20 0 -28 15q-16 27 -31 49l-13 18q-8 -14 -20 -44q-15 -40 -30 -59q-1 -1 -2 -0.5t-3 -0.5z" />
    <glyph glyph-name="numbersign" unicode="#" horiz-adv-x="525" 
d="M21 24l-1 7q0 7 2 14t3 10q24 86 37 128q10 33 32 99l3 11h-20t-27 3.5t-20 12.5q1 7 10 7q39 4 55 5q4 1 12 1l52 147q-26 2 -38 5.5t-23 15.5q2 6 6 5.5t5 -0.5h49q8 0 10 1.5t5 9.5q21 57 47 124q6 18 14 25q17 -7 21 -10q9 -6 12 -11v-2q0 -6 -3 -12l-44 -110l-4 -12
q2 0 4.5 -0.5t5.5 0.5l85 6l54 3q7 0 10.5 2.5t6.5 9.5q18 48 44 110q3 7 5.5 12l4.5 9q4 7 11 4q12 -4 17 -7q4 -2 6.5 -5t6.5 -5q3 -1 3 -5q0 -2 -2 -8l-12 -30l-30 -69l-5 -13h10q29 0 44 -1q7 0 10 -1.5t10 -9.5l-17 -4q-36 -4 -54 -5q-12 0 -18 -12q-20 -55 -62 -163
l-4 -12l9 -3l39 -12q14 -5 21 -15l-9 -1l-54 9q-4 0 -12 2l-4 -8l-9 -25q-36 -108 -50 -162q-1 -6 -8 -26q-2 -4 -4 -6l-17 4v15h-2l-1 -18q-6 4 -6 12q2 26 4 36q12 58 48 170q3 5 4 14q-6 1 -15 2t-20 1q-56 3 -111 3q-10 0 -12 -1t-3.5 -5t-2.5 -7l-75 -222
q-8 -22 -10 -26l-8 -14zM444 640q-4 -6 -10 -18q-1 -1 -1 -5q10 14 11 23zM465 626l-3 1q-22 -45 -43 -102l2 -1q30 68 44 102zM441 602.5l7 17.5q-8 -11 -16 -30q1 -1 3 -1q3 6 6 13.5zM241 593q-7 -10 -19 -40t-12 -38zM368 485q-101 -7 -162 -13q-23 -56 -56 -148
l157 -12z" />
    <glyph glyph-name="slash" unicode="/" horiz-adv-x="455" 
d="M27 -32v5l-5 -4l-2 1q5 16 7 21q28 57 48 90q63 105 121 192l142 213l58 86l6 8q7 -3 3 -12l8 6q4 -2 12 -8l-5 -10v-1l8 7l7 -6l-8 -13l-95 -136l-42 -62q-50 -72 -101.5 -148.5t-91.5 -142.5l-45 -77q-3 -5 -6.5 -9.5t-5.5 -7.5q-7 3 -13 8zM405 529l-2 1
q-11 -13 -12 -22q4 7 14 21zM384 499l-3 1l-9 -13q2 0 2 -2z" />
    <glyph glyph-name="backslash" unicode="\" horiz-adv-x="455" 
d="M409.5 74.5q-3.5 4.5 -6.5 9.5l-45 77q-40 66 -91.5 142.5t-101.5 148.5l-42 62l-95 136l-8 13l7 6l8 -7v1l-5 10q8 6 12 8l8 -6q-3 9 3 12l6 -8l58 -86l142 -213q58 -87 121 -192q20 -33 48 -90q2 -5 7 -21l-2 -1l-5 4v-5q-6 -4 -13 -8q-2 3 -5.5 7.5zM52 637l-2 -1
q10 -14 14 -21q-1 9 -12 22zM83 594l-9 13l-3 -1l10 -14q0 2 2 2z" />
    <glyph glyph-name="parenleft" unicode="(" horiz-adv-x="292" 
d="M272 673q-19 -9 -33 -24t-30 -38q-54 -79 -87 -179q-25 -78 -32 -114q-15 -82 -15 -134q0 -71 37 -112l27 -30l5 -8q-10 -3 -19 -3q-11 0 -21 6q-37 27 -58 60t-25 76q-1 9 -1 27q0 47 10 102q18 116 77 235q38 77 84 122q20 20 37 27q12 6 19 6q5 0 11 -3q12 -7 14 -16z
M41 278q13 83 38 153l21 57l3 6l30 63q10 18 16 27q5 6 22 33l-3 1l-21 -33l-15 -23q-24 -45 -34 -73q-20 -50 -29 -76q-28 -88 -34 -171l3 8zM154 573q-11 -13 -27 -46.5t-17 -43.5zM82 402l15 46q5 8 6 15l-2 1q-4 -10 -5 -15q-2 -2 -2 -3l-21 -63v-4q5 7 9 23zM68.5 351
q1.5 8 2.5 12l-3 1l-5 -25q-6 -15 -3 -26v1l3 25q4 4 5.5 12zM55.5 305q-0.5 -5 0.5 -10q3 8 4 18q-4 -3 -4.5 -8zM49 249h-1v-14h1v14zM36 217q-1 8 -1 24l-2 -24h3z" />
    <glyph glyph-name="parenright" unicode=")" horiz-adv-x="240" 
d="M24 17q-3 1 -4 3.5t1 4.5l3 3q17 15 32 36t19 27q14 18 22 38t19 56q21 64 33 127q13 65 16 118q0 11 2 31q2 32 2 47q-1 49 -3 75.5t-9 54.5q-3 11 -14 47q1 -1 -2 9q25 -3 35 -21q22 -36 32 -85q12 -55 12 -124q0 -30 -4 -88q-7 -81 -38 -175l-7 -20q-5 -17 -17 -51
q-5 -11 -9.5 -21t-8.5 -19q-2 -3 -6.5 -7.5t-3.5 -10.5l-3 -3q-33 -28 -39 -34q-17 -17 -42 -19q-12 0 -18 1zM187.5 289q12.5 58 10.5 79q-12 -78 -33 -152q10 15 22.5 73zM159 288q9 31 11 69q-5 -23 -13 -69h2zM181 332q-2 0 -2 1q-7 -36 -13 -58q1 -1 3 -1q10 38 12 58z
M135 96l4 6q-5 -2 -6 -3.5t-2 -8.5z" />
    <glyph glyph-name="braceleft" unicode="{" horiz-adv-x="600" 
d="M355 -19q-25 0 -53.5 11t-45.5 29q-24 25 -33 62.5t-9 110.5v45q0 50 -8 86.5t-18 36.5h-10q8 3 12.5 10t10 20t9.5 22q12 28 26 108q10 59 31.5 92t62.5 47.5t111 14.5h2q26 0 26 -3q0 -1 -8.5 -5.5t-13.5 -7.5q-52 -24 -92.5 -55.5t-49.5 -82.5q-7 -38 -13 -60t-18 -48
q-8 -20 -29 -32.5t-53 -19.5q47 -8 69.5 -37.5t22.5 -85.5v-45q0 -136 28 -173q16 -21 30.5 -27.5t23.5 -7.5t12 -1q-8 -4 -23 -4zM331 642l-1 2q-9 -6 -12 -11q1 0 0.5 -0.5t0.5 -0.5q10 8 12 10zM363 640q-27 -14 -43 -39zM331 628q3 2 5 5v1.5t-1 0.5q-2 -3 -5 -5t-5 -5
l1 -2q2 3 5 5zM295 563q-9 -11 -18 -47.5t-7 -46.5zM257 520l11 42q-20 -49 -24 -94zM281 560q-17 -33 -20 -67zM260 252q-4 -11 -4 -44q0 -43 5 -53q-1 30 -1 97zM248 245q-4 -17 -4 -40q0 -20 2 -30zM235 243q-4 -32 -4 -48q0 -20 5 -48z" />
    <glyph glyph-name="braceright" unicode="}" horiz-adv-x="600" 
d="M-8 -13.5q11 1.5 25 9.5t27 25q28 37 28 173v45q0 56 22.5 85.5t69.5 37.5q-32 7 -53 19.5t-29 32.5q-12 26 -18 48t-13 60q-9 51 -49.5 82.5t-92.5 55.5q-5 3 -13.5 7.5t-8.5 5.5q0 3 26 3h2q70 0 111 -14.5t62.5 -47.5t31.5 -92q14 -80 26 -108q4 -9 10 -23t10.5 -20.5
t11.5 -8.5h-10q-10 0 -18 -36.5t-8 -86.5v-45q0 -73 -9 -110.5t-33 -62.5q-17 -18 -45.5 -29t-53.5 -11q-15 0 -23 4q3 0 14 1.5zM37.5 632.5q-0.5 0.5 0.5 0.5q-3 5 -12 11l-1 -2q2 -2 12 -10q1 0 0.5 0.5zM-7 640l43 -39q-16 25 -43 39zM31 625q-2 3 -5 5t-5 5
q-1 0 -1 -0.5v-1.5q2 -3 5 -5t5 -5zM79 515.5q-9 36.5 -18 47.5l25 -94q2 10 -7 46.5zM88 562l11 -42l13 -52q-4 45 -24 94zM75 560l20 -67q-3 34 -20 67zM100 208q0 33 -4 44q0 -67 -1 -97q5 10 5 53zM112 205q0 23 -4 40l2 -70q2 10 2 30zM125 195q0 16 -4 48l-1 -96
q5 28 5 48z" />
    <glyph glyph-name="bracketleft" unicode="[" horiz-adv-x="352" 
d="M44 60q-6 2 -10 4q-9 4 -12 10t-1 15q8 33 9 37l33 108l8 26q19 64 34 113q23 77 45 139q29 83 47 148q1 4 12 34q3 12 16 13h57q8 0 24 -2q21 -2 26 -19q-5 -5 -12 -6t-9 -1q-36 -8 -55 -11q-7 -1 -8 -8l-17 -74q-12 -46 -20 -69q-30 -93 -57 -189q-6 -23 -22 -69
l-10 -31l-35 -110q-1 -4 -4.5 -11.5t-4.5 -13.5q-2 -6 -2 -7q0 -5 9 -8l73 -18q2 -1 9 -2.5t12 -5.5q0 -5 -4 -6t-5 -1q-11 -5 -28 -5q-6 0 -20 2zM120 269l31 104l45 143l8 27l-2 1q-19 -50 -35 -101t-36 -126l-21 -73zM108 327q32 112 66 207l1 7l-1 2q-46 -122 -69 -219z
M146 410q23 71 29 92q-10 -17 -33.5 -94.5t-22.5 -90.5z" />
    <glyph glyph-name="bracketright" unicode="]" horiz-adv-x="320" 
d="M60 38q-14 0 -26 4q-17 4 -14 24q12 4 18 4q9 0 18 -6q2 -2 8 -2l11 1q19 3 22 22l20 83q25 102 43 169q19 73 59 217q6 22 20 66l10 33l1 10h-18q-8 0 -19.5 -0.5t-26.5 0.5q-20 2 -30 19q3 5 8.5 6t6.5 1q26 2 38 2l39 3h6q15 0 28 -7q10 -6 14.5 -16t2.5 -21
q-18 -87 -54 -218l-44 -171q-12 -46 -38 -136l-9 -31q-4 -17 -5 -23q-3 -16 -17 -19q-15 -4 -58 -13q-5 -1 -14 -1zM199 315l15 56q7 29 13 50q18 68 26 103q-27 -85 -63 -225l-23 -87l3 -1q23 79 29 104zM219 500q-1 1 -3 1q-33 -113 -49 -186q2 0 3 -1q32 124 49 186z
M199.5 375.5q15.5 60.5 15.5 66.5q-6 -14 -20.5 -69t-14.5 -65q4 7 19.5 67.5z" />
    <glyph glyph-name="hyphen" unicode="-" 
d="M255 304l-30 3q-10 1 -29.5 3t-34.5 3q-38 3 -74 3q-24 0 -45 7q-7 2 -13 7t-7 6q-3 3 -2.5 5.5t4.5 4.5q6 3 14 3l59 -2q53 -4 106 -12q18 -2 54 -8l27 -4l21 -3q12 -1 15.5 -3t13.5 -12q-3 -9 -17 -7z" />
    <glyph glyph-name="uni00AD" unicode="&#xad;" 
d="M255 304l-30 3q-10 1 -29.5 3t-34.5 3q-38 3 -74 3q-24 0 -45 7q-7 2 -13 7t-7 6q-3 3 -2.5 5.5t4.5 4.5q6 3 14 3l59 -2q53 -4 106 -12q18 -2 54 -8l27 -4l21 -3q12 -1 15.5 -3t13.5 -12q-3 -9 -17 -7z" />
    <glyph glyph-name="endash" unicode="&#x2013;" horiz-adv-x="361" 
d="M252 300q-62 3 -123 9q-14 1 -32 4t-25 4l-26 4q-12 1 -24 13q-3 3 -2 4q2 4 4 5h10q34 -4 51 -5q19 -2 53 -4q97 -8 152 -13q7 0 16.5 -2t14.5 -3q13 -3 20 -19q-8 -1 -20 -1q-46 2 -69 4z" />
    <glyph glyph-name="emdash" unicode="&#x2014;" horiz-adv-x="441" 
d="M63 308q-23 0 -40 16q-3 5 -3 7q0 3 6 6q29 7 38 8q42 4 126 10l47 3q11 1 33 1h29q10 0 24.5 0.5t33.5 -0.5q16 -1 43 -7q13 -4 21 -22q-10 -4 -13 -4q-30 -4 -45 -4q-50 -2 -75 -2h-45q-20 -2 -31 -2q-39 -3 -124 -7q-6 0 -14 -2q-4 -1 -11 -1z" />
    <glyph glyph-name="underscore" unicode="_" horiz-adv-x="328" 
d="M23 42q-3 2 -3 5.5t4 4.5q4 3 18 8q27 6 71 4l167 -11q11 -1 16 -3t12 -10q-1 -6 -9 -8q-4 0 -9 -0.5t-12 0.5l-147 4q-28 0 -61 -5q-25 -3 -47 11z" />
    <glyph glyph-name="quotesinglbase" unicode="&#x201a;" horiz-adv-x="138" 
d="M45 -24q-12 0 -23 10l13 11q26 20 39 45q5 10 5 16q0 2 -2 10l-5 -4q-9 -10 -20 -10q-10 0 -23 8q-9 6 -9 14q0 6 2 9q7 16 16.5 25t25.5 10q4 0 6 2q7 5 12 5q6 0 16 -4q15 -7 18 -24q2 -8 2 -23q0 -29 -15 -54.5t-41 -40.5q-10 -5 -17 -5z" />
    <glyph glyph-name="quotedblbase" unicode="&#x201e;" horiz-adv-x="138" 
d="M118 76q0 -29 -15 -54.5t-41 -40.5q-10 -5 -17 -5q-12 0 -23 10l13 11q26 20 39 45q5 10 5 16q0 2 -2 10l-5 -4q-9 -10 -20 -10q-10 0 -23 8q-9 6 -9 14q0 6 2 9q7 16 16.5 25t25.5 10q4 0 6 2q7 5 12 5q6 0 16 -4q15 -7 18 -24q2 -8 2 -23z" />
    <glyph glyph-name="quotedblleft" unicode="&#x201c;" horiz-adv-x="297" 
d="M27 539q-7 0 -7 5q0 3 3 12v2q25 47 43 87q13 26 41 26v-5q0 -2 -1.5 -5.5t-2.5 -6.5l-35 -86q-11 -27 -32 -28zM88 542q-9 0 -6 10l3 6q3 7 17 38q10 28 16 41q9 20 26 21q4 0 6.5 1t4.5 2q4 -5 4 -12q0 -5 -3 -11q-9 -36 -21 -68q-9 -23 -36 -28h-8h-3z" />
    <glyph glyph-name="quotedblright" unicode="&#x201d;" horiz-adv-x="184" 
d="M89 511q-3 1 -6 1q-7 2 -9.5 5t-2.5 10q0 11 2 16q11 31 17 42l31 60q6 12 17 12q9 0 17 -8q1 -1 5 -3t4 -4q0 -3 -2.5 -7t-3.5 -6q-42 -67 -56 -109l-7 -11zM34.5 539q-2.5 1 -5.5 2q-5 2 -7 4.5t-2 6.5q0 10 4 22q18 46 28 69q4 10 11 10q4 0 10 -3q1 -1 14 -11
q3 -3 2 -5.5t-1 -3.5q-12 -22 -17 -33q-8 -16 -13 -28t-8 -20q0 -1 -2 -5.5t-7 -6.5q-4 1 -6.5 2zM76 628q-1 1 -3 1l-9 -17q1 -1 3 -1zM119 582q-1 1 -3 1l-15 -31q2 0 3 -1z" />
    <glyph glyph-name="quoteleft" unicode="&#x2018;" horiz-adv-x="126" 
d="M35 522q-1 4 -1 10l-1 -1l-2 -6l-11 3q1 3 2 7.5t3 7.5l33 110l15 64q0 5 1 9q5 -2 14 -2q9 -2 13 -5.5t5 -12.5q-2 -16 -2 -22q-16 -83 -42 -156q-1 -3 -2 -5.5t-2 -4.5z" />
    <glyph glyph-name="quoteright" unicode="&#x2019;" horiz-adv-x="126" 
d="M38 520q-9 2 -13 5.5t-5 12.5q2 16 2 22q16 83 42 156q1 3 2 5.5t2 4.5l23 -4q1 -4 1 -10l1 1l2 6l11 -3q-1 -3 -2 -7.5t-3 -7.5l-33 -110l-15 -64q0 -5 -1 -9q-5 2 -14 2z" />
    <glyph glyph-name="guillemotleft" unicode="&#xab;" horiz-adv-x="372" 
d="M152 168q-35 43 -98 91q-7 5 -27 25q-7 7 -7 15q0 7 7 14l50 46l18 17q64 60 92 94q6 7 11 7q3 0 9 -3l7 -3q10 -6 10 -12q0 -5 -4 -12q-10 -20 -36 -48l-75 -80l-37 -38l26 -22q54 -46 79 -79l12 -17l3 -11q-29 0 -40 16zM285 172l-44 37q-24 20 -72 62q-8 7 -15 17
q-2 3 -2 7q0 5 4 9l16 15l135 128l4 4q10 8 13 8q4 0 13 -6q5 -3 8.5 -6.5l6.5 -6.5q-3 -4 -7.5 -11t-8.5 -11l-83 -87l-49 -53l34 -31q48 -44 71 -67q5 -4 7 -7.5t1 -9.5q-23 2 -32 9z" />
    <glyph glyph-name="guillemotright" unicode="&#xbb;" horiz-adv-x="372" 
d="M156 149v3q0 9 8 21q8 14 26 40q8 11 14.5 19.5t10.5 14.5q18 26 32.5 46.5t25.5 35.5q12 17 24 36q-31 33 -33 36q-43 43 -66 77q-6 6 -7 12q-1 1 -1 4q0 5 7 5q24 0 34 -14q19 -25 42.5 -48.5l27.5 -27.5l30 -30l15 -17q6 -6 6 -9q0 -2 -1.5 -4.5t-2.5 -4.5l-5 -6
q-44 -56 -134 -168q-8 -11 -17 -20q-8 -8 -15 -8q-2 0 -12 4zM32 109q0 2 -2 6l-10 -3q2 12 3 13q13 26 16 31q29 53 89 159q5 8 28 52q3 5 4 9t2 6q-37 31 -35 29q-16 13 -17 14l-30 27q-5 5 -14 21l-2 5q0 5 8 5q22 -2 33 -15q17 -20 40.5 -38.5t28.5 -22.5l35 -31
q6 -4 6 -11q0 -4 -3 -9l-21 -37q-52 -84 -79 -126l-48 -76l-7 -11q-14 5 -25 3zM199 362q-2 2 -3 2q-4 -6 -10 -20q2 0 3 -1z" />
    <glyph glyph-name="guilsinglleft" unicode="&#x2039;" horiz-adv-x="244" 
d="M152 168q-35 43 -98 91q-7 5 -27 25q-7 7 -7 15q0 7 7 14l50 46l18 17q64 60 92 94q6 7 11 7q3 0 9 -3l7 -3q10 -6 10 -12q0 -5 -4 -12q-10 -20 -36 -48l-75 -80l-37 -38l26 -22q54 -46 79 -79l12 -17l3 -11q-29 0 -40 16z" />
    <glyph glyph-name="guilsinglright" unicode="&#x203a;" horiz-adv-x="235" 
d="M32 109q0 2 -2 6l-10 -3q2 12 3 13q13 26 16 31q29 53 89 159q5 8 28 52q3 5 4 9t2 6q-37 31 -35 29q-16 13 -17 14l-30 27q-5 5 -14 21l-2 5q0 5 8 5q22 -2 33 -15q17 -20 40.5 -38.5t28.5 -22.5l35 -31q6 -4 6 -11q0 -4 -3 -9l-21 -37q-52 -84 -79 -126l-48 -76l-7 -11
q-14 5 -25 3zM199 362q-2 2 -3 2q-4 -6 -10 -20q2 0 3 -1z" />
    <glyph glyph-name="quotedbl" unicode="&#x22;" horiz-adv-x="213" 
d="M67 536q-14 4 -18 15q-4 9 -6 18q-7 39 -19 117l-4 33q0 9 6 9q1 0 13 -4q9 -4 15.5 -8t11.5 -6q5 -61 17 -179q-2 1 -16 5zM178 516q-11 3 -16.5 7.5t-9.5 13.5q-1 7 -5 21q-12 74 -10 147l1 9q18 -6 27 -8l4 -10h1v6l13 -5q0 -3 0.5 -6.5t-0.5 -7.5l2 -102l7 -61
q1 -3 1 -8q-5 2 -15 4zM56 705l-3 1q0 -2 0.5 -6t-0.5 -7l4 -2q-1 5 -1 14z" />
    <glyph glyph-name="quotesingle" unicode="'" horiz-adv-x="96" 
d="M61 516q-11 3 -16.5 7.5t-9.5 13.5q-1 7 -5 21q-12 74 -10 147l1 9q18 -6 27 -8l4 -10h1v6l13 -5q0 -3 0.5 -6.5t-0.5 -7.5l2 -102l7 -61q1 -3 1 -8q-5 2 -15 4z" />
    <glyph glyph-name="uni00A0" unicode="&#xa0;" horiz-adv-x="250" 
 />
    <glyph glyph-name="cent" unicode="&#xa2;" horiz-adv-x="273" 
d="M81 52q3 31 13 75l6 30q-9 5 -11 5q-53 24 -66 88q-3 15 -3 31q0 38 22 95q14 35 42 68q30 35 70 42q6 1 11.5 0.5t9.5 -0.5l14 60l6 -1q9 -2 13 -5t4 -9q0 -5 -1 -9l-10 -42l8 -5q26 -13 39 -39q3 -6 5 -21q0 -4 -4 -12q-2 1 -5 2t-6 1q-9 3 -12 14q-9 28 -31 39
l-21 -85q-35 -144 -47 -198q3 -1 10 -1q9 0 16 3q6 2 16 8l14 9q11 7 18 7q5 0 17 -6q0 -8 -9 -17q-17 -19 -49 -22q-9 -2 -29 -2q-1 0 -4.5 -0.5t-4.5 -2.5t-2 -6q-9 -44 -16 -74q-3 -12 -8 -28zM166 448q-8 -3 -10 -5q-19 -17 -23 -22q-45 -58 -57 -133q-2 -16 -2 -23
q0 -26 10 -47q9 -21 21 -33zM68.5 321q5.5 19 11.5 34q6 14 14.5 32t12.5 26q-16 -13 -32.5 -56.5t-13.5 -61.5q2 7 7.5 26zM62 386q-20 -31 -27 -82zM76 384l-2 1q-7 -8 -15 -32t-7 -32z" />
    <glyph glyph-name="currency" unicode="&#xa4;" horiz-adv-x="409" 
d="M28 132l45 57q2 4 4.5 6.5l4.5 4.5q-3 5 -6 6q-35 34 -35 84q0 75 62 149l7 8q-5 14 -15 28.5t-14 19.5q8 2 11 2q16 0 26 -13q7 -8 13 -19q24 11 32 13q16 4 22 4q18 0 34 -10q3 -3 7 -3q45 -15 77 -50l8 -7l6 5l42 46q6 6 10 6q3 0 9 -3q3 -1 11 -7q-3 -6 -4 -7
l-48 -57q-7 -7 -4 -15q8 -23 8 -50q0 -47 -31 -94q-7 -10 -18.5 -22.5t-17.5 -19.5q7 -12 21 -42q1 -1 3 -5t0 -9l-2 -1l-14 -1q-6 0 -10.5 4t-11.5 16l-15 23q-30 -10 -63 -10q-40 0 -77 17l-11 -12q-23 -27 -44 -53l-2 -2q-7 -9 -12 -9q-6 0 -16 7zM220 213q69 49 71 140
q0 34 -21 60.5t-50 38.5q-7 3 -16 3q-13 0 -21 -8q-20 -14 -22 -16q-12 -11 -10 -24q-2 0 -5.5 -0.5t-5.5 -2t-4 -4.5q-29 -46 -37 -88q-3 -15 -3 -31q0 -26 9 -44q10 -20 26.5 -31.5t36.5 -11.5q12 0 23 4q12 4 29 15zM128 412q-15 -10 -30.5 -44.5t-14.5 -54.5
q14 54 45 99zM83 386l-2 2q-17 -30 -19 -51zM93 380q-16 -19 -19 -46zM326 328l-14 -55q15 26 14 55zM300 322q-4 -13 -5 -22q9 12 5 22zM311 320q-1 -9 -5 -22q9 12 5 22z" />
    <glyph glyph-name="dollar" unicode="$" horiz-adv-x="336" 
d="M89 102q7 21 16 52q-5 1 -13 1q-4 0 -20.5 1t-30.5 5q-6 2 -18 8q-3 0 -3 5q0 2 1.5 3.5t2.5 1.5q17 2 25 1q22 -2 32 -2q11 0 33 2l28 92l-19 6q-31 11 -57 30q-27 20 -27 58q0 48 38 89q50 55 128 78q13 3 17 16q3 16 13 46q1 4 5 12q20 -7 21 -8q10 -5 14 -13
q1 -1 1 -4q0 -4 -2 -10l-10 -32q13 -3 24 -7q13 -5 20.5 -15.5t7.5 -24.5q0 -15 -6 -32q-11 -38 -31 -68q-6 -8 -9 -11q-6 -6 -11 -6t-11 3l-15 8q0 9 4 18t5 11q18 43 22 63q1 2 3 9.5t0 14.5q-13 -1 -15.5 -2.5t-6.5 -12.5l-51 -156l-9 -30q-3 -5 -4 -12l17 -5
q32 -8 57 -27q5 -2 6 -5q11 -11 11 -23q0 -13 -13 -23q-19 -15 -33 -21q-47 -23 -85 -29l-4 -1l-18 -50q-7 -22 -23 -64l-3 -6l-3.5 -7t-4.5 -6.5t-6 -1.5l-12 2q5 29 22 79zM203 478l-2 2q-8 -3 -10 -4q-24 -15 -40 -27q-22 -16 -40 -43q-19 -28 -15 -62q4 -18 14 -27
q14 -13 40 -18zM293 457q-20 -45 -25 -55l2 -1q19 29 23 56zM270 424l-3 1l-6 -12l2 -1q3 4 7 12zM100 419q-20 -19 -19 -41zM61 399l4 13q-2 0 -3 1q-1 -3 -3.5 -8.5t-0.5 -11.5zM77 407q-5 -5 -6 -7t0 -10zM196 208q11 6 19 13q7 9 7 14t-8 13q-10 9 -24 12.5t-17 4.5
q-15 -42 -25 -76q24 5 48 19z" />
    <glyph glyph-name="minus" unicode="&#x2212;" horiz-adv-x="250" 
d="M47 286q-12 0 -25 11q-3 2 -2.5 4.5t4.5 4.5q8 4 19 6q7 0 22 1.5t27 0.5l93 -9q7 -1 21 -1h4q11 0 20 -10q-5 -7 -15 -7l-49 3q-9 1 -22.5 2t-31.5 1q-30 0 -58 -6q-2 -1 -7 -1z" />
    <glyph glyph-name="multiply" unicode="&#xd7;" horiz-adv-x="270" 
d="M20 157q2 4 5 9.5t7 12.5q23 34 50 71l29 37q5 7 5 8q-12 16 -38 44q-34 39 -45 55q0 3 1 5q3 1 9 1q14 0 22 -8q12 -11 23 -23q21 -21 31 -33l16 -17l8 9l60 70q2 3 15 13q8 7 15 7q8 0 17 -9l-98 -109q5 -10 6 -11l63 -89q2 -2 8 -12q-26 0 -37 14q-17 22 -53 66
q-1 2 -3 3.5t-4 4.5l-23 -29q-52 -64 -73 -99q-6 3 -16 9z" />
    <glyph glyph-name="divide" unicode="&#xf7;" horiz-adv-x="315" 
d="M120.5 356q-6.5 6 -8.5 16q-1 3 -1 8q0 8 4 15q7 11 21 11q30 0 42 -18q7 -10 3 -19q-3 -12 -10.5 -18.5t-18.5 -6.5q-8 0 -13 2q-12 4 -18.5 10zM56 263q-20 0 -36 13q2 8 12 8q15 3 47 7q79 7 129 5q20 -1 62 -7q17 -4 25 -17l-17 2l-40 4q-84 3 -170 -14q-4 -1 -12 -1
zM133.5 169q-5.5 1 -12.5 4q-15 8 -15 25q0 12 6 20.5t17 10.5q4 1 11 1q12 0 20 -7q4 -2 4 -4q2 -8 4 -26q0 -11 -9 -20q-3 -4 -7.5 -5t-9.5 -1q-3 1 -8.5 2z" />
    <glyph glyph-name="equal" unicode="=" horiz-adv-x="274" 
d="M33 359q1 6 9 8q8 1 17 2.5t17 2.5q50 4 75 4q27 0 54 -3q10 -1 30 -7q12 -5 19 -17l-6 -1q-22 7 -49 7q-12 0 -36 -2q-28 -2 -84 -10q-26 -3 -46 16zM59 231q-20 0 -39 18l11 5q29 7 37 8q34 8 88 19q13 3 39 5h3q15 0 25 -12q-3 -6 -10 -8t-8 -2l-66 -16l-64 -15
q-6 -2 -16 -2z" />
    <glyph glyph-name="notequal" unicode="&#x2260;" horiz-adv-x="273" 
d="M20 10v4q0 6 4 20q21 68 37 115l21 57l8 22l2 9l-5 1q-6 0 -18 -4q-10 -2 -16 -2t-9 2q-14 7 -17 8q1 6 4 8t8 3q17 5 41 10q18 3 22 6.5t11 20.5l17 45l3 10h-10q-10 -1 -26.5 -3.5t-29.5 -2.5q-16 0 -30 12l-6 5v2q0 6 8 6q9 2 29 4l68 6q9 0 13 9l39 94l9 16
q8 -2 12 -4q11 -5 11 -13l-2 -8q-3 -8 -17 -41l-10 -24l-11 -27h30l23 -3q15 -4 20 -16q-5 -4 -17 -4l-59 -3q-8 0 -11 -7l-26 -64l-1 -6l28 3l55 5h5q15 0 26 -12q-12 -5 -13 -5l-61 -9q-14 -3 -42 -7q-9 -1 -14 -12l-16 -42q-40 -105 -60 -168q-1 -3 -8 -22z" />
    <glyph glyph-name="greater" unicode="&#x3e;" horiz-adv-x="282" 
d="M41 184q-8 0 -15 10q-1 2 -6 5q3 8 9.5 14t8.5 7l24 18q27 22 53 41l90 69l11 10l-18 9l-33 15l-23 11q-31 15 -43 32l-6 12q3 1 7 1q9 0 15 -6q11 -11 31 -20q29 -12 85 -38q21 -11 28 -24q3 -4 3 -8q0 -3 -6 -8q-11 -10 -25 -19l-128 -91l-41 -30l-11 -7q-6 -3 -10 -3z
" />
    <glyph glyph-name="less" unicode="&#x3c;" horiz-adv-x="247" 
d="M201 202.5q-3 0.5 -6 2.5q-24 12 -35 20q-47 33 -120 88q-6 4 -17 20q-3 5 -3 7q0 4 6 8t11 6.5l9 4.5l123 62l20 9q8 2 11 2q20 0 27 -22l-157 -93l7 -7q74 -56 111 -85q10 -9 17 -18q1 -1 2 -6q-3 1 -6 1.5z" />
    <glyph glyph-name="greaterequal" unicode="&#x2265;" horiz-adv-x="319" 
d="M124 276q-4 0 -7.5 3t-7.5 9l-5 5q1 8 12 12q12 7 22.5 12t17.5 9l24 12l67 35v4l-15 6q-56 25 -92 48q-8 5 -22 17l-12 17q-1 1 -0.5 3t1.5 3t6 1q13 -4 22 -15l10 -9q43 -25 118 -53q8 -4 12 -5q16 -8 22 -24q2 -6 2 -7q0 -5 -7 -9q-22 -12 -26 -14l-29 -13
q-51 -21 -95 -42l-4 -1q-9 -4 -14 -4zM52 192q-10 0 -25 11l-7 7q2 7 12 9q8 2 19 4.5t24 4.5q56 6 89 8q21 0 63 -4q24 -2 31 -22l-27 -1q-63 3 -135 -10q-6 -1 -17.5 -2.5t-19.5 -3.5q-2 -1 -7 -1z" />
    <glyph glyph-name="lessequal" unicode="&#x2264;" horiz-adv-x="315" 
d="M251 274q-78 16 -130 26q-7 2 -12.5 2.5t-8.5 0.5l-21 3q-28 6 -43 34q-3 6 2 11l13 9l148 102q2 1 20 14q13 -6 20 -18q4 -4 4 -7t-5 -8q-19 -19 -30 -27l-97 -72l-11 -9l18 -4l105 -26q10 -2 25 -10q13 -7 17 -22q-6 1 -14 1zM20 187q1 6 11 8q49 11 56 12q34 5 102 13
q24 2 35 2q19 0 35 -3q24 -5 33 -20l3 -6l-3 -1q-25 5 -44 5q-17 0 -49 -4q-36 -5 -133 -20q-10 -2 -16 -2q-15 -2 -30 16z" />
    <glyph glyph-name="plusminus" unicode="&#xb1;" horiz-adv-x="460" 
d="M63 293q-23 0 -40 16q-3 5 -3 7q0 3 6 6q29 7 38 8q42 4 126 10q5 0 8 1l-2 38q0 6 -2 14q-1 4 -1 11q0 23 16 40q4 3 7 3t6 -6q7 -29 8 -38l5 -60h2q11 1 33 1h29q10 0 24.5 0.5t33.5 -0.5q16 -1 43 -7q13 -4 21 -22q-10 -4 -13 -4q-30 -4 -45 -4q-50 -2 -75 -2h-45
q-4 0 -5 -1q0 -9 2 -27l1 -11q1 -8 1 -26v-14q0 -10 -7 -43q-4 -13 -22 -21q-4 10 -4 13q-2 15 -4 45l-2 35l-3 47l-112 -6q-6 0 -14 -2q-4 -1 -11 -1zM440 93q-10 -4 -13 -4q-30 -4 -45 -4q-50 -2 -75 -2h-45q-20 -2 -31 -2q-39 -3 -124 -7q-6 0 -14 -2q-4 -1 -11 -1
q-23 0 -40 16q-3 5 -3 7q0 3 6 6q29 7 38 8q42 4 126 10l47 3q11 1 33 1h29q10 0 24.5 0.5t33.5 -0.5q15 -1 43 -7q13 -4 21 -22z" />
    <glyph glyph-name="approxequal" unicode="&#x2248;" horiz-adv-x="406" 
d="M302 336q-30 0 -63 14l-53 22q-28 11 -54 11q-21 0 -41 -7q-13 -4 -22 -10t-24 -19l-12 11q5 13 19 22q40 26 83 26q11 0 33 -4q16 -3 35 -9t26 -8q27 -8 51 -8q28 0 66 12l15 6l4 1q6 0 13 -6t8 -13q0 -2 -1 -4t-3 -3l-24 -21l-19 -8q-16 -5 -37 -5zM280 203
q-17 0 -36 8l-50 25q-26 14 -39 18q-20 6 -39 6q-43 0 -83 -29q-13 8 -13 13q0 6 13 14q41 25 80 25q27 0 51 -10q11 -4 44 -19q3 -1 16.5 -6.5t26.5 -5.5q16 0 39 7l20 6q8 2 11 2q14 0 23 -15q1 -2 3 -3.5t4 -4.5q-10 -7 -11 -8q-26 -13 -31 -16q-14 -7 -29 -7z" />
    <glyph glyph-name="asciitilde" unicode="~" horiz-adv-x="400" 
d="M279.5 267.5q-14.5 4.5 -28.5 10t-20 7.5q-16 7 -20 8q-26 12 -40 16q-20 5 -34 5q-38 0 -81 -25q-7 -6 -13 -11.5t-11 -10.5l-12 12q4 15 18 24q47 34 97 34q22 0 64 -12q13 -3 23 -6.5t18 -5.5q21 -6 40 -6q23 0 40 8q5 2 11.5 4t12.5 4q3 2 9 2q9 0 18 -9q2 -2 4 -5.5
t4 -5.5q1 -1 0.5 -4t-1.5 -4q-31 -34 -68 -34q-16 0 -30.5 4.5z" />
    <glyph glyph-name="logicalnot" unicode="&#xac;" horiz-adv-x="515" 
d="M490 80l1 -21q0 -16 -6 -11q-7 6 -20 6q-10 0 -24.5 -4t-18.5 -4q-7 0 -7 8q3 46 4 62q6 50 6 74q0 7 7 37q6 25 4 29q-5 8 -9 13.5t-3 5.5q-8 2 -25.5 -0.5t-22.5 -3.5q-59 -9 -95 -9q-42 0 -118 -2l-39 -1q-46 -3 -72 -3q-32 0 -32 23q0 12 10 24t22 13l69 2
q92 4 160 4q123 0 158 -16q24 -10 42 -44q14 -27 14 -72q0 -29 -6 -81q-1 -8 1 -29zM262 312q3 -1 10 -1t10 2v1zM75 304q2 -3 4 -2q41 0 121 4q9 0 20 2t16 3h-1l-136 -4zM172 297q-59 0 -96 -7l97 4q-1 1 -1 3zM277 289q15 1 23 2q-29 2 -50 -2q-2 -1 -4 -0.5t-4 -0.5
l-106 -5q-7 0 -29 -1t-41 -4q-4 2 -7 -1q2 -1 5 -1l44 2q60 2 92 4q13 1 28 3t22 3q12 0 27 1zM427 274zM453 110q7 8 11 46t2 61q0 12 1 17q-3 0 -4 1q1 -4 0.5 -9t0.5 -9q-6 -50 -8 -70l-4 -36zM465 89q8 28 10 60l-2 1q-3 -20 -11 -60q2 0 3 -1zM486 129l-2 1l-12 -55
q11 24 14 54zM446.5 78.5q4.5 10.5 5.5 20.5q-9 -8 -12 -36q2 5 6.5 15.5z" />
    <glyph glyph-name="asciicircum" unicode="^" horiz-adv-x="229" 
d="M20 384q1 3 2 8.5t3 8.5q9 21 21 39l51 83q7 11 14 11q3 0 11 -3q17 -7 27 -25l12 -20q20 -32 24 -40q9 -16 19 -37q2 -4 3 -10.5t2 -10.5q0 -2 -1 -3.5t-1 -3.5q-21 3 -29 24q-11 29 -38 67l-12 19l-3 3q-48 -57 -81 -122z" />
    <glyph glyph-name="emptyset" unicode="&#x2205;" horiz-adv-x="473" 
d="M20 -1l27 40q10 14 32 42q5 7 1 13q-25 32 -25 76q0 19 5 44q14 59 61 127q33 46 72 73q51 35 107 35q35 0 73 -19l8 -4l8 8l35 34q8 8 12 8q5 0 13 -7l4 -4l-17 -18l-33 -35l3 -4q43 -35 43 -103q0 -25 -11 -62q-23 -83 -89 -149q-44 -48 -105 -55q-20 -2 -30 -2
q-62 0 -108 32l-6 3l-66 -85q-4 4 -14 12zM365 409q-16 14 -36 15q-16 2 -31 0q-5 -1 -17 -2t-21 -6q-35 -18 -63 -47q-60 -63 -90 -152q-9 -32 -9 -55q0 -28 8 -46q110 132 259 293zM300 111q25 25 45 56q43 64 52 127q1 8 1 24q0 31 -9 59l-7 14q-164 -177 -264 -298l7 -8
q28 -22 63 -22q61 0 112 48zM133 302l-2 2q-11 -16 -19 -36l2 -1zM106 296q-16 -20 -18 -36zM111 290l-8 -16q8 8 8 16zM405 274l-14 -45q12 17 14 45zM419 226.5q10 27.5 10 42.5l-15 -42q-8 -18 -16 -43q11 15 21 42.5zM416 262l-2 1q-2 -6 -4.5 -14t-5.5 -17q2 0 3 -1z
" />
    <glyph glyph-name="infinity" unicode="&#x221e;" horiz-adv-x="673" 
d="M32 199q-12 14 -12 28q0 9 3 16q7 18 18 29q26 31 63 52q43 23 92 23q30 0 61 -9q20 -6 58 -24l8 -2q5 0 9 4q2 2 7 4t8 4l26 13q9 4 20.5 9.5t26.5 11.5q46 19 90 19q19 0 44 -5q63 -13 93 -76q6 -13 6 -28q0 -19 -9.5 -35.5t-22.5 -25.5q-34 -24 -82 -24q-38 0 -64 9
q-18 6 -32 15q-45 29 -85 69l-5 5q-41 -24 -49 -30q-56 -36 -113 -60q-47 -20 -82 -20q-48 0 -77 28zM502 217q31 0 61 15q17 8 26.5 23.5t9.5 33.5q0 26 -19 45q-10 12 -23 13q-37 2 -61 -3q-46 -10 -96 -36l-23 -13q4 -5 5 -6q37 -37 86 -67q10 -4 15 -4q6 -1 19 -1z
M89 198q35 5 88 29q32 16 94 52q5 2 34 21v3q-6 2 -14 4.5t-17 5.5q-24 8 -45 8q-26 0 -56 -10q-52 -19 -90 -63q-12 -14 -16 -27q-3 -7 -3 -12q0 -13 21 -11h4zM609 263l-2 1l-5 -11l2 -2q4 8 5 12zM633 257l-13 -26l2 -1q13 13 11 27zM63 245q-6 -5 -7 -7t0 -7z" />
    <glyph glyph-name="integral" unicode="&#x222b;" horiz-adv-x="455" 
d="M25 -32q-5 2 -5 6q0 3 3 7t6 3h5q8 0 22 8l20 12q17 10 26 28q30 53 52 126q47 162 91 275q33 86 71 151q22 38 49 59q12 10 27 17q8 3 14 3q8 0 15.5 -4.5t11.5 -11.5q1 0 2 -8q-3 2 -9 2t-13 -5q-36 -25 -61 -66q-20 -34 -50 -108q-27 -74 -68 -213q-12 -44 -38 -132
q-14 -49 -40 -101q-17 -31 -43 -41l-29 -12q-10 -5 -23 -5q-6 0 -16 2q-6 1 -20 8zM151 39q17 33 33 84l26 90q1 8 5 19l9 29q-2 0 -3 1l-18 -62q-18 -63 -30 -98t-28 -71zM151 103l19 59q2 7 4 21q5 6 7 19l-2 1l-5 -20l-4 -9l-24 -75l-2 -7q5 4 7 11zM168 119q5 11 11 35
q-2 0 -3 1l-9 -35q-8 -14 -15 -42q13 25 16 41z" />
    <glyph glyph-name="product" unicode="&#x220f;" horiz-adv-x="532" 
d="M138 -41q-1 5 -1 13q0 14 5 32q16 71 53 181q46 143 125 354l24 57q1 2 1 4.5t2 5.5q-26 -4 -39 -7q-17 -3 -51 -11q-7 -1 -10 -8l-24 -57q-20 -46 -29 -70q-45 -107 -89 -240q-22 -68 -52 -166q-2 -7 -7 -28l-3 -11l-3 -1q-12 2 -16 4t-4 10q0 20 12 58q29 109 88 276
q47 131 80 210l3 10l-20 -5q-4 -1 -10.5 -2t-14.5 -4q-3 -1 -8 -1q-13 0 -26 13q3 6 13 10l30 9q16 4 38 11l16 6l4 1q16 1 35 5t25 5q30 6 41 8l26 3q62 8 93 10h46q14 0 21 -13q-7 -5 -16 -6t-13 -2l-89 -9l-17 -4q0 -1 -0.5 -2t0.5 -2q6 -6 6 -12q0 -2 -2 -10l-39 -97
l-93 -249q-41 -114 -71 -219q-5 -15 -13 -47l-6 -16zM351 536q-2 0 -3 1l-12 -30l3 -1zM327 477l-2 1l-5 -13q2 0 2 -1q5 12 5 13z" />
    <glyph glyph-name="summation" unicode="&#x2211;" horiz-adv-x="386" 
d="M194 44q-16 2 -22 2l-93 9q-24 4 -35 7q-9 4 -20 13q-7 6 -2 14l10 13q56 65 141 182l24 32q6 9 6 17q0 6 -1 9q-13 47 -20 80q-15 72 -19 129q-2 22 -2 32q0 7 2 21q2 10 6 13.5t13 3.5l73 -1l58 -2q13 0 27 -3q10 -1 15.5 -6.5t10.5 -17.5q-8 -2 -11 -2q-35 -4 -105 -4
h-42h-10q-5 -5 -5 -11q0 -20 6 -60q12 -76 20 -114q6 -27 20 -79q2 -8 2 -11q0 -9 -6 -18q-13 -17 -37 -51q-49 -69 -118 -153q-1 -1 -3 -4t-5 -6q32 -5 33 -5q76 -10 114 -14q15 -2 21 -12q-5 -5 -13 -5q-11 0 -33 2zM199 264q18 22 25 34l-3 1l-24 -33q-24 -34 -37 -50
l3 -2q18 22 36 50z" />
    <glyph glyph-name="radical" unicode="&#x221a;" horiz-adv-x="442" 
d="M72 78q-16 7 -18 20t-8 39q-10 52 -13 74q-4 24 -8 76l-2 27q-2 13 -2.5 22.5t-0.5 15.5v13q16 1 23.5 -4.5t11.5 -19.5q6 -22 12 -70l4 -27l13 -96l2 -7q4 3 5 6.5t1 4.5l30 100q7 27 13 47q21 78 26 101q7 28 13 62.5t9 48.5l6 31q1 10 3 17.5t3 12.5q1 16 19 22
q28 8 42 11q64 16 122 16q15 0 21 -1q9 -2 14.5 -5t8.5 -11q-2 -3 -7 -4t-6 -1q-40 -3 -76 -9q-51 -8 -89 -23q-15 -5 -18 -21q-22 -114 -34 -171q-9 -42 -28 -112l-42 -142q-6 -17 -15 -34q-4 -9 -7.5 -11t-13.5 0q-4 0 -14 2zM125 163h-2q-10 -28 -14 -42l2 -1
q10 28 14 43z" />
    <glyph glyph-name="partialdiff" unicode="&#x2202;" horiz-adv-x="313" 
d="M119 42q-46 0 -78 35q-14 16 -19 45q-2 13 -2 39q0 101 69 176q25 28 60 46q22 11 37 11q40 0 61 -36q2 -4 4 -7h3v45q0 43 -10 73q-9 26 -28 45q-14 14 -29 15q-11 1 -18 13q3 3 9 3q20 0 42 -17q45 -34 61 -92q12 -45 12 -90q0 -128 -56 -223q-23 -42 -62 -65
q-26 -16 -56 -16zM128 79q39 20 65 64q28 48 44 108q3 12 6.5 28.5t5.5 24.5v5q0 11 -9 15q-5 2 -7 6.5t-3 9.5q-1 3 -2 8.5t-4 12.5q-3 10 -13 10q-19 0 -45 -16q-109 -75 -109 -208q0 -8 2 -24q4 -26 12 -40q9 -15 21 -15q18 0 36 11zM54 269l6 10q-4 -1 -6 -6l-1 -4h1z
M80 278q-1 1 -3 1l-11 -22q2 0 2 -1zM224 175q4 7 8 21q-2 0 -2 1q-2 -4 -3.5 -9.5t-4.5 -10.5l-12 -25q8 7 14 23zM254 194l-38 -78q24 29 38 78zM233 175q-11 -22 -15 -32q13 15 15 32z" />
    <glyph glyph-name="uni00B5" unicode="&#xb5;" horiz-adv-x="502" 
d="M83 -137q-15 0 -30 8t-23 23q-10 21 -10 44q0 15 3 30q11 58 37 121q26 65 80 193l14 34q4 10 19 38q4 -2 8 -3.5t9 -4.5t7.5 -8.5t1.5 -11.5q-2 -7 -6.5 -24t-9.5 -30q-25 -76 -51 -143q-6 -18 -6 -38q0 -13 3 -27q0 -2 1 -3q3 -11 9 -11q4 0 9 4q24 20 35 31
q33 38 76 108l72 113q7 11 13 18.5t11 13.5q4 -1 7.5 -2t6.5 -2q13 -7 10 -20l-15 -51l-44 -134q-7 -24 -7 -42t10 -31q5 -4 8.5 -4.5t8.5 2.5q10 6 14 10q25 26 48 66l16 26l40 69l8 11l16 -4l-3 -8q-12 -24 -19 -36q-18 -36 -28 -54q-28 -50 -57 -82q-13 -15 -30 -15
q-23 0 -45 18t-22 46q0 23 9 54l10 32l3 13q-4 -3 -7 -8t-4 -7q-36 -63 -73 -109q-12 -15 -31 -32q-15 -12 -30 -12t-35 11q-1 1 -14 11q-3 -3 -3 -4l-7 -19q-24 -66 -30 -101q-2 -14 -2 -23v-4q0 -13 10 -23l12 9q8 6 14 6q7 0 12 -4q1 -1 4 -1q-1 -10 -7.5 -17t-15.5 -9
q-3 -1 -10 -1zM66 64.5q20 52.5 23 61.5l11 28q-12 -16 -39 -95t-27 -98q12 51 32 103.5zM55 -7l2 9q8 24 13 36l10 32l22 57l-2 2l-15 -39q-2 -4 -3.5 -10t-2.5 -9l-24 -68q-5 -12 -5 -21q4 5 5 11zM98 81q-2 0 -3 1l-7 -21q-26 -68 -33 -104q-1 -4 -1 -12z" />
    <glyph glyph-name="percent" unicode="%" horiz-adv-x="352" 
d="M29 39q3 10 4 13q46 108 100 212l27 53q10 20 23 46.5t31 59.5l46 86l23 43q5 10 11.5 25t9.5 23q2 3 4 12l-14 -2l-89 -25q-30 -8 -45 -13l-9 -3q-11 -5 -10 -17q4 -48 -38 -90q-4 -4 -10 -7q-12 -7 -22 -7q-9 0 -17 5q-16 9 -20 14q-18 16 -13 42q9 59 60 98
q13 10 27 10q12 0 23 -7q6 -4 17 -17q47 11 54 13q19 4 77 20q16 4 24 4q14 0 22.5 -10t5.5 -24q-4 -28 -22 -65l-39 -81l-32 -64q-38 -74 -112 -224l-3 -6l2 -1q30 34 88 102q17 1 30 -13l6 -6q20 -8 27.5 -25t7.5 -41q0 -36 -13 -77q-5 -17 -22 -34q-13 -11 -25 -11
q-15 0 -24.5 1.5t-18.5 7.5q-22 12 -22 46q0 16 5 34q1 5 3 14t3 16l-8 -8q-23 -29 -25 -31q-22 -29 -43 -55l-26 -34q-9 -11 -17 -11q-7 0 -14 4zM67 480q43 30 46 77q2 18 4.5 22t17.5 11l2 3l-9 1q-10 -2 -24 -14q-23 -22 -40 -57q-10 -19 -11 -38l1 -10q11 4 13 5z
M252 436l-1 1l-6 -10l2 -1zM215 403l-2 1l-5 -9l2 -1zM234 402q0 1 -2 1q-25 -48 -73 -146q0 -1 2 -1q25 48 73 146zM209 70q3 1 6 4q15 12 22 29q16 36 16 85q0 8 -1 14t-2 10q-4 12 -10 16q-3 -3 -3 -4q-3 -8 -16.5 -38.5t-21.5 -58.5q-5 -23 -4 -39q0 -12 8 -21q3 2 6 3z
M219 208l-3 1l-6 -16l2 -1q5 13 7 16zM205 175l-3 1q-1 -4 -2 -7l-2 -6l2 -1q2 6 5 13z" />
    <glyph glyph-name="at" unicode="@" horiz-adv-x="410" 
d="M106 127q-86 41 -86 137q0 34 13 71q29 77 76 119q43 40 90 48q28 4 40 4q71 0 118 -51q36 -39 33 -96q-6 -58 -46 -104l-13 -12q-14 -10 -33 -10q-18 0 -34 10q-14 8 -17 27l-3 16q-19 -26 -24 -31l-18 -21q-16 -16 -31 -16q-10 0 -32 10q-22 12 -22 37q0 11 4 33
q18 57 58 90q26 21 53 21q23 0 45 -13q4 -2 15 -13q6 -7 6 -14q0 -3 -2 -11q-9 -27 -13.5 -45.5t-4.5 -38.5q0 -16 7 -23q11 3 22 12q49 45 49 118q0 28 -10 48q-27 56 -84 56q-16 0 -24 -2q-63 -12 -109 -72q-46 -64 -57 -129q-3 -16 -3 -34q0 -30 12 -59q17 -38 58 -54
q24 -9 58 -9q16 0 28 5t26 14l28 21q8 6 13 6q6 0 14 -7v-2q0 -5 -8 -13q-22 -18 -35 -27q-22 -15 -62 -15q-54 0 -95 19zM102 396q-11 -11 -24.5 -40t-12.5 -39zM172 258q27 29 38 44l35 49l23 33h-12q-18 0 -33 -13q-46 -39 -62 -106l-2 -14l3 -2zM76 372l-2 1l-11 -21
l2 -1q8 14 11 21zM55.5 354.5q4.5 9.5 7.5 16.5l-2 1q-12 -24 -14 -38q4 11 8.5 20.5zM179 341q-19 -22 -25 -51z" />
    <glyph glyph-name="ampersand" unicode="&#x26;" horiz-adv-x="504" 
d="M288.5 35q-20.5 12 -34.5 31l-13 20q-4 0 -8 -2q-31 -12 -62 -12q-21 0 -38 4q-84 18 -107 94q-6 21 -6 41q0 30 15 67q15 35 39 63q25 30 60 43q1 0 4 3q-1 4 -2 7.5t-2 7.5q-12 27 -12 53q0 31 16 66q37 81 96 123q42 30 84 30q51 0 83 -41q24 -32 21 -80
q-7 -75 -63 -137q-27 -30 -58 -41q-6 -3 -9 -10q-30 -89 -26 -158q2 -25 7 -43q8 3 13.5 10t6.5 8q27 32 44 64q18 36 18 69q0 3 -2 7.5t-3 7.5q3 3 8 3h6q5 -1 15 -1q17 0 39 5q11 2 19 4.5t14 4.5q5 2 14 2q11 0 19 -9q0 -5 -4 -7.5t-5 -3.5q-23 -11 -53 -14
q-10 -2 -16 -2l-3 -23q-5 -38 -34 -85q-29 -45 -70 -79l-7 -7l-3 -4q12 -25 22.5 -39t29.5 -21q10 -3 22.5 -9t19.5 -9q4 -1 5 -5.5t-3 -6.5q-20 -13 -36 -13q-4 0 -12 2q-28 10 -48.5 22zM196 106q18 7 29 17l-3 12q-13 40 -13 85q2 67 19 118l12 36l-11 7q-28 15 -28 54
q0 47 32 87q6 10 18 13q8 2 13 2q23 0 40.5 -15.5t15.5 -40.5q0 -8 -1 -11l-12 -57l2 -2l13 11q65 70 65 153q0 29 -15 56q-9 17 -27 15q-19 -3 -37 -9q-34 -12 -66 -44q-40 -40 -66 -100q-13 -29 -13 -56q0 -16 5 -34q3 -9 5.5 -15.5t4.5 -12.5l2 -8q0 -6 -10 -9
q-30 -8 -52 -34q-31 -33 -44 -71q-10 -26 -10 -53q0 -23 7 -44q9 -25 31 -43t47 -18q14 0 47 11zM218 587q-14 -14 -30 -39t-17 -35zM248 394q9 29 29 87q3 8 3 17q0 13 -2 18t-5.5 6.5t-7.5 -1.5q-8 -5 -17 -16q-26 -36 -26 -74q0 -29 23 -43zM393 483q-2 0 -2 1l-6 -12
l2 -1zM307 478l-21 -79l2 -1q17 48 19 80zM288 439q-2 0 -2 1l-6 -16q1 -1 3 -1zM251 217q0 43 8 78q3 18 9 40t8 30q-13 -23 -21 -64.5t-8 -81.5q0 -51 13 -67q-9 40 -9 65zM390 305q-12 -49 -14 -55q16 31 14 55zM366 302l-6 -26q9 12 6 26zM81 296l-2 1q-2 -3 -9.5 -16
t-9.5 -28zM236 222q0 24 6 70q-9 -40 -9 -67q0 -29 7 -54q-4 23 -4 51zM377 289h-2l-3 -13l2 -1zM61 283l-2 1q0 -2 -5 -11l2 -1zM224 221q0 16 2 50q-4 -36 -4 -54q0 -26 6 -53q-4 25 -4 57z" />
    <glyph glyph-name="paragraph" unicode="&#xb6;" horiz-adv-x="407" 
d="M39 73q-4 0 -12 2q-7 1 -7 8l1 10q7 41 31 121l45 155q2 6 2 10l-28 20q-16 11 -26 32q-15 32 -15 64q0 36 19 70q20 35 44 55q47 38 111 32l120 -13l38 -3q16 -2 25 -15q-14 -6 -38 -6q-5 0 -13 0.5t-18 -0.5q-27 -101 -59 -199.5t-83 -245.5q-14 -42 -32 -94l-29 1
q-2 3 -2 9q0 5 2 11q9 43 23.5 93t29.5 97q50 148 77 222q10 32 29 73l12 31q1 1 1 4q-30 6 -77 6q-7 -43 -10 -54q-14 -62 -33 -127q-27 -94 -83 -282q-5 -17 -13.5 -37t-11.5 -28l-8 -21zM111 416l29 87l34 101q4 6 2 12l-7 -2q-45 -19 -74 -69q-18 -31 -18 -65
q0 -22 9 -46q3 -8 8 -16t13 -14zM94 569l-2 1q-17 -22 -19 -40zM63 563l-2 1q-1 -2 -5 -8.5t-4 -14.5zM282 522l-3 1l-66 -199l4 -1q28 88 65 199zM253 499l-2 1l-9 -26l2 -1zM141 470q1 5 3 10t4 12l-2 1l-7 -23h2zM162 469h-2q-9 -27 -25 -83q2 0 3 -1zM132 440l-2 1
l-6 -16q2 0 3 -1q1 6 5 16zM134 413q1 5 5 15l-3 1l-4 -16h2zM209 371q3 9 4 11l-2 1l-4 -12h2zM111 371q-2 0 -3 1q-1 -4 -2 -8.5t-3 -8.5q1 -1 3 -1q1 4 5 17zM107 276q25 84 23 92l-55 -185q7 9 32 93zM120 366l-2 1l-5 -17q2 0 2 -1zM108 325l-2 1l-5 -15l2 -1zM211 310
l-2 1l-21 -60l2 -2q11 27 21 61z" />
    <glyph glyph-name="bar" unicode="|" horiz-adv-x="276" 
d="M34 18q-10 3 -12.5 6.5t-0.5 14.5q5 32 15 63.5t25 75.5l45 125l27 72q21 60 26 77l26 76q21 58 37 100q1 2 2 4.5t2 5.5q4 -1 12 -3.5t13 -6.5q5 -5 5 -10l-2 -11q-16 -58 -22 -76q-31 -93 -71 -208q-9 -25 -29 -75l-17 -43q-14 -37 -23.5 -65t-15.5 -46l-10 -28
q-2 -5 -11 -26l-4 -14q-2 -7 -4 -8.5t-9 -0.5q-1 1 -4 1zM227 553.5q1 3.5 3 7.5l-2 1l-5 -14l2 -1q1 3 2 6.5zM72 117l25 73l17 43q48 120 95 265l2 8q-5 -5 -7 -13q-46 -139 -84 -234l-24 -67l-2 -4l-36 -104l-1 -6q8 16 15 39zM124 318q0 1 -2 1q-1 -6 -5 -13q2 0 2 -1
q5 12 5 13zM80 199l-2 1l-5 -12l2 -1z" />
    <glyph glyph-name="brokenbar" unicode="&#xa6;" horiz-adv-x="270" 
d="M133 374.5q-5 0.5 -8 1.5q-6 3 -7.5 6t1.5 10q16 50 28 85l52 138q13 31 25 50l22 -12q5 -4 3 -11q-2 -6 -10 -32q-15 -50 -59 -162q-4 -10 -30 -67q-1 -4 -5 -8l-4 -2q-3 3 -8 3.5zM176 467q-1 1 -3 1q-1 -6 -5 -13l3 -1q2 6 5 13zM23.5 43q-3.5 4 -3.5 14q2 40 22 93
q22 66 34 98l20 57l7 13q12 -2 20 -4l1 -7q-6 -12 -8 -30q8 20 8 30l7 3q0 -1 1.5 -4t0.5 -4q-6 -27 -15 -55q-38 -116 -58 -174l-6 -15t-3 -20h-14q-10 1 -13.5 5zM90 198q5 13 6 22q4 6 7 15.5t5 14.5q-2 0 -3 1l-9 -31l-17 -43q2 0 3 -1q3 9 8 22z" />
    <glyph glyph-name="dagger" unicode="&#x2020;" horiz-adv-x="276" 
d="M20 90l3 17q29 140 93 314l26 72q0 1 2 7q-4 2 -8.5 1.5t-5.5 -0.5q-17 0 -30 3q-5 1 -17 9q5 6 16 6l53 3l15 38q18 52 28 78q3 8 11 24q2 4 4 6l10 -3q9 -4 11.5 -8.5t1.5 -13.5q-5 -26 -17 -76q-2 -12 -13 -44q5 -1 16 -1q14 0 22 -1.5t15 -8.5q-5 -6 -16 -6l-33 -1
h-3q-4 0 -6.5 -2t-4.5 -8l-79 -227l-24 -72q-7 -21 -15 -44.5t-17 -50.5q-1 -4 -3 -8.5t-3 -7.5q-23 4 -32 5zM182 500l-4 1l-27 -79q-37 -106 -49 -147zM155 491l-3 1q-1 -6 -5 -13l3 -2q1 7 5 14zM161 479l-2 1l-7 -20l2 -1q4 9 7 20zM138 444l-2 1l-5 -13l2 -1zM86 225
q2 4 3 7.5t2 6.5l-2 1q-1 -5 -5 -15h2z" />
    <glyph glyph-name="daggerdbl" unicode="&#x2021;" horiz-adv-x="264" 
d="M20 97q2 10 4 16q48 172 99 305l3 10l-23 3q-12 1 -19 13q8 5 18 5q6 0 15.5 -1.5t15.5 -0.5q6 14 23 61q-17 -1 -26 1t-16 13q8 4 24 4q17 0 25 1q2 6 5 13l40 109l8 16q8 -2 13 -4q11 -5 11 -12q0 -5 -1 -9l-28 -102l-2 -6t-2 -7q20 -4 29 -7q2 0 4.5 -3t3.5 -4
q-8 -4 -22.5 -3.5t-20.5 -0.5q-14 -42 -22 -63q5 -1 12.5 -2t13 -3t9.5 -7q-4 -5 -10.5 -5.5t-8.5 -0.5h-22l-35 -99q-22 -62 -26 -73q-23 -64 -43 -113t-26 -57z" />
    </font>
</defs>
</svg>
